{"glyphs":{"0":{"ha":806,"x_min":40,"x_max":766,"o":"m 116.2109375 -346.19140625 l 116.2109375 -346.19140625 q 116.2109375 -306.15234375 126.46484375 -269.04296875 q 136.71875 -231.93359375 155.029296875 -199.462890625 q 173.33984375 -166.9921875 199.462890625 -140.13671875 q 225.5859375 -113.28125 257.568359375 -94.23828125 q 289.55078125 -75.1953125 326.171875 -64.697265625 q 362.79296875 -54.19921875 402.83203125 -54.19921875 l 402.83203125 -54.19921875 q 442.87109375 -54.19921875 479.736328125 -64.697265625 q 516.6015625 -75.1953125 548.583984375 -94.23828125 q 580.56640625 -113.28125 606.4453125 -140.13671875 q 632.32421875 -166.9921875 650.87890625 -199.462890625 q 669.43359375 -231.93359375 679.6875 -269.04296875 q 689.94140625 -306.15234375 689.94140625 -346.19140625 l 689.94140625 -346.19140625 q 689.94140625 -406.25 667.48046875 -459.228515625 q 645.01953125 -512.20703125 606.201171875 -552.001953125 q 567.3828125 -591.796875 515.13671875 -614.990234375 q 462.890625 -638.18359375 402.83203125 -638.18359375 l 402.83203125 -638.18359375 q 342.7734375 -638.18359375 290.52734375 -614.990234375 q 238.28125 -591.796875 199.462890625 -552.001953125 q 160.64453125 -512.20703125 138.427734375 -459.228515625 q 116.2109375 -406.25 116.2109375 -346.19140625 m 40.0390625 -348.14453125 l 40.0390625 -348.14453125 q 40.0390625 -397.94921875 52.978515625 -444.3359375 q 65.91796875 -490.72265625 89.599609375 -531.005859375 q 113.28125 -571.2890625 146.484375 -604.4921875 q 179.6875 -637.6953125 219.970703125 -661.376953125 q 260.25390625 -685.05859375 306.640625 -697.998046875 q 353.02734375 -710.9375 402.83203125 -710.9375 l 402.83203125 -710.9375 q 452.63671875 -710.9375 499.0234375 -697.998046875 q 545.41015625 -685.05859375 585.9375 -661.376953125 q 626.46484375 -637.6953125 659.66796875 -604.4921875 q 692.87109375 -571.2890625 716.552734375 -531.005859375 q 740.234375 -490.72265625 753.173828125 -444.3359375 q 766.11328125 -397.94921875 766.11328125 -348.14453125 l 766.11328125 -348.14453125 q 766.11328125 -297.8515625 753.173828125 -251.708984375 q 740.234375 -205.56640625 716.552734375 -165.0390625 q 692.87109375 -124.51171875 659.66796875 -91.30859375 q 626.46484375 -58.10546875 585.9375 -34.423828125 q 545.41015625 -10.7421875 499.0234375 2.197265625 q 452.63671875 15.13671875 402.83203125 15.13671875 l 402.83203125 15.13671875 q 353.02734375 15.13671875 306.640625 2.197265625 q 260.25390625 -10.7421875 219.970703125 -34.423828125 q 179.6875 -58.10546875 146.484375 -91.30859375 q 113.28125 -124.51171875 89.599609375 -165.0390625 q 65.91796875 -205.56640625 52.978515625 -251.708984375 q 40.0390625 -297.8515625 40.0390625 -348.14453125"},"1":{"ha":295,"x_min":54,"x_max":204,"o":"m 90.8203125 0 l 90.8203125 -1.953125 q 93.75 -12.20703125 96.435546875 -27.34375 q 99.12109375 -42.48046875 101.07421875 -64.94140625 q 103.02734375 -87.40234375 104.00390625 -118.408203125 q 104.98046875 -149.4140625 104.98046875 -190.91796875 l 104.98046875 -190.91796875 l 104.98046875 -508.7890625 q 104.98046875 -550.29296875 99.12109375 -574.70703125 q 93.26171875 -599.12109375 85.205078125 -612.3046875 q 77.1484375 -625.48828125 68.603515625 -631.34765625 q 60.05859375 -637.20703125 54.19921875 -642.08984375 l 54.19921875 -642.08984375 l 54.19921875 -644.04296875 l 204.1015625 -700.1953125 l 204.1015625 -698.2421875 q 201.171875 -687.98828125 198.486328125 -672.8515625 q 195.80078125 -657.71484375 193.84765625 -635.009765625 q 191.89453125 -612.3046875 190.91796875 -581.298828125 q 189.94140625 -550.29296875 189.94140625 -508.7890625 l 189.94140625 -508.7890625 l 189.94140625 -190.91796875 q 189.94140625 -149.4140625 190.91796875 -118.408203125 q 191.89453125 -87.40234375 193.84765625 -64.94140625 q 195.80078125 -42.48046875 198.486328125 -27.34375 q 201.171875 -12.20703125 204.1015625 -1.953125 l 204.1015625 -1.953125 l 204.1015625 0 l 90.8203125 0"},"2":{"ha":532,"x_min":24,"x_max":505,"o":"m 76.171875 -9.765625 l 76.171875 -9.765625 q 83.49609375 -19.04296875 99.12109375 -34.912109375 q 114.74609375 -50.78125 135.25390625 -72.509765625 q 155.76171875 -94.23828125 179.19921875 -121.09375 q 202.63671875 -147.94921875 226.07421875 -179.19921875 q 249.51171875 -210.44921875 271.240234375 -245.849609375 q 292.96875 -281.25 309.5703125 -319.82421875 q 326.171875 -358.3984375 336.181640625 -399.90234375 q 346.19140625 -441.40625 346.19140625 -484.86328125 l 346.19140625 -484.86328125 q 346.19140625 -531.25 335.205078125 -565.185546875 q 324.21875 -599.12109375 305.17578125 -621.337890625 q 286.1328125 -643.5546875 260.498046875 -654.296875 q 234.86328125 -665.0390625 205.078125 -665.0390625 l 205.078125 -665.0390625 q 167.96875 -665.0390625 137.939453125 -652.587890625 q 107.91015625 -640.13671875 85.693359375 -623.53515625 q 63.4765625 -606.93359375 49.560546875 -590.33203125 q 35.64453125 -573.73046875 30.76171875 -564.94140625 l 30.76171875 -564.94140625 l 23.92578125 -567.87109375 l 57.12890625 -666.9921875 q 83.0078125 -678.7109375 105.712890625 -687.255859375 q 128.41796875 -695.80078125 151.611328125 -701.171875 q 174.8046875 -706.54296875 199.462890625 -709.228515625 q 224.12109375 -711.9140625 253.90625 -711.9140625 l 253.90625 -711.9140625 q 273.92578125 -711.9140625 296.38671875 -707.51953125 q 318.84765625 -703.125 340.8203125 -693.359375 q 362.79296875 -683.59375 382.568359375 -668.212890625 q 402.34375 -652.83203125 417.724609375 -630.615234375 q 433.10546875 -608.3984375 442.138671875 -579.1015625 q 451.171875 -549.8046875 451.171875 -512.20703125 l 451.171875 -512.20703125 q 451.171875 -472.16796875 438.96484375 -431.884765625 q 426.7578125 -391.6015625 406.73828125 -352.783203125 q 386.71875 -313.96484375 360.83984375 -276.85546875 q 334.9609375 -239.74609375 307.6171875 -206.0546875 q 280.2734375 -172.36328125 253.41796875 -142.822265625 q 226.5625 -113.28125 205.078125 -88.8671875 l 205.078125 -88.8671875 l 393.06640625 -88.8671875 q 411.1328125 -88.8671875 428.466796875 -89.599609375 q 445.80078125 -90.33203125 460.44921875 -92.041015625 q 475.09765625 -93.75 486.083984375 -96.6796875 q 497.0703125 -99.609375 502.9296875 -104.00390625 l 502.9296875 -104.00390625 l 504.8828125 -104.00390625 l 504.8828125 0 l 76.171875 0 l 76.171875 -9.765625"},"3":{"ha":504,"x_min":7,"x_max":444,"o":"m 140.13671875 -408.203125 l 140.13671875 -408.203125 q 166.50390625 -411.62109375 195.068359375 -421.630859375 q 223.6328125 -431.640625 247.802734375 -449.70703125 q 271.97265625 -467.7734375 287.59765625 -495.1171875 q 303.22265625 -522.4609375 303.22265625 -561.03515625 l 303.22265625 -561.03515625 q 303.22265625 -583.0078125 296.875 -602.294921875 q 290.52734375 -621.58203125 277.099609375 -636.23046875 q 263.671875 -650.87890625 242.919921875 -659.423828125 q 222.16796875 -667.96875 193.84765625 -667.96875 l 193.84765625 -667.96875 q 160.64453125 -667.96875 134.033203125 -658.69140625 q 107.421875 -649.4140625 86.42578125 -635.25390625 q 65.4296875 -621.09375 49.8046875 -603.759765625 q 34.1796875 -586.42578125 23.92578125 -569.82421875 l 23.92578125 -569.82421875 l 17.08984375 -573.2421875 l 48.828125 -673.828125 q 67.87109375 -681.640625 87.40234375 -688.720703125 q 106.93359375 -695.80078125 128.662109375 -700.927734375 q 150.390625 -706.0546875 175.048828125 -708.984375 q 199.70703125 -711.9140625 229.00390625 -711.9140625 l 229.00390625 -711.9140625 q 244.140625 -711.9140625 262.6953125 -709.228515625 q 281.25 -706.54296875 300.537109375 -700.1953125 q 319.82421875 -693.84765625 337.890625 -683.349609375 q 355.95703125 -672.8515625 370.361328125 -657.2265625 q 384.765625 -641.6015625 393.310546875 -620.361328125 q 401.85546875 -599.12109375 401.85546875 -571.77734375 l 401.85546875 -571.77734375 q 401.85546875 -537.59765625 388.18359375 -511.962890625 q 374.51171875 -486.328125 354.4921875 -467.529296875 q 334.47265625 -448.73046875 312.01171875 -436.767578125 q 289.55078125 -424.8046875 271.97265625 -417.96875 l 271.97265625 -417.96875 q 301.26953125 -415.52734375 331.787109375 -405.76171875 q 362.3046875 -395.99609375 387.20703125 -376.220703125 q 412.109375 -356.4453125 427.978515625 -324.70703125 q 443.84765625 -292.96875 443.84765625 -247.0703125 l 443.84765625 -247.0703125 q 443.84765625 -194.82421875 424.560546875 -147.94921875 q 405.2734375 -101.07421875 372.55859375 -60.546875 q 339.84375 -20.01953125 296.875 14.16015625 q 253.90625 48.33984375 206.298828125 75.1953125 q 158.69140625 102.05078125 109.619140625 121.58203125 q 60.546875 141.11328125 16.11328125 151.85546875 l 16.11328125 151.85546875 l 6.8359375 126.953125 q 77.1484375 109.375 137.6953125 77.1484375 q 198.2421875 44.921875 242.919921875 -1.220703125 q 287.59765625 -47.36328125 313.232421875 -106.93359375 q 338.8671875 -166.50390625 338.8671875 -238.76953125 l 338.8671875 -238.76953125 q 338.8671875 -279.296875 327.1484375 -306.640625 q 315.4296875 -333.984375 296.630859375 -350.341796875 q 277.83203125 -366.69921875 254.638671875 -373.779296875 q 231.4453125 -380.859375 208.0078125 -380.859375 l 208.0078125 -380.859375 q 193.84765625 -380.859375 181.640625 -379.39453125 q 169.43359375 -377.9296875 160.15625 -375.9765625 l 160.15625 -375.9765625 q 149.4140625 -374.0234375 140.13671875 -371.09375 l 140.13671875 -371.09375 l 140.13671875 -408.203125"},"4":{"ha":573,"x_min":17,"x_max":560,"o":"m 440.91796875 -711.9140625 l 451.171875 -711.9140625 l 451.171875 -709.9609375 q 448.73046875 -699.70703125 446.77734375 -684.5703125 q 444.82421875 -669.43359375 443.603515625 -646.97265625 q 442.3828125 -624.51171875 441.650390625 -593.505859375 q 440.91796875 -562.5 440.91796875 -520.99609375 l 440.91796875 -520.99609375 l 440.91796875 -220.21484375 q 485.3515625 -221.19140625 513.427734375 -223.14453125 q 541.50390625 -225.09765625 558.10546875 -229.00390625 l 558.10546875 -229.00390625 l 560.05859375 -229.00390625 l 560.05859375 -159.1796875 l 558.10546875 -159.1796875 q 541.50390625 -162.109375 513.427734375 -164.55078125 q 485.3515625 -166.9921875 440.91796875 -167.96875 l 440.91796875 -167.96875 q 441.40625 -132.32421875 442.3828125 -105.46875 q 443.359375 -78.61328125 445.3125 -58.837890625 q 447.265625 -39.0625 449.70703125 -25.146484375 q 452.1484375 -11.23046875 455.078125 -1.953125 l 455.078125 -1.953125 l 455.078125 0 l 337.890625 0 l 337.890625 -1.953125 q 340.8203125 -11.23046875 343.26171875 -25.146484375 q 345.703125 -39.0625 347.412109375 -58.837890625 q 349.12109375 -78.61328125 350.341796875 -105.46875 q 351.5625 -132.32421875 352.05078125 -167.96875 l 352.05078125 -167.96875 l 17.08984375 -167.96875 l 17.08984375 -189.94140625 l 440.91796875 -711.9140625 m 104.98046875 -220.21484375 l 352.05078125 -220.21484375 l 352.05078125 -526.85546875 l 104.98046875 -220.21484375"},"5":{"ha":466,"x_min":15,"x_max":424,"o":"m 25.87890625 111.81640625 l 15.13671875 84.9609375 q 85.44921875 67.3828125 144.287109375 41.015625 q 203.125 14.6484375 246.09375 -21.240234375 q 289.0625 -57.12890625 312.98828125 -103.02734375 q 336.9140625 -148.92578125 336.9140625 -205.078125 l 336.9140625 -205.078125 q 336.9140625 -260.7421875 314.453125 -299.8046875 q 291.9921875 -338.8671875 253.173828125 -363.76953125 q 214.35546875 -388.671875 161.865234375 -400.390625 q 109.375 -412.109375 49.8046875 -413.0859375 l 49.8046875 -413.0859375 l 112.79296875 -700.1953125 l 206.0546875 -700.1953125 q 247.55859375 -700.1953125 278.564453125 -700.439453125 q 309.5703125 -700.68359375 332.03125 -700.927734375 q 354.4921875 -701.171875 369.62890625 -701.66015625 q 384.765625 -702.1484375 395.01953125 -703.125 l 395.01953125 -703.125 l 396.97265625 -703.125 l 396.97265625 -597.16796875 l 395.01953125 -597.16796875 q 384.765625 -600.09765625 369.62890625 -602.5390625 q 354.4921875 -604.98046875 332.03125 -606.93359375 q 309.5703125 -608.88671875 278.564453125 -609.86328125 q 247.55859375 -610.83984375 206.0546875 -610.83984375 l 206.0546875 -610.83984375 l 133.7890625 -610.83984375 l 107.91015625 -500.9765625 q 147.4609375 -500 186.03515625 -493.408203125 q 224.609375 -486.81640625 259.765625 -473.388671875 q 294.921875 -459.9609375 324.951171875 -439.697265625 q 354.98046875 -419.43359375 376.953125 -391.845703125 q 398.92578125 -364.2578125 411.376953125 -328.857421875 q 423.828125 -293.45703125 423.828125 -250 l 423.828125 -250 q 423.828125 -193.84765625 406.73828125 -148.4375 q 389.6484375 -103.02734375 360.3515625 -66.40625 q 331.0546875 -29.78515625 291.9921875 -1.46484375 q 252.9296875 26.85546875 208.740234375 48.33984375 q 164.55078125 69.82421875 117.67578125 85.44921875 q 70.80078125 101.07421875 25.87890625 111.81640625 l 25.87890625 111.81640625"},"6":{"ha":558,"x_min":44,"x_max":533,"o":"m 500 -807.12890625 l 511.23046875 -782.2265625 q 416.9921875 -745.60546875 348.388671875 -693.84765625 q 279.78515625 -642.08984375 235.3515625 -578.61328125 q 190.91796875 -515.13671875 169.43359375 -442.3828125 l 169.43359375 -442.3828125 q 160.15625 -411.62109375 154.78515625 -379.8828125 l 154.78515625 -379.8828125 q 193.359375 -407.71484375 229.98046875 -420.8984375 l 229.98046875 -420.8984375 q 281.73828125 -439.94140625 327.1484375 -439.94140625 l 327.1484375 -439.94140625 q 362.79296875 -439.94140625 399.658203125 -426.513671875 q 436.5234375 -413.0859375 466.064453125 -385.498046875 q 495.60546875 -357.91015625 514.404296875 -316.40625 q 533.203125 -274.90234375 533.203125 -219.23828125 l 533.203125 -219.23828125 q 533.203125 -175.78125 518.798828125 -133.544921875 q 504.39453125 -91.30859375 475.341796875 -58.349609375 q 446.2890625 -25.390625 402.099609375 -5.126953125 q 357.91015625 15.13671875 298.828125 15.13671875 l 298.828125 15.13671875 q 248.046875 15.13671875 201.904296875 -2.685546875 q 155.76171875 -20.5078125 120.60546875 -57.12890625 q 85.44921875 -93.75 64.697265625 -149.658203125 q 43.9453125 -205.56640625 43.9453125 -282.2265625 l 43.9453125 -282.2265625 q 43.9453125 -346.6796875 60.546875 -404.052734375 q 77.1484375 -461.42578125 107.421875 -511.71875 q 137.6953125 -562.01171875 179.6875 -605.712890625 q 221.6796875 -649.4140625 272.4609375 -686.03515625 q 323.2421875 -722.65625 380.859375 -752.9296875 q 438.4765625 -783.203125 500 -807.12890625 l 500 -807.12890625 m 147.94921875 -291.9921875 l 147.94921875 -291.9921875 q 147.94921875 -215.33203125 159.912109375 -163.57421875 q 171.875 -111.81640625 193.84765625 -80.322265625 q 215.8203125 -48.828125 246.337890625 -35.400390625 q 276.85546875 -21.97265625 313.96484375 -21.97265625 l 313.96484375 -21.97265625 q 338.37890625 -21.97265625 361.572265625 -31.982421875 q 384.765625 -41.9921875 402.83203125 -62.01171875 q 420.8984375 -82.03125 431.884765625 -111.81640625 q 442.87109375 -141.6015625 442.87109375 -181.15234375 l 442.87109375 -181.15234375 q 442.87109375 -224.12109375 429.6875 -261.23046875 q 416.50390625 -298.33984375 394.775390625 -325.439453125 q 373.046875 -352.5390625 345.458984375 -368.1640625 q 317.87109375 -383.7890625 289.0625 -383.7890625 l 289.0625 -383.7890625 q 263.18359375 -383.7890625 241.455078125 -379.638671875 q 219.7265625 -375.48828125 201.171875 -368.1640625 q 182.6171875 -360.83984375 166.9921875 -351.07421875 l 166.9921875 -351.07421875 q 157.71484375 -345.21484375 149.90234375 -339.35546875 l 149.90234375 -339.35546875 q 147.94921875 -315.91796875 147.94921875 -291.9921875"},"7":{"ha":489,"x_min":50,"x_max":509,"o":"m 403.80859375 -610.83984375 l 254.8828125 -610.83984375 q 213.37890625 -610.83984375 182.373046875 -609.86328125 q 151.3671875 -608.88671875 128.90625 -606.93359375 q 106.4453125 -604.98046875 91.30859375 -602.5390625 q 76.171875 -600.09765625 65.91796875 -597.16796875 l 65.91796875 -597.16796875 l 63.96484375 -597.16796875 l 63.96484375 -703.125 l 65.91796875 -703.125 q 76.171875 -702.1484375 91.30859375 -701.416015625 q 106.4453125 -700.68359375 128.90625 -700.439453125 q 151.3671875 -700.1953125 182.373046875 -700.1953125 q 213.37890625 -700.1953125 254.8828125 -700.1953125 l 254.8828125 -700.1953125 l 508.7890625 -700.1953125 l 508.7890625 -689.94140625 l 105.95703125 0 l 49.8046875 0 l 403.80859375 -610.83984375"},"8":{"ha":538,"x_min":40,"x_max":498,"o":"m 456.0546875 -562.98828125 l 456.0546875 -562.98828125 q 456.0546875 -536.62109375 445.556640625 -513.671875 q 435.05859375 -490.72265625 417.724609375 -470.458984375 q 400.390625 -450.1953125 377.9296875 -432.373046875 q 355.46875 -414.55078125 331.0546875 -398.92578125 l 331.0546875 -398.92578125 q 362.3046875 -376.953125 392.333984375 -353.271484375 q 422.36328125 -329.58984375 445.80078125 -303.466796875 q 469.23828125 -277.34375 483.642578125 -247.802734375 q 498.046875 -218.26171875 498.046875 -184.08203125 l 498.046875 -184.08203125 q 498.046875 -145.5078125 482.421875 -109.619140625 q 466.796875 -73.73046875 437.5 -45.8984375 q 408.203125 -18.06640625 365.72265625 -1.46484375 q 323.2421875 15.13671875 269.04296875 15.13671875 l 269.04296875 15.13671875 q 208.49609375 15.13671875 165.283203125 -0.48828125 q 122.0703125 -16.11328125 94.23828125 -42.236328125 q 66.40625 -68.359375 53.22265625 -101.5625 q 40.0390625 -134.765625 40.0390625 -169.921875 l 40.0390625 -169.921875 q 40.0390625 -203.61328125 52.490234375 -231.93359375 q 64.94140625 -260.25390625 86.9140625 -284.912109375 q 108.88671875 -309.5703125 139.404296875 -330.810546875 q 169.921875 -352.05078125 206.0546875 -371.09375 l 206.0546875 -371.09375 q 180.6640625 -390.625 157.470703125 -410.64453125 q 134.27734375 -430.6640625 116.69921875 -452.1484375 q 99.12109375 -473.6328125 88.623046875 -496.826171875 q 78.125 -520.01953125 78.125 -545.8984375 l 78.125 -545.8984375 q 78.125 -591.796875 96.19140625 -623.291015625 q 114.2578125 -654.78515625 142.333984375 -674.560546875 q 170.41015625 -694.3359375 203.857421875 -703.125 q 237.3046875 -711.9140625 268.06640625 -711.9140625 l 268.06640625 -711.9140625 q 307.6171875 -711.9140625 341.796875 -702.1484375 q 375.9765625 -692.3828125 401.3671875 -673.583984375 q 426.7578125 -654.78515625 441.40625 -626.953125 q 456.0546875 -599.12109375 456.0546875 -562.98828125 m 400.87890625 -153.80859375 l 400.87890625 -153.80859375 q 400.87890625 -182.6171875 386.23046875 -208.49609375 q 371.58203125 -234.375 348.14453125 -258.056640625 q 324.70703125 -281.73828125 294.677734375 -304.443359375 q 264.6484375 -327.1484375 233.88671875 -350.09765625 l 233.88671875 -350.09765625 q 200.68359375 -329.1015625 179.19921875 -308.349609375 q 157.71484375 -287.59765625 145.01953125 -266.11328125 q 132.32421875 -244.62890625 127.197265625 -221.19140625 q 122.0703125 -197.75390625 122.0703125 -170.8984375 l 122.0703125 -170.8984375 q 122.0703125 -136.71875 133.30078125 -109.375 q 144.53125 -82.03125 164.55078125 -62.744140625 q 184.5703125 -43.45703125 211.9140625 -32.958984375 q 239.2578125 -22.4609375 270.99609375 -21.97265625 l 270.99609375 -21.97265625 q 296.875 -21.484375 320.3125 -29.541015625 q 343.75 -37.59765625 361.81640625 -54.19921875 q 379.8828125 -70.80078125 390.380859375 -95.703125 q 400.87890625 -120.60546875 400.87890625 -153.80859375 m 172.8515625 -574.21875 l 172.8515625 -574.21875 q 172.8515625 -552.24609375 183.349609375 -532.470703125 q 193.84765625 -512.6953125 211.42578125 -493.896484375 q 229.00390625 -475.09765625 252.44140625 -456.787109375 q 275.87890625 -438.4765625 301.7578125 -419.921875 l 301.7578125 -419.921875 q 321.77734375 -432.12890625 337.890625 -446.2890625 q 354.00390625 -460.44921875 365.478515625 -477.5390625 q 376.953125 -494.62890625 383.056640625 -515.380859375 q 389.16015625 -536.1328125 389.16015625 -561.03515625 l 389.16015625 -561.03515625 q 389.16015625 -594.23828125 378.662109375 -616.455078125 q 368.1640625 -638.671875 352.05078125 -651.85546875 q 335.9375 -665.0390625 316.650390625 -670.41015625 q 297.36328125 -675.78125 279.78515625 -675.78125 l 279.78515625 -675.78125 q 259.27734375 -675.78125 239.990234375 -669.43359375 q 220.703125 -663.0859375 205.810546875 -650.390625 q 190.91796875 -637.6953125 181.884765625 -618.65234375 q 172.8515625 -599.609375 172.8515625 -574.21875"},"9":{"ha":554,"x_min":-50,"x_max":510,"o":"m -38.0859375 98.14453125 l -49.8046875 76.171875 q 2.9296875 72.265625 53.466796875 55.908203125 q 104.00390625 39.55078125 150.390625 12.939453125 q 196.77734375 -13.671875 237.548828125 -49.560546875 q 278.3203125 -85.44921875 310.791015625 -128.662109375 q 343.26171875 -171.875 366.455078125 -221.435546875 q 389.6484375 -270.99609375 400.87890625 -325.1953125 l 400.87890625 -325.1953125 q 380.37109375 -312.5 362.548828125 -303.466796875 q 344.7265625 -294.43359375 325.927734375 -288.57421875 q 307.12890625 -282.71484375 285.888671875 -279.78515625 q 264.6484375 -276.85546875 237.79296875 -276.85546875 l 237.79296875 -276.85546875 q 204.1015625 -276.85546875 166.748046875 -289.55078125 q 129.39453125 -302.24609375 98.14453125 -328.61328125 q 66.89453125 -354.98046875 46.38671875 -395.5078125 q 25.87890625 -436.03515625 25.87890625 -492.1875 l 25.87890625 -492.1875 q 25.87890625 -530.2734375 40.52734375 -569.580078125 q 55.17578125 -608.88671875 84.716796875 -640.380859375 q 114.2578125 -671.875 159.1796875 -691.89453125 q 204.1015625 -711.9140625 265.13671875 -711.9140625 l 265.13671875 -711.9140625 q 312.5 -711.9140625 356.689453125 -694.3359375 q 400.87890625 -676.7578125 435.05859375 -640.869140625 q 469.23828125 -604.98046875 489.501953125 -550.78125 q 509.765625 -496.58203125 509.765625 -422.8515625 l 509.765625 -422.8515625 q 509.765625 -358.3984375 489.74609375 -295.654296875 q 469.7265625 -232.91015625 433.59375 -176.26953125 q 397.4609375 -119.62890625 347.16796875 -71.044921875 q 296.875 -22.4609375 235.83984375 13.916015625 q 174.8046875 50.29296875 105.46875 72.265625 q 36.1328125 94.23828125 -38.0859375 98.14453125 l -38.0859375 98.14453125 m 292.96875 -328.125 l 292.96875 -328.125 q 321.77734375 -328.125 351.5625 -336.42578125 q 381.34765625 -344.7265625 407.2265625 -361.81640625 l 407.2265625 -361.81640625 q 409.66796875 -375.48828125 410.400390625 -389.6484375 q 411.1328125 -403.80859375 411.1328125 -418.9453125 l 411.1328125 -418.9453125 q 411.1328125 -479.98046875 397.94921875 -527.587890625 q 384.765625 -575.1953125 362.79296875 -607.91015625 q 340.8203125 -640.625 311.767578125 -657.71484375 q 282.71484375 -674.8046875 250.9765625 -674.8046875 l 250.9765625 -674.8046875 q 226.5625 -674.8046875 203.125 -665.52734375 q 179.6875 -656.25 161.1328125 -637.20703125 q 142.578125 -618.1640625 131.34765625 -588.8671875 q 120.1171875 -559.5703125 120.1171875 -519.04296875 l 120.1171875 -519.04296875 q 120.1171875 -478.515625 132.32421875 -443.603515625 q 144.53125 -408.69140625 166.9921875 -383.056640625 q 189.453125 -357.421875 221.435546875 -342.7734375 q 253.41796875 -328.125 292.96875 -328.125"},"A":{"ha":678,"x_min":-10,"x_max":688,"o":"m 687.98828125 0 l 554.19921875 0 l 554.19921875 -1.953125 q 555.17578125 -4.39453125 555.6640625 -9.27734375 q 556.15234375 -14.16015625 556.15234375 -18.06640625 l 556.15234375 -18.06640625 q 556.15234375 -33.203125 552.001953125 -51.513671875 q 547.8515625 -69.82421875 536.1328125 -97.16796875 l 536.1328125 -97.16796875 l 477.05078125 -229.98046875 q 449.70703125 -230.95703125 404.296875 -230.95703125 q 358.88671875 -230.95703125 306.15234375 -230.95703125 l 306.15234375 -230.95703125 q 267.578125 -230.95703125 231.689453125 -230.95703125 q 195.80078125 -230.95703125 166.9921875 -229.98046875 l 166.9921875 -229.98046875 l 110.83984375 -101.07421875 q 103.515625 -83.0078125 95.21484375 -61.5234375 q 86.9140625 -40.0390625 86.9140625 -18.06640625 l 86.9140625 -18.06640625 q 86.9140625 -11.71875 87.890625 -7.568359375 q 88.8671875 -3.41796875 89.84375 -1.953125 l 89.84375 -1.953125 l 89.84375 0 l -9.765625 0 l -9.765625 -1.953125 q -0.9765625 -11.23046875 12.20703125 -34.912109375 q 25.390625 -58.59375 41.015625 -94.23828125 l 41.015625 -94.23828125 l 320.80078125 -714.84375 l 359.86328125 -714.84375 l 625 -118.1640625 q 634.27734375 -97.16796875 644.287109375 -77.392578125 q 654.296875 -57.6171875 663.0859375 -41.9921875 q 671.875 -26.3671875 678.7109375 -15.625 q 685.546875 -4.8828125 687.98828125 -1.953125 l 687.98828125 -1.953125 l 687.98828125 0 m 185.05859375 -272.94921875 l 237.79296875 -272.94921875 q 266.11328125 -272.94921875 295.8984375 -273.193359375 q 325.68359375 -273.4375 354.248046875 -273.681640625 q 382.8125 -273.92578125 409.1796875 -274.169921875 q 435.546875 -274.4140625 457.03125 -274.90234375 l 457.03125 -274.90234375 l 319.82421875 -584.9609375 l 185.05859375 -272.94921875"},"B":{"ha":561,"x_min":70,"x_max":521,"o":"m 83.984375 -190.91796875 l 83.984375 -508.7890625 q 83.984375 -550.29296875 83.0078125 -581.298828125 q 82.03125 -612.3046875 80.078125 -635.009765625 q 78.125 -657.71484375 75.439453125 -672.8515625 q 72.75390625 -687.98828125 69.82421875 -698.2421875 l 69.82421875 -698.2421875 l 69.82421875 -700.1953125 q 79.58984375 -699.70703125 90.33203125 -699.70703125 l 90.33203125 -699.70703125 q 99.609375 -699.21875 111.083984375 -699.21875 q 122.55859375 -699.21875 134.765625 -699.21875 l 134.765625 -699.21875 q 152.34375 -699.21875 182.373046875 -702.63671875 q 212.40234375 -706.0546875 259.765625 -706.0546875 l 259.765625 -706.0546875 q 303.7109375 -706.0546875 340.8203125 -694.580078125 q 377.9296875 -683.10546875 405.029296875 -661.62109375 q 432.12890625 -640.13671875 447.509765625 -608.642578125 q 462.890625 -577.1484375 462.890625 -537.109375 l 462.890625 -537.109375 q 462.890625 -503.41796875 453.61328125 -476.806640625 q 444.3359375 -450.1953125 427.490234375 -430.419921875 q 410.64453125 -410.64453125 386.962890625 -397.216796875 q 363.28125 -383.7890625 334.9609375 -375.9765625 l 334.9609375 -375.9765625 q 376.46484375 -369.62890625 410.64453125 -354.736328125 q 444.82421875 -339.84375 469.482421875 -317.3828125 q 494.140625 -294.921875 507.568359375 -264.892578125 q 520.99609375 -234.86328125 520.99609375 -198.2421875 l 520.99609375 -198.2421875 q 520.99609375 -95.21484375 453.125 -43.701171875 q 385.25390625 7.8125 250 7.8125 l 250 7.8125 q 235.3515625 7.8125 215.8203125 6.591796875 q 196.2890625 5.37109375 176.025390625 3.90625 q 155.76171875 2.44140625 136.23046875 1.220703125 q 116.69921875 0 102.05078125 0 l 102.05078125 0 l 69.82421875 0 l 69.82421875 -1.953125 q 72.75390625 -12.20703125 75.439453125 -27.34375 q 78.125 -42.48046875 80.078125 -64.94140625 q 82.03125 -87.40234375 83.0078125 -118.408203125 q 83.984375 -149.4140625 83.984375 -190.91796875 l 83.984375 -190.91796875 m 263.18359375 -346.19140625 l 263.18359375 -346.19140625 q 229.98046875 -346.19140625 207.51953125 -343.75 q 185.05859375 -341.30859375 172.8515625 -338.8671875 l 172.8515625 -338.8671875 l 172.8515625 -190.91796875 q 172.8515625 -133.7890625 174.8046875 -96.6796875 q 176.7578125 -59.5703125 180.17578125 -36.1328125 l 180.17578125 -36.1328125 q 198.73046875 -33.69140625 217.28515625 -31.73828125 q 235.83984375 -29.78515625 247.0703125 -29.78515625 l 247.0703125 -29.78515625 q 338.37890625 -29.78515625 380.615234375 -70.556640625 q 422.8515625 -111.328125 422.8515625 -195.80078125 l 422.8515625 -195.80078125 q 422.8515625 -229.00390625 412.841796875 -256.591796875 q 402.83203125 -284.1796875 383.056640625 -304.19921875 q 363.28125 -324.21875 333.251953125 -335.205078125 q 303.22265625 -346.19140625 263.18359375 -346.19140625 m 172.8515625 -663.0859375 l 172.8515625 -382.8125 q 186.5234375 -381.34765625 197.265625 -381.103515625 q 208.0078125 -380.859375 220.21484375 -380.859375 l 220.21484375 -380.859375 q 253.41796875 -380.859375 280.76171875 -390.380859375 q 308.10546875 -399.90234375 327.392578125 -418.9453125 q 346.6796875 -437.98828125 357.421875 -466.552734375 q 368.1640625 -495.1171875 368.1640625 -533.203125 l 368.1640625 -533.203125 q 368.1640625 -564.94140625 360.3515625 -590.8203125 q 352.5390625 -616.69921875 337.158203125 -635.009765625 q 321.77734375 -653.3203125 299.31640625 -663.0859375 q 276.85546875 -672.8515625 248.046875 -672.8515625 l 248.046875 -672.8515625 q 229.4921875 -672.8515625 215.576171875 -671.38671875 q 201.66015625 -669.921875 191.89453125 -667.96875 l 191.89453125 -667.96875 q 180.6640625 -666.015625 172.8515625 -663.0859375 l 172.8515625 -663.0859375"},"C":{"ha":677,"x_min":40,"x_max":657,"o":"m 603.02734375 -683.10546875 l 636.23046875 -592.7734375 l 631.8359375 -590.8203125 q 593.75 -625.9765625 540.283203125 -646.97265625 q 486.81640625 -667.96875 422.8515625 -667.96875 l 422.8515625 -667.96875 q 361.328125 -667.96875 310.05859375 -648.681640625 q 258.7890625 -629.39453125 221.923828125 -592.7734375 q 185.05859375 -556.15234375 164.55078125 -502.9296875 q 144.04296875 -449.70703125 144.04296875 -381.8359375 l 144.04296875 -381.8359375 q 144.04296875 -307.12890625 163.57421875 -242.431640625 q 183.10546875 -177.734375 221.6796875 -130.37109375 q 260.25390625 -83.0078125 318.115234375 -55.908203125 q 375.9765625 -28.80859375 453.125 -28.80859375 l 453.125 -28.80859375 q 480.95703125 -28.80859375 508.7890625 -34.66796875 q 536.62109375 -40.52734375 562.255859375 -52.001953125 q 587.890625 -63.4765625 610.595703125 -79.833984375 q 633.30078125 -96.19140625 651.85546875 -117.1875 l 651.85546875 -117.1875 l 657.2265625 -113.76953125 l 618.1640625 -14.16015625 q 581.54296875 0 537.353515625 7.568359375 q 493.1640625 15.13671875 448.2421875 15.13671875 l 448.2421875 15.13671875 q 357.91015625 15.13671875 282.958984375 -10.986328125 q 208.0078125 -37.109375 154.052734375 -84.9609375 q 100.09765625 -132.8125 70.068359375 -199.951171875 q 40.0390625 -267.08984375 40.0390625 -349.12109375 l 40.0390625 -349.12109375 q 40.0390625 -395.5078125 52.001953125 -440.4296875 q 63.96484375 -485.3515625 86.9140625 -525.87890625 q 109.86328125 -566.40625 143.5546875 -600.341796875 q 177.24609375 -634.27734375 220.458984375 -659.1796875 q 263.671875 -684.08203125 315.673828125 -697.998046875 q 367.67578125 -711.9140625 428.22265625 -711.9140625 l 428.22265625 -711.9140625 q 522.4609375 -711.9140625 603.02734375 -683.10546875 l 603.02734375 -683.10546875"},"D":{"ha":714,"x_min":70,"x_max":669,"o":"m 176.7578125 -658.203125 l 176.7578125 -658.203125 q 175.78125 -603.515625 174.8046875 -552.24609375 l 174.8046875 -552.24609375 q 174.31640625 -530.2734375 174.072265625 -507.32421875 q 173.828125 -484.375 173.583984375 -462.158203125 q 173.33984375 -439.94140625 173.095703125 -419.677734375 q 172.8515625 -399.4140625 172.8515625 -383.7890625 l 172.8515625 -383.7890625 q 172.8515625 -351.07421875 173.33984375 -304.6875 q 173.828125 -258.30078125 174.560546875 -209.47265625 q 175.29296875 -160.64453125 176.7578125 -115.72265625 q 178.22265625 -70.80078125 180.17578125 -41.015625 l 180.17578125 -41.015625 q 187.01171875 -40.0390625 198.486328125 -38.818359375 q 209.9609375 -37.59765625 222.65625 -36.865234375 q 235.3515625 -36.1328125 247.55859375 -35.64453125 q 259.765625 -35.15625 268.06640625 -35.15625 l 268.06640625 -35.15625 q 302.24609375 -35.15625 338.134765625 -39.794921875 q 374.0234375 -44.43359375 407.470703125 -57.12890625 q 440.91796875 -69.82421875 470.458984375 -92.041015625 q 500 -114.2578125 522.216796875 -149.4140625 q 544.43359375 -184.5703125 557.12890625 -234.130859375 q 569.82421875 -283.69140625 569.82421875 -351.07421875 l 569.82421875 -351.07421875 q 569.82421875 -425.78125 551.7578125 -484.130859375 q 533.69140625 -542.48046875 498.779296875 -582.51953125 q 463.8671875 -622.55859375 412.353515625 -643.310546875 q 360.83984375 -664.0625 293.9453125 -664.0625 l 293.9453125 -664.0625 q 280.76171875 -664.0625 264.16015625 -663.330078125 q 247.55859375 -662.59765625 231.201171875 -661.865234375 q 214.84375 -661.1328125 200.439453125 -659.912109375 q 186.03515625 -658.69140625 176.7578125 -658.203125 m 69.82421875 -700.1953125 l 69.82421875 -702.1484375 q 81.0546875 -701.66015625 90.8203125 -701.171875 l 90.8203125 -701.171875 q 99.12109375 -700.68359375 107.91015625 -700.439453125 q 116.69921875 -700.1953125 122.0703125 -700.1953125 l 122.0703125 -700.1953125 q 131.34765625 -700.1953125 153.076171875 -701.171875 q 174.8046875 -702.1484375 202.63671875 -703.125 q 230.46875 -704.1015625 260.498046875 -705.078125 q 290.52734375 -706.0546875 316.89453125 -706.0546875 l 316.89453125 -706.0546875 q 387.6953125 -706.0546875 451.66015625 -688.4765625 q 515.625 -670.8984375 563.96484375 -630.859375 q 612.3046875 -590.8203125 640.625 -525.87890625 q 668.9453125 -460.9375 668.9453125 -366.2109375 l 668.9453125 -366.2109375 q 668.9453125 -298.33984375 654.052734375 -244.140625 q 639.16015625 -189.94140625 612.3046875 -148.4375 q 585.44921875 -106.93359375 548.095703125 -77.392578125 q 510.7421875 -47.8515625 465.576171875 -28.80859375 q 420.41015625 -9.765625 369.140625 -0.9765625 q 317.87109375 7.8125 263.18359375 7.8125 l 263.18359375 7.8125 q 243.65234375 7.8125 216.064453125 6.591796875 q 188.4765625 5.37109375 160.64453125 3.90625 q 132.8125 2.44140625 108.154296875 1.220703125 q 83.49609375 0 69.82421875 0 l 69.82421875 0 l 69.82421875 -1.953125 q 72.75390625 -12.20703125 75.439453125 -27.34375 q 78.125 -42.48046875 80.078125 -64.94140625 q 82.03125 -87.40234375 83.0078125 -118.408203125 q 83.984375 -149.4140625 83.984375 -190.91796875 l 83.984375 -190.91796875 l 83.984375 -508.7890625 q 83.984375 -550.29296875 83.0078125 -581.787109375 q 82.03125 -613.28125 80.078125 -635.986328125 q 78.125 -658.69140625 75.439453125 -674.31640625 q 72.75390625 -689.94140625 69.82421875 -700.1953125 l 69.82421875 -700.1953125"},"E":{"ha":490,"x_min":70,"x_max":440,"o":"m 69.82421875 -700.1953125 l 69.82421875 -700.1953125 q 130.859375 -700.1953125 191.162109375 -700.68359375 q 251.46484375 -701.171875 301.7578125 -701.904296875 q 352.05078125 -702.63671875 387.6953125 -704.1015625 q 423.33984375 -705.56640625 436.03515625 -708.0078125 l 436.03515625 -708.0078125 l 412.109375 -643.06640625 q 395.99609375 -647.4609375 374.51171875 -650.87890625 l 374.51171875 -650.87890625 q 355.95703125 -653.80859375 329.345703125 -656.494140625 q 302.734375 -659.1796875 268.06640625 -659.1796875 l 268.06640625 -659.1796875 q 256.34765625 -659.1796875 239.990234375 -658.447265625 q 223.6328125 -657.71484375 208.49609375 -656.73828125 l 208.49609375 -656.73828125 q 190.91796875 -655.76171875 172.8515625 -654.78515625 l 172.8515625 -654.78515625 l 172.8515625 -388.18359375 q 223.14453125 -388.671875 263.671875 -391.11328125 q 304.19921875 -393.5546875 332.51953125 -395.99609375 l 332.51953125 -395.99609375 q 365.72265625 -398.92578125 391.11328125 -402.83203125 l 391.11328125 -402.83203125 l 375.9765625 -332.03125 q 342.28515625 -336.42578125 307.12890625 -340.33203125 l 307.12890625 -340.33203125 q 276.85546875 -343.75 241.2109375 -346.435546875 q 205.56640625 -349.12109375 172.8515625 -349.12109375 l 172.8515625 -349.12109375 l 172.8515625 -42.96875 q 230.46875 -42.96875 278.80859375 -47.8515625 q 327.1484375 -52.734375 363.28125 -59.08203125 l 363.28125 -59.08203125 q 405.2734375 -65.91796875 439.94140625 -75.1953125 l 439.94140625 -75.1953125 l 425.78125 3.90625 q 419.921875 3.41796875 408.203125 2.9296875 q 396.484375 2.44140625 382.080078125 1.953125 q 367.67578125 1.46484375 351.806640625 1.220703125 q 335.9375 0.9765625 321.77734375 0.732421875 q 307.6171875 0.48828125 296.630859375 0.244140625 q 285.64453125 0 280.76171875 0 l 280.76171875 0 l 69.82421875 0 l 69.82421875 -1.953125 q 72.75390625 -12.20703125 75.439453125 -27.34375 q 78.125 -42.48046875 80.078125 -64.94140625 q 82.03125 -87.40234375 83.0078125 -118.408203125 q 83.984375 -149.4140625 83.984375 -190.91796875 l 83.984375 -190.91796875 l 83.984375 -508.7890625 q 83.984375 -550.29296875 83.0078125 -581.298828125 q 82.03125 -612.3046875 80.078125 -635.009765625 q 78.125 -657.71484375 75.439453125 -672.8515625 q 72.75390625 -687.98828125 69.82421875 -698.2421875 l 69.82421875 -698.2421875 l 69.82421875 -700.1953125"},"F":{"ha":466,"x_min":70,"x_max":446,"o":"m 172.8515625 -369.140625 l 172.8515625 -190.91796875 q 172.8515625 -149.4140625 174.072265625 -118.408203125 q 175.29296875 -87.40234375 177.001953125 -64.94140625 q 178.7109375 -42.48046875 181.396484375 -27.34375 q 184.08203125 -12.20703125 187.01171875 -1.953125 l 187.01171875 -1.953125 l 187.01171875 0 l 69.82421875 0 l 69.82421875 -1.953125 q 72.75390625 -12.20703125 75.439453125 -27.34375 q 78.125 -42.48046875 80.078125 -64.94140625 q 82.03125 -87.40234375 83.0078125 -118.408203125 q 83.984375 -149.4140625 83.984375 -190.91796875 l 83.984375 -190.91796875 l 83.984375 -508.7890625 q 83.984375 -550.29296875 83.0078125 -581.298828125 q 82.03125 -612.3046875 80.078125 -635.009765625 q 78.125 -657.71484375 75.439453125 -672.8515625 q 72.75390625 -687.98828125 69.82421875 -698.2421875 l 69.82421875 -698.2421875 l 69.82421875 -700.1953125 q 110.3515625 -700.1953125 151.85546875 -700.439453125 q 193.359375 -700.68359375 232.421875 -700.927734375 q 271.484375 -701.171875 306.640625 -701.904296875 q 341.796875 -702.63671875 370.1171875 -703.369140625 q 398.4375 -704.1015625 417.96875 -705.322265625 q 437.5 -706.54296875 445.80078125 -708.0078125 l 445.80078125 -708.0078125 l 421.875 -643.06640625 q 405.76171875 -647.4609375 384.27734375 -650.87890625 l 384.27734375 -650.87890625 q 365.72265625 -653.80859375 339.111328125 -656.494140625 q 312.5 -659.1796875 277.83203125 -659.1796875 l 277.83203125 -659.1796875 q 266.11328125 -659.1796875 248.53515625 -658.447265625 q 230.95703125 -657.71484375 213.8671875 -656.73828125 l 213.8671875 -656.73828125 q 194.3359375 -655.76171875 172.8515625 -654.78515625 l 172.8515625 -654.78515625 l 172.8515625 -408.203125 q 223.14453125 -408.69140625 265.13671875 -411.1328125 q 307.12890625 -413.57421875 337.40234375 -416.015625 l 337.40234375 -416.015625 q 372.55859375 -418.9453125 400.87890625 -422.8515625 l 400.87890625 -422.8515625 l 386.23046875 -352.05078125 q 349.609375 -356.4453125 312.01171875 -360.3515625 l 312.01171875 -360.3515625 q 279.78515625 -363.76953125 242.67578125 -366.455078125 q 205.56640625 -369.140625 172.8515625 -369.140625 l 172.8515625 -369.140625"},"G":{"ha":742,"x_min":40,"x_max":700,"o":"m 686.03515625 -102.05078125 l 686.03515625 -82.03125 q 686.03515625 -76.66015625 684.814453125 -70.80078125 q 683.59375 -64.94140625 679.19921875 -61.03515625 l 679.19921875 -61.03515625 q 657.2265625 -44.43359375 631.591796875 -30.517578125 q 605.95703125 -16.6015625 576.171875 -6.34765625 q 546.38671875 3.90625 511.962890625 9.521484375 q 477.5390625 15.13671875 437.98828125 15.13671875 l 437.98828125 15.13671875 q 349.12109375 15.13671875 275.87890625 -10.986328125 q 202.63671875 -37.109375 150.146484375 -84.9609375 q 97.65625 -132.8125 68.84765625 -199.951171875 q 40.0390625 -267.08984375 40.0390625 -349.12109375 l 40.0390625 -349.12109375 q 40.0390625 -395.5078125 52.001953125 -440.4296875 q 63.96484375 -485.3515625 86.9140625 -525.87890625 q 109.86328125 -566.40625 143.5546875 -600.341796875 q 177.24609375 -634.27734375 220.458984375 -659.1796875 q 263.671875 -684.08203125 315.673828125 -697.998046875 q 367.67578125 -711.9140625 428.22265625 -711.9140625 l 428.22265625 -711.9140625 q 451.66015625 -711.9140625 476.07421875 -709.716796875 q 500.48828125 -707.51953125 524.4140625 -703.369140625 q 548.33984375 -699.21875 570.556640625 -693.359375 q 592.7734375 -687.5 612.79296875 -680.17578125 l 612.79296875 -680.17578125 l 645.99609375 -589.84375 l 642.08984375 -587.890625 q 623.046875 -604.98046875 598.14453125 -619.62890625 q 573.2421875 -634.27734375 544.921875 -645.01953125 q 516.6015625 -655.76171875 485.595703125 -661.865234375 q 454.58984375 -667.96875 422.8515625 -667.96875 l 422.8515625 -667.96875 q 361.328125 -667.96875 310.05859375 -648.681640625 q 258.7890625 -629.39453125 221.923828125 -592.7734375 q 185.05859375 -556.15234375 164.55078125 -502.9296875 q 144.04296875 -449.70703125 144.04296875 -381.8359375 l 144.04296875 -381.8359375 q 144.04296875 -307.12890625 163.57421875 -243.1640625 q 183.10546875 -179.19921875 221.6796875 -132.32421875 q 260.25390625 -85.44921875 318.115234375 -58.837890625 q 375.9765625 -32.2265625 453.125 -32.2265625 l 453.125 -32.2265625 q 487.3046875 -32.2265625 514.16015625 -37.59765625 q 541.015625 -42.96875 559.5703125 -51.025390625 q 578.125 -59.08203125 587.646484375 -68.603515625 q 597.16796875 -78.125 597.16796875 -85.9375 l 597.16796875 -85.9375 l 597.16796875 -104.98046875 q 597.16796875 -139.16015625 596.19140625 -164.0625 q 595.21484375 -188.96484375 593.26171875 -207.275390625 q 591.30859375 -225.5859375 588.8671875 -238.76953125 q 586.42578125 -251.953125 583.0078125 -263.18359375 l 583.0078125 -263.18359375 l 583.0078125 -265.13671875 l 700.1953125 -265.13671875 l 700.1953125 -263.18359375 q 697.265625 -252.9296875 694.580078125 -239.013671875 q 691.89453125 -225.09765625 689.94140625 -206.0546875 q 687.98828125 -187.01171875 687.01171875 -161.376953125 q 686.03515625 -135.7421875 686.03515625 -102.05078125 l 686.03515625 -102.05078125"},"H":{"ha":727,"x_min":70,"x_max":657,"o":"m 554.19921875 -190.91796875 l 554.19921875 -334.9609375 q 534.66796875 -335.44921875 505.37109375 -335.693359375 q 476.07421875 -335.9375 441.650390625 -336.42578125 q 407.2265625 -336.9140625 369.873046875 -337.158203125 q 332.51953125 -337.40234375 296.875 -337.646484375 q 261.23046875 -337.890625 229.00390625 -337.40234375 q 196.77734375 -336.9140625 172.8515625 -335.9375 l 172.8515625 -335.9375 l 172.8515625 -190.91796875 q 172.8515625 -149.4140625 174.072265625 -118.408203125 q 175.29296875 -87.40234375 177.001953125 -64.94140625 q 178.7109375 -42.48046875 181.396484375 -27.34375 q 184.08203125 -12.20703125 187.01171875 -1.953125 l 187.01171875 -1.953125 l 187.01171875 0 l 69.82421875 0 l 69.82421875 -1.953125 q 72.75390625 -12.20703125 75.439453125 -27.34375 q 78.125 -42.48046875 80.078125 -64.94140625 q 82.03125 -87.40234375 83.0078125 -118.408203125 q 83.984375 -149.4140625 83.984375 -190.91796875 l 83.984375 -190.91796875 l 83.984375 -508.7890625 q 83.984375 -550.29296875 83.0078125 -581.298828125 q 82.03125 -612.3046875 80.078125 -635.009765625 q 78.125 -657.71484375 75.439453125 -672.8515625 q 72.75390625 -687.98828125 69.82421875 -698.2421875 l 69.82421875 -698.2421875 l 69.82421875 -700.1953125 l 187.01171875 -700.1953125 l 187.01171875 -698.2421875 q 184.08203125 -687.98828125 181.396484375 -672.8515625 q 178.7109375 -657.71484375 177.001953125 -635.009765625 q 175.29296875 -612.3046875 174.072265625 -581.298828125 q 172.8515625 -550.29296875 172.8515625 -508.7890625 l 172.8515625 -508.7890625 l 172.8515625 -383.7890625 q 198.2421875 -382.8125 230.46875 -382.568359375 q 262.6953125 -382.32421875 297.8515625 -382.568359375 q 333.0078125 -382.8125 369.384765625 -383.30078125 q 405.76171875 -383.7890625 439.697265625 -384.521484375 q 473.6328125 -385.25390625 503.173828125 -386.23046875 q 532.71484375 -387.20703125 554.19921875 -388.18359375 l 554.19921875 -388.18359375 l 554.19921875 -508.7890625 q 554.19921875 -550.29296875 552.978515625 -581.298828125 q 551.7578125 -612.3046875 550.048828125 -635.009765625 q 548.33984375 -657.71484375 545.654296875 -672.8515625 q 542.96875 -687.98828125 540.0390625 -698.2421875 l 540.0390625 -698.2421875 l 540.0390625 -700.1953125 l 657.2265625 -700.1953125 l 657.2265625 -698.2421875 q 654.296875 -687.98828125 651.611328125 -672.8515625 q 648.92578125 -657.71484375 646.97265625 -635.009765625 q 645.01953125 -612.3046875 644.04296875 -581.298828125 q 643.06640625 -550.29296875 643.06640625 -508.7890625 l 643.06640625 -508.7890625 l 643.06640625 -190.91796875 q 643.06640625 -149.4140625 644.04296875 -118.408203125 q 645.01953125 -87.40234375 646.97265625 -64.94140625 q 648.92578125 -42.48046875 651.611328125 -27.34375 q 654.296875 -12.20703125 657.2265625 -1.953125 l 657.2265625 -1.953125 l 657.2265625 0 l 540.0390625 0 l 540.0390625 -1.953125 q 542.96875 -12.20703125 545.654296875 -27.34375 q 548.33984375 -42.48046875 550.048828125 -64.94140625 q 551.7578125 -87.40234375 552.978515625 -118.408203125 q 554.19921875 -149.4140625 554.19921875 -190.91796875 l 554.19921875 -190.91796875"},"I":{"ha":265,"x_min":74,"x_max":191,"o":"m 74.21875 0 l 74.21875 -1.953125 q 77.1484375 -12.20703125 79.58984375 -27.34375 q 82.03125 -42.48046875 83.984375 -64.94140625 q 85.9375 -87.40234375 86.9140625 -118.408203125 q 87.890625 -149.4140625 87.890625 -190.91796875 l 87.890625 -190.91796875 l 87.890625 -508.7890625 q 87.890625 -550.29296875 86.9140625 -581.298828125 q 85.9375 -612.3046875 83.984375 -635.009765625 q 82.03125 -657.71484375 79.58984375 -672.8515625 q 77.1484375 -687.98828125 74.21875 -698.2421875 l 74.21875 -698.2421875 l 74.21875 -700.1953125 l 190.91796875 -700.1953125 l 190.91796875 -698.2421875 q 187.98828125 -687.98828125 185.302734375 -672.8515625 q 182.6171875 -657.71484375 180.908203125 -635.009765625 q 179.19921875 -612.3046875 177.978515625 -581.298828125 q 176.7578125 -550.29296875 176.7578125 -508.7890625 l 176.7578125 -508.7890625 l 176.7578125 -190.91796875 q 176.7578125 -149.4140625 177.978515625 -118.408203125 q 179.19921875 -87.40234375 180.908203125 -64.94140625 q 182.6171875 -42.48046875 185.302734375 -27.34375 q 187.98828125 -12.20703125 190.91796875 -1.953125 l 190.91796875 -1.953125 l 190.91796875 0 l 74.21875 0"},"J":{"ha":249,"x_min":-20,"x_max":183,"o":"m 168.9453125 -508.7890625 l 168.9453125 -101.07421875 q 168.9453125 -35.15625 155.517578125 13.18359375 q 142.08984375 61.5234375 117.919921875 98.876953125 q 93.75 136.23046875 60.791015625 165.52734375 q 27.83203125 194.82421875 -11.23046875 223.14453125 l -11.23046875 223.14453125 l -20.01953125 210.9375 q 13.671875 180.17578125 33.447265625 146.97265625 q 53.22265625 113.76953125 63.720703125 75.927734375 q 74.21875 38.0859375 77.1484375 -5.615234375 q 80.078125 -49.31640625 80.078125 -101.07421875 l 80.078125 -101.07421875 l 80.078125 -508.7890625 q 80.078125 -550.29296875 79.1015625 -581.298828125 q 78.125 -612.3046875 76.171875 -635.009765625 q 74.21875 -657.71484375 71.533203125 -672.8515625 q 68.84765625 -687.98828125 65.91796875 -698.2421875 l 65.91796875 -698.2421875 l 65.91796875 -700.1953125 l 183.10546875 -700.1953125 l 183.10546875 -698.2421875 q 180.17578125 -687.98828125 177.490234375 -672.8515625 q 174.8046875 -657.71484375 172.8515625 -635.009765625 q 170.8984375 -612.3046875 169.921875 -581.298828125 q 168.9453125 -550.29296875 168.9453125 -508.7890625 l 168.9453125 -508.7890625"},"K":{"ha":646,"x_min":70,"x_max":666,"o":"m 69.82421875 0 l 69.82421875 -1.953125 q 72.75390625 -12.20703125 75.439453125 -27.34375 q 78.125 -42.48046875 80.078125 -64.94140625 q 82.03125 -87.40234375 83.0078125 -118.408203125 q 83.984375 -149.4140625 83.984375 -190.91796875 l 83.984375 -190.91796875 l 83.984375 -508.7890625 q 83.984375 -550.29296875 83.0078125 -581.298828125 q 82.03125 -612.3046875 80.078125 -635.009765625 q 78.125 -657.71484375 75.439453125 -672.8515625 q 72.75390625 -687.98828125 69.82421875 -698.2421875 l 69.82421875 -698.2421875 l 69.82421875 -700.1953125 l 187.01171875 -700.1953125 l 187.01171875 -698.2421875 q 184.08203125 -687.98828125 181.396484375 -672.8515625 q 178.7109375 -657.71484375 177.001953125 -635.009765625 q 175.29296875 -612.3046875 174.072265625 -581.298828125 q 172.8515625 -550.29296875 172.8515625 -508.7890625 l 172.8515625 -508.7890625 l 172.8515625 -399.90234375 l 458.0078125 -632.8125 q 505.859375 -671.875 505.859375 -700.1953125 l 505.859375 -700.1953125 l 643.06640625 -700.1953125 l 643.06640625 -698.2421875 q 614.2578125 -691.40625 584.716796875 -672.119140625 q 555.17578125 -652.83203125 521.97265625 -625 l 521.97265625 -625 l 270.01953125 -414.0625 l 573.2421875 -81.0546875 q 592.28515625 -61.5234375 605.712890625 -48.583984375 q 619.140625 -35.64453125 629.39453125 -27.099609375 q 639.6484375 -18.5546875 648.193359375 -12.939453125 q 656.73828125 -7.32421875 666.015625 -1.953125 l 666.015625 -1.953125 l 666.015625 0 l 522.94921875 0 q 520.99609375 -4.39453125 516.357421875 -11.23046875 q 511.71875 -18.06640625 505.615234375 -25.390625 q 499.51171875 -32.71484375 492.431640625 -40.52734375 q 485.3515625 -48.33984375 479.00390625 -55.17578125 l 479.00390625 -55.17578125 l 172.8515625 -391.11328125 l 172.8515625 -190.91796875 q 172.8515625 -149.4140625 174.072265625 -118.408203125 q 175.29296875 -87.40234375 177.001953125 -64.94140625 q 178.7109375 -42.48046875 181.396484375 -27.34375 q 184.08203125 -12.20703125 187.01171875 -1.953125 l 187.01171875 -1.953125 l 187.01171875 0 l 69.82421875 0"},"L":{"ha":460,"x_min":70,"x_max":440,"o":"m 172.8515625 -508.7890625 l 172.8515625 -42.96875 q 230.46875 -42.96875 278.80859375 -47.8515625 q 327.1484375 -52.734375 363.28125 -59.08203125 l 363.28125 -59.08203125 q 405.2734375 -65.91796875 439.94140625 -75.1953125 l 439.94140625 -75.1953125 l 425.78125 3.90625 q 419.921875 3.41796875 408.203125 2.9296875 q 396.484375 2.44140625 382.080078125 1.953125 q 367.67578125 1.46484375 351.806640625 1.220703125 q 335.9375 0.9765625 321.77734375 0.732421875 q 307.6171875 0.48828125 296.630859375 0.244140625 q 285.64453125 0 280.76171875 0 l 280.76171875 0 l 69.82421875 0 l 69.82421875 -1.953125 q 72.75390625 -12.20703125 75.439453125 -27.34375 q 78.125 -42.48046875 80.078125 -64.94140625 q 82.03125 -87.40234375 83.0078125 -118.408203125 q 83.984375 -149.4140625 83.984375 -190.91796875 l 83.984375 -190.91796875 l 83.984375 -508.7890625 q 83.984375 -550.29296875 83.0078125 -581.298828125 q 82.03125 -612.3046875 80.078125 -635.009765625 q 78.125 -657.71484375 75.439453125 -672.8515625 q 72.75390625 -687.98828125 69.82421875 -698.2421875 l 69.82421875 -698.2421875 l 69.82421875 -700.1953125 l 187.01171875 -700.1953125 l 187.01171875 -698.2421875 q 184.08203125 -687.98828125 181.396484375 -672.8515625 q 178.7109375 -657.71484375 177.001953125 -635.009765625 q 175.29296875 -612.3046875 174.072265625 -581.298828125 q 172.8515625 -550.29296875 172.8515625 -508.7890625 l 172.8515625 -508.7890625"},"M":{"ha":1018,"x_min":35,"x_max":978,"o":"m 35.15625 0 l 35.15625 -1.953125 q 40.52734375 -9.765625 47.36328125 -25.146484375 q 54.19921875 -40.52734375 58.10546875 -63.96484375 l 58.10546875 -63.96484375 q 63.4765625 -98.14453125 70.068359375 -140.869140625 q 76.66015625 -183.59375 83.740234375 -230.46875 q 90.8203125 -277.34375 97.900390625 -326.416015625 q 104.98046875 -375.48828125 111.572265625 -423.095703125 q 118.1640625 -470.703125 124.267578125 -514.892578125 q 130.37109375 -559.08203125 135.25390625 -595.703125 q 140.13671875 -632.32421875 143.310546875 -659.423828125 q 146.484375 -686.5234375 147.94921875 -700.1953125 l 147.94921875 -700.1953125 l 209.9609375 -700.1953125 l 517.08984375 -125.9765625 l 821.77734375 -700.1953125 l 868.1640625 -700.1953125 l 948.2421875 -120.1171875 q 951.66015625 -92.7734375 955.56640625 -73.2421875 q 959.47265625 -53.7109375 963.37890625 -39.794921875 q 967.28515625 -25.87890625 970.947265625 -16.845703125 q 974.609375 -7.8125 978.02734375 -1.953125 l 978.02734375 -1.953125 l 978.02734375 0 l 854.98046875 0 l 854.98046875 -1.953125 q 857.421875 -7.32421875 859.619140625 -19.53125 q 861.81640625 -31.73828125 861.81640625 -48.828125 l 861.81640625 -48.828125 q 861.81640625 -55.17578125 861.328125 -61.767578125 q 860.83984375 -68.359375 859.86328125 -76.171875 l 859.86328125 -76.171875 l 797.8515625 -543.9453125 l 509.765625 -1.953125 l 476.07421875 -5.859375 l 186.03515625 -548.828125 q 168.9453125 -433.10546875 156.25 -334.9609375 l 156.25 -334.9609375 q 150.87890625 -292.96875 145.5078125 -251.220703125 q 140.13671875 -209.47265625 135.986328125 -173.33984375 q 131.8359375 -137.20703125 129.39453125 -109.619140625 q 126.953125 -82.03125 126.953125 -68.84765625 l 126.953125 -68.84765625 q 126.953125 -52.24609375 127.9296875 -39.55078125 q 128.90625 -26.85546875 129.8828125 -18.06640625 l 129.8828125 -18.06640625 q 131.34765625 -7.8125 132.8125 0 l 132.8125 0 l 35.15625 0"},"N":{"ha":739,"x_min":66,"x_max":673,"o":"m 65.91796875 -700.1953125 l 97.16796875 -700.1953125 l 600.09765625 -165.0390625 l 600.09765625 -508.7890625 q 600.09765625 -550.29296875 599.12109375 -581.298828125 q 598.14453125 -612.3046875 596.19140625 -635.009765625 q 594.23828125 -657.71484375 591.552734375 -672.8515625 q 588.8671875 -687.98828125 585.9375 -698.2421875 l 585.9375 -698.2421875 l 585.9375 -700.1953125 l 672.8515625 -700.1953125 l 672.8515625 -698.2421875 q 669.921875 -687.98828125 667.48046875 -672.8515625 q 665.0390625 -657.71484375 663.0859375 -635.009765625 q 661.1328125 -612.3046875 660.15625 -581.298828125 q 659.1796875 -550.29296875 659.1796875 -508.7890625 l 659.1796875 -508.7890625 l 659.1796875 9.765625 l 642.08984375 9.765625 l 139.16015625 -524.90234375 l 139.16015625 -190.91796875 q 139.16015625 -149.4140625 140.13671875 -118.408203125 q 141.11328125 -87.40234375 143.06640625 -64.94140625 q 145.01953125 -42.48046875 147.4609375 -27.34375 q 149.90234375 -12.20703125 152.83203125 -1.953125 l 152.83203125 -1.953125 l 152.83203125 0 l 65.91796875 0 l 65.91796875 -1.953125 q 68.84765625 -12.20703125 71.533203125 -27.34375 q 74.21875 -42.48046875 76.171875 -64.94140625 q 78.125 -87.40234375 79.1015625 -118.408203125 q 80.078125 -149.4140625 80.078125 -190.91796875 l 80.078125 -190.91796875 l 80.078125 -508.7890625 q 80.078125 -550.29296875 79.1015625 -581.298828125 q 78.125 -612.3046875 76.171875 -635.009765625 q 74.21875 -657.71484375 71.533203125 -672.8515625 q 68.84765625 -687.98828125 65.91796875 -698.2421875 l 65.91796875 -698.2421875 l 65.91796875 -700.1953125"},"O":{"ha":806,"x_min":40,"x_max":766,"o":"m 389.16015625 -711.9140625 l 389.16015625 -711.9140625 q 470.703125 -711.9140625 539.794921875 -685.302734375 q 608.88671875 -658.69140625 659.1796875 -610.595703125 q 709.47265625 -562.5 737.79296875 -495.1171875 q 766.11328125 -427.734375 766.11328125 -346.19140625 l 766.11328125 -346.19140625 q 766.11328125 -299.8046875 755.37109375 -254.8828125 q 744.62890625 -209.9609375 723.876953125 -169.921875 q 703.125 -129.8828125 672.8515625 -95.947265625 q 642.578125 -62.01171875 603.759765625 -37.353515625 q 564.94140625 -12.6953125 518.06640625 1.220703125 q 471.19140625 15.13671875 416.9921875 15.13671875 l 416.9921875 15.13671875 q 335.44921875 15.13671875 266.357421875 -10.986328125 q 197.265625 -37.109375 146.97265625 -84.9609375 q 96.6796875 -132.8125 68.359375 -199.951171875 q 40.0390625 -267.08984375 40.0390625 -349.12109375 l 40.0390625 -349.12109375 q 40.0390625 -395.5078125 50.78125 -440.4296875 q 61.5234375 -485.3515625 82.275390625 -525.87890625 q 103.02734375 -566.40625 133.056640625 -600.341796875 q 163.0859375 -634.27734375 201.904296875 -659.1796875 q 240.72265625 -684.08203125 287.841796875 -697.998046875 q 334.9609375 -711.9140625 389.16015625 -711.9140625 m 416.9921875 -28.80859375 l 416.9921875 -28.80859375 q 471.19140625 -28.80859375 516.11328125 -48.33984375 q 561.03515625 -67.87109375 593.505859375 -104.98046875 q 625.9765625 -142.08984375 644.04296875 -195.556640625 q 662.109375 -249.0234375 662.109375 -316.89453125 l 662.109375 -316.89453125 q 662.109375 -392.08984375 644.775390625 -456.298828125 q 627.44140625 -520.5078125 593.26171875 -567.626953125 q 559.08203125 -614.74609375 508.056640625 -641.357421875 q 457.03125 -667.96875 389.16015625 -667.96875 l 389.16015625 -667.96875 q 334.9609375 -667.96875 290.0390625 -648.681640625 q 245.1171875 -629.39453125 212.646484375 -592.7734375 q 180.17578125 -556.15234375 162.109375 -502.9296875 q 144.04296875 -449.70703125 144.04296875 -381.8359375 l 144.04296875 -381.8359375 q 144.04296875 -307.12890625 161.1328125 -242.431640625 q 178.22265625 -177.734375 212.40234375 -130.37109375 q 246.58203125 -83.0078125 297.8515625 -55.908203125 q 349.12109375 -28.80859375 416.9921875 -28.80859375"},"P":{"ha":512,"x_min":70,"x_max":487,"o":"m 172.8515625 -662.109375 l 172.8515625 -310.05859375 q 220.703125 -301.26953125 260.498046875 -308.349609375 q 300.29296875 -315.4296875 328.857421875 -338.623046875 q 357.421875 -361.81640625 373.291015625 -401.3671875 q 389.16015625 -440.91796875 389.16015625 -498.046875 l 389.16015625 -498.046875 q 389.16015625 -537.59765625 380.859375 -570.068359375 q 372.55859375 -602.5390625 356.201171875 -625.244140625 q 339.84375 -647.94921875 314.94140625 -660.400390625 q 290.0390625 -672.8515625 256.8359375 -672.8515625 l 256.8359375 -672.8515625 q 235.83984375 -672.8515625 220.21484375 -671.142578125 q 204.58984375 -669.43359375 193.84765625 -667.48046875 l 193.84765625 -667.48046875 q 181.15234375 -665.0390625 172.8515625 -662.109375 l 172.8515625 -662.109375 m 69.82421875 -698.2421875 l 69.82421875 -700.1953125 q 79.58984375 -699.21875 90.33203125 -698.2421875 l 90.33203125 -698.2421875 q 99.609375 -697.265625 111.083984375 -697.021484375 q 122.55859375 -696.77734375 134.765625 -696.77734375 l 134.765625 -696.77734375 q 153.80859375 -696.77734375 186.279296875 -701.416015625 q 218.75 -706.0546875 269.04296875 -706.0546875 l 269.04296875 -706.0546875 q 315.91796875 -706.0546875 355.712890625 -692.3828125 q 395.5078125 -678.7109375 424.8046875 -652.34375 q 454.1015625 -625.9765625 470.458984375 -588.134765625 q 486.81640625 -550.29296875 486.81640625 -501.953125 l 486.81640625 -501.953125 q 486.81640625 -437.01171875 460.9375 -389.6484375 q 435.05859375 -342.28515625 391.6015625 -312.98828125 q 348.14453125 -283.69140625 291.50390625 -273.193359375 q 234.86328125 -262.6953125 172.8515625 -271.97265625 l 172.8515625 -271.97265625 l 172.8515625 -190.91796875 q 172.8515625 -149.4140625 174.072265625 -118.408203125 q 175.29296875 -87.40234375 177.001953125 -64.94140625 q 178.7109375 -42.48046875 181.396484375 -27.34375 q 184.08203125 -12.20703125 187.01171875 -1.953125 l 187.01171875 -1.953125 l 187.01171875 0 l 69.82421875 0 l 69.82421875 -1.953125 q 72.75390625 -12.20703125 75.439453125 -27.34375 q 78.125 -42.48046875 80.078125 -64.94140625 q 82.03125 -87.40234375 83.0078125 -118.408203125 q 83.984375 -149.4140625 83.984375 -190.91796875 l 83.984375 -190.91796875 l 83.984375 -508.7890625 q 83.984375 -550.29296875 83.0078125 -581.298828125 q 82.03125 -612.3046875 80.078125 -635.009765625 q 78.125 -657.71484375 75.439453125 -672.8515625 q 72.75390625 -687.98828125 69.82421875 -698.2421875 l 69.82421875 -698.2421875"},"Q":{"ha":806,"x_min":40,"x_max":886,"o":"m 389.16015625 -711.9140625 l 389.16015625 -711.9140625 q 470.703125 -711.9140625 539.794921875 -685.302734375 q 608.88671875 -658.69140625 659.1796875 -610.595703125 q 709.47265625 -562.5 737.79296875 -495.1171875 q 766.11328125 -427.734375 766.11328125 -346.19140625 l 766.11328125 -346.19140625 q 766.11328125 -291.015625 750.9765625 -238.525390625 q 735.83984375 -186.03515625 707.03125 -140.869140625 q 678.22265625 -95.703125 636.474609375 -60.791015625 q 594.7265625 -25.87890625 541.9921875 -5.859375 l 541.9921875 -5.859375 q 556.640625 21.484375 572.509765625 50.048828125 q 588.37890625 78.61328125 608.154296875 106.201171875 q 627.9296875 133.7890625 653.3203125 159.1796875 q 678.7109375 184.5703125 711.9140625 205.56640625 q 745.1171875 226.5625 788.0859375 242.67578125 q 831.0546875 258.7890625 886.23046875 267.08984375 l 886.23046875 267.08984375 q 885.7421875 268.5546875 884.765625 270.5078125 l 884.765625 270.5078125 q 883.7890625 272.4609375 882.8125 274.658203125 q 881.8359375 276.85546875 880.859375 279.78515625 l 880.859375 279.78515625 q 816.89453125 277.83203125 762.451171875 263.916015625 q 708.0078125 250 662.353515625 228.271484375 q 616.69921875 206.54296875 579.1015625 179.19921875 q 541.50390625 151.85546875 511.474609375 123.291015625 q 481.4453125 94.7265625 458.49609375 66.650390625 q 435.546875 38.57421875 418.9453125 15.13671875 l 418.9453125 15.13671875 q 336.42578125 15.13671875 267.08984375 -10.986328125 q 197.75390625 -37.109375 147.216796875 -84.9609375 q 96.6796875 -132.8125 68.359375 -199.951171875 q 40.0390625 -267.08984375 40.0390625 -349.12109375 l 40.0390625 -349.12109375 q 40.0390625 -395.5078125 50.78125 -440.4296875 q 61.5234375 -485.3515625 82.275390625 -525.87890625 q 103.02734375 -566.40625 133.056640625 -600.341796875 q 163.0859375 -634.27734375 201.904296875 -659.1796875 q 240.72265625 -684.08203125 287.841796875 -697.998046875 q 334.9609375 -711.9140625 389.16015625 -711.9140625 m 416.9921875 -28.80859375 l 416.9921875 -28.80859375 q 471.19140625 -28.80859375 516.11328125 -48.33984375 q 561.03515625 -67.87109375 593.505859375 -104.98046875 q 625.9765625 -142.08984375 644.04296875 -195.556640625 q 662.109375 -249.0234375 662.109375 -316.89453125 l 662.109375 -316.89453125 q 662.109375 -392.08984375 644.775390625 -456.298828125 q 627.44140625 -520.5078125 593.26171875 -567.626953125 q 559.08203125 -614.74609375 508.056640625 -641.357421875 q 457.03125 -667.96875 389.16015625 -667.96875 l 389.16015625 -667.96875 q 334.9609375 -667.96875 290.0390625 -648.681640625 q 245.1171875 -629.39453125 212.646484375 -592.7734375 q 180.17578125 -556.15234375 162.109375 -502.9296875 q 144.04296875 -449.70703125 144.04296875 -381.8359375 l 144.04296875 -381.8359375 q 144.04296875 -307.12890625 161.1328125 -242.431640625 q 178.22265625 -177.734375 212.40234375 -130.37109375 q 246.58203125 -83.0078125 297.8515625 -55.908203125 q 349.12109375 -28.80859375 416.9921875 -28.80859375"},"R":{"ha":591,"x_min":70,"x_max":616,"o":"m 172.8515625 -300.78125 l 172.8515625 -190.91796875 q 172.8515625 -149.4140625 174.072265625 -118.408203125 q 175.29296875 -87.40234375 177.001953125 -64.94140625 q 178.7109375 -42.48046875 181.396484375 -27.34375 q 184.08203125 -12.20703125 187.01171875 -1.953125 l 187.01171875 -1.953125 l 187.01171875 0 l 69.82421875 0 l 69.82421875 -1.953125 q 72.75390625 -12.20703125 75.439453125 -27.34375 q 78.125 -42.48046875 79.833984375 -64.94140625 q 81.54296875 -87.40234375 82.763671875 -118.1640625 q 83.984375 -148.92578125 83.984375 -190.91796875 l 83.984375 -190.91796875 l 83.984375 -508.7890625 q 83.984375 -550.29296875 82.763671875 -581.298828125 q 81.54296875 -612.3046875 79.833984375 -634.765625 q 78.125 -657.2265625 75.439453125 -672.607421875 q 72.75390625 -687.98828125 69.82421875 -698.2421875 l 69.82421875 -698.2421875 l 69.82421875 -700.1953125 l 90.33203125 -698.2421875 q 99.609375 -697.265625 111.083984375 -697.021484375 q 122.55859375 -696.77734375 134.765625 -696.77734375 l 134.765625 -696.77734375 q 153.80859375 -696.77734375 186.279296875 -701.416015625 q 218.75 -706.0546875 269.04296875 -706.0546875 l 269.04296875 -706.0546875 q 315.91796875 -706.0546875 355.712890625 -693.359375 q 395.5078125 -680.6640625 424.8046875 -656.25 q 454.1015625 -631.8359375 470.458984375 -596.435546875 q 486.81640625 -561.03515625 486.81640625 -516.11328125 l 486.81640625 -516.11328125 q 486.81640625 -480.95703125 477.783203125 -450.927734375 q 468.75 -420.8984375 452.392578125 -396.484375 q 436.03515625 -372.0703125 413.0859375 -353.271484375 q 390.13671875 -334.47265625 361.81640625 -321.77734375 l 361.81640625 -321.77734375 l 533.203125 -81.0546875 q 545.8984375 -62.98828125 556.884765625 -49.8046875 q 567.87109375 -36.62109375 577.880859375 -27.099609375 q 587.890625 -17.578125 597.16796875 -11.474609375 q 606.4453125 -5.37109375 616.2109375 -1.953125 l 616.2109375 -1.953125 l 616.2109375 0 l 475.09765625 0 q 473.6328125 -9.27734375 465.576171875 -24.658203125 q 457.51953125 -40.0390625 446.77734375 -55.17578125 l 446.77734375 -55.17578125 l 273.92578125 -298.828125 q 262.6953125 -297.8515625 251.46484375 -297.119140625 q 240.234375 -296.38671875 228.515625 -296.38671875 l 228.515625 -296.38671875 q 214.84375 -296.38671875 200.927734375 -297.36328125 q 187.01171875 -298.33984375 172.8515625 -300.78125 l 172.8515625 -300.78125 m 172.8515625 -662.109375 l 172.8515625 -338.8671875 q 186.03515625 -335.9375 199.70703125 -334.716796875 q 213.37890625 -333.49609375 226.07421875 -333.49609375 l 226.07421875 -333.49609375 q 262.6953125 -333.49609375 292.96875 -344.482421875 q 323.2421875 -355.46875 344.482421875 -377.9296875 q 365.72265625 -400.390625 377.44140625 -433.837890625 q 389.16015625 -467.28515625 389.16015625 -512.20703125 l 389.16015625 -512.20703125 q 389.16015625 -548.828125 380.859375 -578.61328125 q 372.55859375 -608.3984375 356.201171875 -629.150390625 q 339.84375 -649.90234375 314.94140625 -661.376953125 q 290.0390625 -672.8515625 256.8359375 -672.8515625 l 256.8359375 -672.8515625 q 223.14453125 -672.8515625 203.125 -669.43359375 q 183.10546875 -666.015625 172.8515625 -662.109375 l 172.8515625 -662.109375"},"S":{"ha":455,"x_min":50,"x_max":405,"o":"m 365.234375 -680.17578125 l 361.81640625 -588.8671875 l 351.07421875 -588.8671875 q 347.16796875 -600.09765625 338.623046875 -614.2578125 q 330.078125 -628.41796875 316.162109375 -640.869140625 q 302.24609375 -653.3203125 282.470703125 -661.62109375 q 262.6953125 -669.921875 235.83984375 -669.921875 l 235.83984375 -669.921875 q 211.9140625 -669.921875 193.359375 -662.59765625 q 174.8046875 -655.2734375 162.353515625 -642.08984375 q 149.90234375 -628.90625 143.5546875 -610.83984375 q 137.20703125 -592.7734375 137.20703125 -570.80078125 l 137.20703125 -570.80078125 q 137.20703125 -535.64453125 156.982421875 -503.662109375 q 176.7578125 -471.6796875 206.54296875 -440.4296875 q 236.328125 -409.1796875 270.99609375 -377.9296875 q 305.6640625 -346.6796875 335.44921875 -312.98828125 q 365.234375 -279.296875 385.009765625 -242.431640625 q 404.78515625 -205.56640625 404.78515625 -163.0859375 l 404.78515625 -163.0859375 q 404.78515625 -131.34765625 393.798828125 -99.365234375 q 382.8125 -67.3828125 359.86328125 -41.9921875 q 336.9140625 -16.6015625 300.78125 -0.732421875 q 264.6484375 15.13671875 214.84375 15.13671875 l 214.84375 15.13671875 q 187.01171875 15.13671875 161.865234375 10.009765625 q 136.71875 4.8828125 115.478515625 -2.685546875 q 94.23828125 -10.25390625 77.392578125 -19.04296875 q 60.546875 -27.83203125 49.8046875 -35.15625 l 49.8046875 -35.15625 l 61.03515625 -143.06640625 l 73.2421875 -143.06640625 q 78.61328125 -120.1171875 90.8203125 -99.365234375 q 103.02734375 -78.61328125 120.849609375 -62.744140625 q 138.671875 -46.875 161.62109375 -37.353515625 q 184.5703125 -27.83203125 211.9140625 -27.83203125 l 211.9140625 -27.83203125 q 236.81640625 -27.83203125 256.591796875 -35.400390625 q 276.3671875 -42.96875 290.52734375 -56.396484375 q 304.6875 -69.82421875 312.255859375 -88.37890625 q 319.82421875 -106.93359375 319.82421875 -128.90625 l 319.82421875 -128.90625 q 319.82421875 -159.66796875 308.59375 -185.791015625 q 297.36328125 -211.9140625 279.052734375 -235.3515625 q 260.7421875 -258.7890625 237.548828125 -280.76171875 q 214.35546875 -302.734375 189.94140625 -324.951171875 q 165.52734375 -347.16796875 142.333984375 -370.60546875 q 119.140625 -394.04296875 100.830078125 -420.654296875 q 82.51953125 -447.265625 71.2890625 -477.783203125 q 60.05859375 -508.30078125 60.05859375 -544.921875 l 60.05859375 -544.921875 q 60.05859375 -583.49609375 74.951171875 -614.501953125 q 89.84375 -645.5078125 114.501953125 -667.48046875 q 139.16015625 -689.453125 170.41015625 -701.171875 q 201.66015625 -712.890625 234.86328125 -712.890625 l 234.86328125 -712.890625 q 259.27734375 -712.890625 279.78515625 -708.984375 q 300.29296875 -705.078125 316.650390625 -699.70703125 q 333.0078125 -694.3359375 345.21484375 -688.96484375 q 357.421875 -683.59375 365.234375 -680.17578125 l 365.234375 -680.17578125"},"T":{"ha":597,"x_min":0,"x_max":597,"o":"m 253.90625 -190.91796875 l 253.90625 -657.2265625 q 196.2890625 -657.2265625 149.90234375 -652.099609375 q 103.515625 -646.97265625 69.82421875 -641.11328125 l 69.82421875 -641.11328125 q 30.76171875 -633.7890625 0 -625 l 0 -625 l 14.16015625 -704.1015625 q 20.01953125 -703.61328125 31.73828125 -703.125 q 43.45703125 -702.63671875 57.861328125 -702.1484375 q 72.265625 -701.66015625 88.134765625 -701.416015625 q 104.00390625 -701.171875 118.1640625 -700.927734375 q 132.32421875 -700.68359375 143.310546875 -700.439453125 q 154.296875 -700.1953125 159.1796875 -700.1953125 l 159.1796875 -700.1953125 l 437.98828125 -700.1953125 q 442.87109375 -700.1953125 453.857421875 -700.439453125 q 464.84375 -700.68359375 479.00390625 -700.927734375 q 493.1640625 -701.171875 509.033203125 -701.416015625 q 524.90234375 -701.66015625 539.306640625 -702.1484375 q 553.7109375 -702.63671875 565.4296875 -703.125 q 577.1484375 -703.61328125 583.0078125 -704.1015625 l 583.0078125 -704.1015625 l 597.16796875 -625 q 565.91796875 -633.7890625 526.85546875 -641.11328125 l 526.85546875 -641.11328125 q 493.1640625 -646.97265625 446.77734375 -652.099609375 q 400.390625 -657.2265625 342.7734375 -657.2265625 l 342.7734375 -657.2265625 l 342.7734375 -190.91796875 q 342.7734375 -149.4140625 343.994140625 -118.408203125 q 345.21484375 -87.40234375 346.923828125 -64.94140625 q 348.6328125 -42.48046875 351.318359375 -27.34375 q 354.00390625 -12.20703125 356.93359375 -1.953125 l 356.93359375 -1.953125 l 356.93359375 0 l 240.234375 0 l 240.234375 -1.953125 q 243.1640625 -12.20703125 245.60546875 -27.34375 q 248.046875 -42.48046875 250 -64.94140625 q 251.953125 -87.40234375 252.9296875 -118.408203125 q 253.90625 -149.4140625 253.90625 -190.91796875 l 253.90625 -190.91796875"},"U":{"ha":710,"x_min":66,"x_max":644,"o":"m 570.80078125 -234.86328125 l 570.80078125 -508.7890625 q 570.80078125 -550.29296875 569.82421875 -581.298828125 q 568.84765625 -612.3046875 566.89453125 -635.009765625 q 564.94140625 -657.71484375 562.5 -672.8515625 q 560.05859375 -687.98828125 557.12890625 -698.2421875 l 557.12890625 -698.2421875 l 557.12890625 -700.1953125 l 644.04296875 -700.1953125 l 644.04296875 -698.2421875 q 641.11328125 -687.98828125 638.427734375 -672.8515625 q 635.7421875 -657.71484375 634.033203125 -635.009765625 q 632.32421875 -612.3046875 631.103515625 -581.298828125 q 629.8828125 -550.29296875 629.8828125 -508.7890625 l 629.8828125 -508.7890625 l 629.8828125 -245.1171875 q 629.8828125 -175.29296875 609.86328125 -125.9765625 q 589.84375 -76.66015625 554.19921875 -45.166015625 q 518.5546875 -13.671875 468.75 0.732421875 q 418.9453125 15.13671875 359.86328125 15.13671875 l 359.86328125 15.13671875 q 300.78125 15.13671875 249.755859375 1.46484375 q 198.73046875 -12.20703125 160.888671875 -42.724609375 q 123.046875 -73.2421875 101.5625 -121.826171875 q 80.078125 -170.41015625 80.078125 -240.234375 l 80.078125 -240.234375 l 80.078125 -508.7890625 q 80.078125 -550.29296875 79.1015625 -581.298828125 q 78.125 -612.3046875 76.171875 -635.009765625 q 74.21875 -657.71484375 71.533203125 -672.8515625 q 68.84765625 -687.98828125 65.91796875 -698.2421875 l 65.91796875 -698.2421875 l 65.91796875 -700.1953125 l 183.10546875 -700.1953125 l 183.10546875 -698.2421875 q 180.17578125 -687.98828125 177.490234375 -672.8515625 q 174.8046875 -657.71484375 172.8515625 -635.009765625 q 170.8984375 -612.3046875 169.921875 -581.298828125 q 168.9453125 -550.29296875 168.9453125 -508.7890625 l 168.9453125 -508.7890625 l 168.9453125 -234.86328125 q 168.9453125 -176.7578125 186.279296875 -138.916015625 q 203.61328125 -101.07421875 231.93359375 -78.857421875 q 260.25390625 -56.640625 296.38671875 -47.8515625 q 332.51953125 -39.0625 370.1171875 -39.0625 l 370.1171875 -39.0625 q 407.71484375 -39.0625 443.84765625 -47.8515625 q 479.98046875 -56.640625 508.056640625 -78.857421875 q 536.1328125 -101.07421875 553.466796875 -138.916015625 q 570.80078125 -176.7578125 570.80078125 -234.86328125 l 570.80078125 -234.86328125"},"V":{"ha":658,"x_min":-20,"x_max":678,"o":"m -20.01953125 -700.1953125 l 113.76953125 -700.1953125 l 113.76953125 -698.2421875 q 112.79296875 -695.80078125 112.3046875 -690.91796875 q 111.81640625 -686.03515625 111.81640625 -682.12890625 l 111.81640625 -682.12890625 q 111.81640625 -666.9921875 115.966796875 -648.681640625 q 120.1171875 -630.37109375 131.8359375 -603.02734375 l 131.8359375 -603.02734375 l 348.14453125 -115.234375 l 557.12890625 -599.12109375 q 564.453125 -617.1875 572.75390625 -638.671875 q 581.0546875 -660.15625 581.0546875 -682.12890625 l 581.0546875 -682.12890625 q 581.0546875 -687.98828125 580.078125 -692.138671875 q 579.1015625 -696.2890625 578.125 -698.2421875 l 578.125 -698.2421875 l 578.125 -700.1953125 l 678.22265625 -700.1953125 l 678.22265625 -698.2421875 q 668.9453125 -688.96484375 655.76171875 -665.0390625 q 642.578125 -641.11328125 626.953125 -605.95703125 l 626.953125 -605.95703125 l 347.16796875 15.13671875 l 308.10546875 15.13671875 l 42.96875 -582.03125 q 33.69140625 -603.02734375 23.681640625 -622.55859375 q 13.671875 -642.08984375 4.8828125 -657.958984375 q -3.90625 -673.828125 -10.7421875 -684.5703125 q -17.578125 -695.3125 -20.01953125 -698.2421875 l -20.01953125 -698.2421875 l -20.01953125 -700.1953125"},"W":{"ha":1014,"x_min":-15,"x_max":1029,"o":"m 496.09375 -605.95703125 l 526.85546875 -607.91015625 l 722.16796875 -133.7890625 l 912.109375 -599.12109375 q 923.33984375 -627.9296875 928.7109375 -647.94921875 q 934.08203125 -667.96875 934.08203125 -682.12890625 l 934.08203125 -682.12890625 q 934.08203125 -686.5234375 933.59375 -691.162109375 q 933.10546875 -695.80078125 932.12890625 -698.2421875 l 932.12890625 -698.2421875 l 932.12890625 -700.1953125 l 1028.80859375 -700.1953125 l 1028.80859375 -698.2421875 q 1019.04296875 -687.5 1007.568359375 -664.0625 q 996.09375 -640.625 980.95703125 -605.95703125 l 980.95703125 -605.95703125 l 720.21484375 15.13671875 l 683.10546875 15.13671875 l 493.1640625 -445.80078125 l 319.82421875 15.13671875 l 283.203125 15.13671875 l 43.9453125 -582.03125 q 35.15625 -603.02734375 26.123046875 -622.55859375 q 17.08984375 -642.08984375 9.033203125 -657.71484375 q 0.9765625 -673.33984375 -5.615234375 -684.08203125 q -12.20703125 -694.82421875 -15.13671875 -698.2421875 l -15.13671875 -698.2421875 l -15.13671875 -700.1953125 l 120.1171875 -700.1953125 l 120.1171875 -698.2421875 q 119.140625 -692.87109375 119.140625 -689.94140625 q 119.140625 -687.01171875 119.140625 -683.10546875 l 119.140625 -683.10546875 q 119.140625 -666.50390625 122.802734375 -647.94921875 q 126.46484375 -629.39453125 137.20703125 -603.02734375 l 137.20703125 -603.02734375 l 320.80078125 -139.16015625 l 496.09375 -605.95703125"},"X":{"ha":698,"x_min":11,"x_max":687,"o":"m 491.2109375 -97.16796875 l 331.0546875 -306.15234375 l 158.203125 -86.9140625 q 148.4375 -75.1953125 139.16015625 -62.744140625 q 129.8828125 -50.29296875 122.55859375 -38.57421875 q 115.234375 -26.85546875 110.595703125 -16.845703125 q 105.95703125 -6.8359375 105.95703125 0 l 105.95703125 0 l 11.23046875 0 l 11.23046875 -1.953125 q 21.97265625 -11.23046875 41.748046875 -30.2734375 q 61.5234375 -49.31640625 83.984375 -78.125 l 83.984375 -78.125 l 298.828125 -348.14453125 l 78.125 -638.18359375 q 60.05859375 -661.62109375 42.48046875 -677.490234375 q 24.90234375 -693.359375 16.11328125 -698.2421875 l 16.11328125 -698.2421875 l 16.11328125 -700.1953125 l 168.9453125 -700.1953125 q 168.9453125 -694.3359375 170.654296875 -685.05859375 q 172.36328125 -675.78125 177.24609375 -663.330078125 q 182.12890625 -650.87890625 190.673828125 -635.7421875 q 199.21875 -620.60546875 212.890625 -603.02734375 l 212.890625 -603.02734375 l 354.00390625 -417.96875 l 509.765625 -612.79296875 q 518.5546875 -623.53515625 527.099609375 -636.23046875 q 535.64453125 -648.92578125 542.236328125 -660.888671875 q 548.828125 -672.8515625 552.978515625 -683.10546875 q 557.12890625 -693.359375 557.12890625 -700.1953125 l 557.12890625 -700.1953125 l 651.85546875 -700.1953125 l 651.85546875 -698.2421875 q 646.97265625 -694.3359375 641.11328125 -688.96484375 q 635.25390625 -683.59375 627.685546875 -675.78125 q 620.1171875 -667.96875 610.83984375 -657.2265625 q 601.5625 -646.484375 589.84375 -631.8359375 l 589.84375 -631.8359375 l 386.23046875 -375 l 613.76953125 -77.1484375 q 637.20703125 -46.875 657.470703125 -27.099609375 q 677.734375 -7.32421875 687.01171875 -1.953125 l 687.01171875 -1.953125 l 687.01171875 0 l 535.15625 0 q 535.15625 -11.23046875 525.87890625 -37.109375 q 516.6015625 -62.98828125 491.2109375 -97.16796875 l 491.2109375 -97.16796875"},"Y":{"ha":621,"x_min":-25,"x_max":626,"o":"m 558.10546875 -622.0703125 l 354.98046875 -335.9375 l 354.98046875 -190.91796875 q 354.98046875 -149.4140625 355.95703125 -118.408203125 q 356.93359375 -87.40234375 358.88671875 -64.94140625 q 360.83984375 -42.48046875 363.525390625 -27.34375 q 366.2109375 -12.20703125 369.140625 -1.953125 l 369.140625 -1.953125 l 369.140625 0 l 251.953125 0 l 251.953125 -1.953125 q 254.8828125 -12.20703125 257.568359375 -27.34375 q 260.25390625 -42.48046875 261.962890625 -64.94140625 q 263.671875 -87.40234375 264.892578125 -118.408203125 q 266.11328125 -149.4140625 266.11328125 -190.91796875 l 266.11328125 -190.91796875 l 266.11328125 -326.171875 l 47.8515625 -623.046875 q 36.62109375 -638.18359375 25.634765625 -650.87890625 q 14.6484375 -663.57421875 4.8828125 -673.095703125 q -4.8828125 -682.6171875 -12.6953125 -688.96484375 q -20.5078125 -695.3125 -24.90234375 -698.2421875 l -24.90234375 -698.2421875 l -24.90234375 -700.1953125 l 123.046875 -700.1953125 q 123.046875 -688.96484375 132.568359375 -663.330078125 q 142.08984375 -637.6953125 166.9921875 -603.02734375 l 166.9921875 -603.02734375 l 327.1484375 -383.7890625 l 483.88671875 -612.79296875 q 492.1875 -625 500.48828125 -637.6953125 q 508.7890625 -650.390625 515.625 -662.109375 q 522.4609375 -673.828125 526.611328125 -683.59375 q 530.76171875 -693.359375 530.76171875 -700.1953125 l 530.76171875 -700.1953125 l 625.9765625 -700.1953125 l 625.9765625 -698.2421875 q 615.234375 -688.96484375 597.16796875 -670.654296875 q 579.1015625 -652.34375 558.10546875 -622.0703125 l 558.10546875 -622.0703125"},"Z":{"ha":642,"x_min":11,"x_max":621,"o":"m 621.09375 -687.01171875 l 145.01953125 -42.96875 l 354.00390625 -42.96875 q 411.1328125 -42.96875 459.716796875 -47.8515625 q 508.30078125 -52.734375 544.43359375 -59.08203125 l 544.43359375 -59.08203125 q 586.42578125 -65.91796875 621.09375 -75.1953125 l 621.09375 -75.1953125 l 597.16796875 3.90625 q 591.30859375 3.41796875 579.58984375 2.9296875 q 567.87109375 2.44140625 553.466796875 1.953125 q 539.0625 1.46484375 523.193359375 1.220703125 q 507.32421875 0.9765625 493.1640625 0.732421875 q 479.00390625 0.48828125 468.017578125 0.244140625 q 457.03125 0 452.1484375 0 l 452.1484375 0 l 11.23046875 0 l 11.23046875 -12.20703125 l 486.81640625 -657.2265625 l 303.22265625 -657.2265625 q 245.60546875 -657.2265625 197.021484375 -652.099609375 q 148.4375 -646.97265625 112.3046875 -641.11328125 l 112.3046875 -641.11328125 q 70.3125 -633.7890625 36.1328125 -625 l 36.1328125 -625 l 69.82421875 -704.1015625 q 75.68359375 -703.61328125 87.646484375 -703.125 q 99.609375 -702.63671875 114.013671875 -702.1484375 q 128.41796875 -701.66015625 144.04296875 -701.416015625 q 159.66796875 -701.171875 173.828125 -700.927734375 q 187.98828125 -700.68359375 198.974609375 -700.439453125 q 209.9609375 -700.1953125 214.84375 -700.1953125 l 214.84375 -700.1953125 l 621.09375 -700.1953125 l 621.09375 -687.01171875"},"a":{"ha":517,"x_min":36,"x_max":459,"o":"m 36.1328125 -144.04296875 l 36.1328125 -144.04296875 q 36.1328125 -182.6171875 52.001953125 -210.9375 q 67.87109375 -239.2578125 94.23828125 -259.27734375 q 120.60546875 -279.296875 154.296875 -291.748046875 q 187.98828125 -304.19921875 224.12109375 -311.279296875 q 260.25390625 -318.359375 295.41015625 -321.044921875 q 330.56640625 -323.73046875 359.86328125 -324.21875 l 359.86328125 -324.21875 l 359.86328125 -349.12109375 q 359.86328125 -381.34765625 351.5625 -404.78515625 q 343.26171875 -428.22265625 328.125 -443.603515625 q 312.98828125 -458.984375 291.748046875 -466.552734375 q 270.5078125 -474.12109375 245.1171875 -474.12109375 l 245.1171875 -474.12109375 q 227.5390625 -474.12109375 210.44921875 -471.19140625 q 193.359375 -468.26171875 175.048828125 -461.42578125 q 156.73828125 -454.58984375 136.474609375 -442.87109375 q 116.2109375 -431.15234375 92.7734375 -413.0859375 l 92.7734375 -413.0859375 l 87.890625 -416.015625 l 121.09375 -484.86328125 q 137.20703125 -492.1875 152.83203125 -496.826171875 q 168.45703125 -501.46484375 184.5703125 -504.39453125 q 200.68359375 -507.32421875 217.529296875 -508.544921875 q 234.375 -509.765625 252.9296875 -509.765625 l 252.9296875 -509.765625 q 304.19921875 -509.765625 340.576171875 -497.314453125 q 376.953125 -484.86328125 400.146484375 -463.134765625 q 423.33984375 -441.40625 434.08203125 -412.353515625 q 444.82421875 -383.30078125 444.82421875 -350.09765625 l 444.82421875 -350.09765625 l 444.82421875 -190.91796875 q 444.82421875 -149.4140625 446.044921875 -118.408203125 q 447.265625 -87.40234375 448.974609375 -64.94140625 q 450.68359375 -42.48046875 453.369140625 -27.34375 q 456.0546875 -12.20703125 458.984375 -1.953125 l 458.984375 -1.953125 l 458.984375 0 l 351.07421875 0 l 351.07421875 -1.953125 q 353.515625 -9.765625 354.736328125 -19.53125 q 355.95703125 -29.296875 356.93359375 -42.96875 l 356.93359375 -42.96875 q 346.6796875 -34.1796875 332.763671875 -24.90234375 q 318.84765625 -15.625 301.025390625 -8.056640625 q 283.203125 -0.48828125 261.474609375 4.150390625 q 239.74609375 8.7890625 213.8671875 8.7890625 l 213.8671875 8.7890625 q 128.90625 8.7890625 82.51953125 -31.005859375 q 36.1328125 -70.80078125 36.1328125 -144.04296875 m 359.86328125 -190.91796875 l 359.86328125 -286.1328125 q 315.4296875 -285.64453125 274.4140625 -281.005859375 q 233.3984375 -276.3671875 201.904296875 -261.71875 q 170.41015625 -247.0703125 151.611328125 -219.970703125 q 132.8125 -192.87109375 132.8125 -147.94921875 l 132.8125 -147.94921875 q 132.8125 -90.33203125 161.62109375 -60.05859375 q 190.4296875 -29.78515625 241.2109375 -29.78515625 l 241.2109375 -29.78515625 q 264.6484375 -29.78515625 283.935546875 -36.376953125 q 303.22265625 -42.96875 318.115234375 -52.978515625 q 333.0078125 -62.98828125 343.26171875 -74.951171875 q 353.515625 -86.9140625 358.88671875 -98.14453125 l 358.88671875 -98.14453125 q 359.86328125 -116.69921875 359.86328125 -139.404296875 q 359.86328125 -162.109375 359.86328125 -190.91796875 l 359.86328125 -190.91796875"},"b":{"ha":584,"x_min":61,"x_max":550,"o":"m 160.15625 -539.0625 l 160.15625 -475.09765625 q 190.91796875 -491.69921875 226.07421875 -500.244140625 q 261.23046875 -508.7890625 297.8515625 -508.7890625 l 297.8515625 -508.7890625 q 352.05078125 -508.7890625 398.193359375 -490.478515625 q 444.3359375 -472.16796875 478.02734375 -438.4765625 q 511.71875 -404.78515625 530.76171875 -356.4453125 q 549.8046875 -308.10546875 549.8046875 -248.046875 l 549.8046875 -248.046875 q 549.8046875 -197.75390625 532.470703125 -151.3671875 q 515.13671875 -104.98046875 480.712890625 -69.3359375 q 446.2890625 -33.69140625 395.263671875 -12.451171875 q 344.23828125 8.7890625 276.85546875 8.7890625 l 276.85546875 8.7890625 q 269.04296875 8.7890625 256.103515625 8.30078125 q 243.1640625 7.8125 227.5390625 6.34765625 q 211.9140625 4.8828125 194.3359375 2.44140625 q 176.7578125 0 160.15625 -3.90625 l 160.15625 -3.90625 q 136.71875 -9.27734375 113.037109375 -15.869140625 q 89.35546875 -22.4609375 67.87109375 -30.76171875 l 67.87109375 -30.76171875 q 69.82421875 -38.0859375 71.2890625 -55.419921875 q 72.75390625 -72.75390625 73.486328125 -92.7734375 q 74.21875 -112.79296875 74.70703125 -132.080078125 q 75.1953125 -151.3671875 75.1953125 -163.0859375 l 75.1953125 -163.0859375 l 75.1953125 -539.0625 q 75.1953125 -580.56640625 73.974609375 -611.572265625 q 72.75390625 -642.578125 71.044921875 -665.0390625 q 69.3359375 -687.5 66.650390625 -702.63671875 q 63.96484375 -717.7734375 61.03515625 -728.02734375 l 61.03515625 -728.02734375 l 61.03515625 -729.98046875 l 173.828125 -729.98046875 l 173.828125 -728.02734375 q 170.8984375 -717.7734375 168.45703125 -702.63671875 q 166.015625 -687.5 164.0625 -665.0390625 q 162.109375 -642.578125 161.1328125 -611.572265625 q 160.15625 -580.56640625 160.15625 -539.0625 l 160.15625 -539.0625 m 160.15625 -414.0625 l 160.15625 -170.8984375 q 160.15625 -131.34765625 160.888671875 -105.46875 q 161.62109375 -79.58984375 163.0859375 -63.96484375 l 163.0859375 -63.96484375 q 183.59375 -48.33984375 218.75 -37.59765625 q 253.90625 -26.85546875 295.8984375 -26.85546875 l 295.8984375 -26.85546875 q 330.56640625 -26.85546875 359.375 -40.52734375 q 388.18359375 -54.19921875 408.69140625 -80.078125 q 429.19921875 -105.95703125 440.673828125 -143.06640625 q 452.1484375 -180.17578125 452.1484375 -227.05078125 l 452.1484375 -227.05078125 q 452.1484375 -279.78515625 442.3828125 -324.951171875 q 432.6171875 -370.1171875 412.109375 -403.076171875 q 391.6015625 -436.03515625 359.86328125 -454.58984375 q 328.125 -473.14453125 284.1796875 -473.14453125 l 284.1796875 -473.14453125 q 247.0703125 -473.14453125 214.84375 -458.0078125 q 182.6171875 -442.87109375 160.15625 -414.0625 l 160.15625 -414.0625"},"c":{"ha":505,"x_min":34,"x_max":481,"o":"m 475.09765625 -106.93359375 l 480.95703125 -104.00390625 l 444.82421875 -17.08984375 q 431.640625 -11.23046875 414.55078125 -6.34765625 q 397.4609375 -1.46484375 379.150390625 1.953125 q 360.83984375 5.37109375 342.28515625 7.080078125 q 323.73046875 8.7890625 307.12890625 8.7890625 l 307.12890625 8.7890625 q 248.046875 8.7890625 197.998046875 -8.544921875 q 147.94921875 -25.87890625 111.572265625 -59.08203125 q 75.1953125 -92.28515625 54.6875 -140.625 q 34.1796875 -188.96484375 34.1796875 -250.9765625 l 34.1796875 -250.9765625 q 34.1796875 -306.15234375 55.419921875 -353.271484375 q 76.66015625 -400.390625 114.501953125 -435.05859375 q 152.34375 -469.7265625 203.61328125 -489.2578125 q 254.8828125 -508.7890625 314.94140625 -508.7890625 l 314.94140625 -508.7890625 q 342.28515625 -508.7890625 373.53515625 -504.150390625 q 404.78515625 -499.51171875 429.19921875 -492.1875 l 429.19921875 -492.1875 l 463.8671875 -409.1796875 l 458.0078125 -405.76171875 q 445.80078125 -420.8984375 428.955078125 -433.349609375 q 412.109375 -445.80078125 391.845703125 -454.58984375 q 371.58203125 -463.37890625 349.12109375 -468.26171875 q 326.66015625 -473.14453125 303.22265625 -473.14453125 l 303.22265625 -473.14453125 q 265.13671875 -473.14453125 233.88671875 -459.716796875 q 202.63671875 -446.2890625 180.17578125 -420.8984375 q 157.71484375 -395.5078125 145.263671875 -358.642578125 q 132.8125 -321.77734375 132.8125 -274.90234375 l 132.8125 -274.90234375 q 132.8125 -222.16796875 144.775390625 -176.7578125 q 156.73828125 -131.34765625 180.419921875 -97.900390625 q 204.1015625 -64.453125 239.990234375 -45.654296875 q 275.87890625 -26.85546875 324.21875 -26.85546875 l 324.21875 -26.85546875 q 346.6796875 -26.85546875 368.896484375 -32.470703125 q 391.11328125 -38.0859375 410.888671875 -48.583984375 q 430.6640625 -59.08203125 447.265625 -73.73046875 q 463.8671875 -88.37890625 475.09765625 -106.93359375 l 475.09765625 -106.93359375"},"d":{"ha":604,"x_min":34,"x_max":543,"o":"m 297.8515625 -508.7890625 l 297.8515625 -508.7890625 q 317.87109375 -508.7890625 337.890625 -505.37109375 q 357.91015625 -501.953125 376.953125 -495.60546875 q 395.99609375 -489.2578125 413.0859375 -479.98046875 q 430.17578125 -470.703125 443.84765625 -458.984375 l 443.84765625 -458.984375 l 443.84765625 -539.0625 q 443.84765625 -580.56640625 442.87109375 -611.572265625 q 441.89453125 -642.578125 439.94140625 -665.0390625 q 437.98828125 -687.5 435.546875 -702.63671875 q 433.10546875 -717.7734375 430.17578125 -728.02734375 l 430.17578125 -728.02734375 l 430.17578125 -729.98046875 l 542.96875 -729.98046875 l 542.96875 -728.02734375 q 540.0390625 -717.7734375 537.353515625 -702.63671875 q 534.66796875 -687.5 532.958984375 -665.0390625 q 531.25 -642.578125 530.029296875 -611.572265625 q 528.80859375 -580.56640625 528.80859375 -539.0625 l 528.80859375 -539.0625 l 528.80859375 -190.91796875 q 528.80859375 -149.4140625 530.029296875 -118.408203125 q 531.25 -87.40234375 532.958984375 -64.94140625 q 534.66796875 -42.48046875 537.353515625 -27.34375 q 540.0390625 -12.20703125 542.96875 -1.953125 l 542.96875 -1.953125 l 542.96875 0 l 435.05859375 0 l 435.05859375 -1.953125 q 436.5234375 -5.859375 437.5 -13.427734375 q 438.4765625 -20.99609375 439.94140625 -32.2265625 l 439.94140625 -32.2265625 q 415.0390625 -16.6015625 377.44140625 -3.90625 q 339.84375 8.7890625 290.0390625 8.7890625 l 290.0390625 8.7890625 q 231.93359375 8.7890625 184.5703125 -9.27734375 q 137.20703125 -27.34375 103.759765625 -61.03515625 q 70.3125 -94.7265625 52.24609375 -142.822265625 q 34.1796875 -190.91796875 34.1796875 -250.9765625 l 34.1796875 -250.9765625 q 34.1796875 -306.15234375 53.7109375 -353.271484375 q 73.2421875 -400.390625 108.3984375 -435.05859375 q 143.5546875 -469.7265625 191.89453125 -489.2578125 q 240.234375 -508.7890625 297.8515625 -508.7890625 m 443.84765625 -190.91796875 l 443.84765625 -373.046875 q 424.31640625 -424.31640625 387.939453125 -448.73046875 q 351.5625 -473.14453125 306.15234375 -473.14453125 l 306.15234375 -473.14453125 q 268.06640625 -473.14453125 235.83984375 -459.716796875 q 203.61328125 -446.2890625 180.6640625 -420.8984375 q 157.71484375 -395.5078125 144.775390625 -358.642578125 q 131.8359375 -321.77734375 131.8359375 -274.90234375 l 131.8359375 -274.90234375 q 131.8359375 -222.16796875 143.5546875 -176.7578125 q 155.2734375 -131.34765625 177.978515625 -97.900390625 q 200.68359375 -64.453125 234.375 -45.654296875 q 268.06640625 -26.85546875 312.01171875 -26.85546875 l 312.01171875 -26.85546875 q 334.9609375 -26.85546875 354.98046875 -32.2265625 q 375 -37.59765625 391.6015625 -45.8984375 q 408.203125 -54.19921875 420.8984375 -64.208984375 q 433.59375 -74.21875 441.89453125 -83.984375 l 441.89453125 -83.984375 q 442.87109375 -104.98046875 443.359375 -131.8359375 q 443.84765625 -158.69140625 443.84765625 -190.91796875 l 443.84765625 -190.91796875"},"e":{"ha":542,"x_min":34,"x_max":512,"o":"m 293.9453125 8.7890625 l 293.9453125 8.7890625 q 239.74609375 8.7890625 192.3828125 -8.30078125 q 145.01953125 -25.390625 109.86328125 -58.349609375 q 74.70703125 -91.30859375 54.443359375 -139.892578125 q 34.1796875 -188.4765625 34.1796875 -250.9765625 l 34.1796875 -250.9765625 q 34.1796875 -306.15234375 52.734375 -353.271484375 q 71.2890625 -400.390625 104.00390625 -435.05859375 q 136.71875 -469.7265625 180.419921875 -489.2578125 q 224.12109375 -508.7890625 274.90234375 -508.7890625 l 274.90234375 -508.7890625 q 325.1953125 -508.7890625 368.1640625 -491.455078125 q 411.1328125 -474.12109375 442.626953125 -441.162109375 q 474.12109375 -408.203125 492.431640625 -359.619140625 q 510.7421875 -311.03515625 512.20703125 -249.0234375 l 512.20703125 -249.0234375 q 457.03125 -250 401.85546875 -250.48828125 q 346.6796875 -250.9765625 287.109375 -250.9765625 l 287.109375 -250.9765625 q 244.62890625 -250.9765625 204.345703125 -250.48828125 q 164.0625 -250 131.8359375 -249.0234375 l 131.8359375 -249.0234375 q 134.765625 -198.2421875 147.705078125 -157.2265625 q 160.64453125 -116.2109375 183.349609375 -87.158203125 q 206.0546875 -58.10546875 238.525390625 -42.48046875 q 270.99609375 -26.85546875 312.01171875 -26.85546875 l 312.01171875 -26.85546875 q 340.33203125 -26.85546875 365.478515625 -33.447265625 q 390.625 -40.0390625 411.1328125 -51.7578125 q 431.640625 -63.4765625 447.75390625 -79.345703125 q 463.8671875 -95.21484375 475.09765625 -113.76953125 l 475.09765625 -113.76953125 l 480.95703125 -110.83984375 l 444.82421875 -23.92578125 q 418.45703125 -10.25390625 381.8359375 -0.732421875 q 345.21484375 8.7890625 293.9453125 8.7890625 m 229.00390625 -289.0625 l 229.00390625 -289.0625 q 277.83203125 -289.0625 326.904296875 -289.306640625 q 375.9765625 -289.55078125 416.015625 -291.015625 l 416.015625 -291.015625 q 411.62109375 -333.49609375 399.4140625 -367.1875 q 387.20703125 -400.87890625 368.1640625 -424.31640625 q 349.12109375 -447.75390625 323.2421875 -460.44921875 q 297.36328125 -473.14453125 266.11328125 -473.14453125 l 266.11328125 -473.14453125 q 237.79296875 -473.14453125 214.111328125 -460.693359375 q 190.4296875 -448.2421875 172.8515625 -424.8046875 q 155.2734375 -401.3671875 144.53125 -367.431640625 q 133.7890625 -333.49609375 131.8359375 -290.0390625 l 131.8359375 -290.0390625 q 153.80859375 -289.0625 178.22265625 -289.0625 q 202.63671875 -289.0625 229.00390625 -289.0625"},"f":{"ha":320,"x_min":10,"x_max":359,"o":"m 255.859375 -699.21875 l 255.859375 -699.21875 q 243.65234375 -699.21875 229.736328125 -694.82421875 q 215.8203125 -690.4296875 204.1015625 -678.7109375 q 192.3828125 -666.9921875 184.5703125 -646.240234375 q 176.7578125 -625.48828125 176.7578125 -592.7734375 l 176.7578125 -592.7734375 l 176.7578125 -500 q 202.63671875 -500.48828125 225.341796875 -501.46484375 q 248.046875 -502.44140625 266.11328125 -503.41796875 q 284.1796875 -504.39453125 296.38671875 -505.615234375 q 308.59375 -506.8359375 313.96484375 -507.8125 l 313.96484375 -507.8125 l 305.17578125 -458.0078125 q 288.0859375 -458.49609375 268.06640625 -459.47265625 l 268.06640625 -459.47265625 q 250.9765625 -460.44921875 227.5390625 -460.9375 q 204.1015625 -461.42578125 176.7578125 -461.9140625 l 176.7578125 -461.9140625 l 176.7578125 -190.91796875 q 176.7578125 -149.4140625 177.978515625 -118.408203125 q 179.19921875 -87.40234375 180.908203125 -64.94140625 q 182.6171875 -42.48046875 185.302734375 -27.34375 q 187.98828125 -12.20703125 190.91796875 -1.953125 l 190.91796875 -1.953125 l 190.91796875 0 l 78.125 0 l 78.125 -1.953125 q 81.0546875 -12.20703125 83.49609375 -27.34375 q 85.9375 -42.48046875 87.890625 -64.94140625 q 89.84375 -87.40234375 90.8203125 -118.408203125 q 91.796875 -149.4140625 91.796875 -190.91796875 l 91.796875 -190.91796875 l 91.796875 -461.9140625 l 9.765625 -458.984375 l 9.765625 -501.953125 q 24.90234375 -500.9765625 45.8984375 -500.48828125 q 66.89453125 -500 91.796875 -500 l 91.796875 -500 l 91.796875 -582.03125 q 91.796875 -619.62890625 102.783203125 -648.681640625 q 113.76953125 -677.734375 133.30078125 -697.509765625 q 152.83203125 -717.28515625 180.17578125 -727.5390625 q 207.51953125 -737.79296875 240.234375 -737.79296875 l 240.234375 -737.79296875 q 258.30078125 -737.79296875 273.92578125 -735.3515625 q 289.55078125 -732.91015625 302.001953125 -729.4921875 q 314.453125 -726.07421875 323.974609375 -722.412109375 q 333.49609375 -718.75 339.84375 -715.8203125 l 339.84375 -715.8203125 l 358.88671875 -631.8359375 l 353.02734375 -628.90625 q 345.21484375 -640.625 335.9375 -653.076171875 q 326.66015625 -665.52734375 314.94140625 -675.78125 q 303.22265625 -686.03515625 288.818359375 -692.626953125 q 274.4140625 -699.21875 255.859375 -699.21875"},"g":{"ha":584,"x_min":34,"x_max":523,"o":"m 264.16015625 223.14453125 l 264.16015625 223.14453125 q 303.7109375 223.14453125 331.0546875 214.599609375 q 358.3984375 206.0546875 376.220703125 190.91796875 q 394.04296875 175.78125 403.564453125 154.541015625 q 413.0859375 133.30078125 417.724609375 107.91015625 q 422.36328125 82.51953125 423.095703125 53.7109375 q 423.828125 24.90234375 423.828125 -5.859375 l 423.828125 -5.859375 l 423.828125 -21.97265625 q 399.90234375 -9.27734375 366.2109375 -0.244140625 q 332.51953125 8.7890625 290.0390625 8.7890625 l 290.0390625 8.7890625 q 231.93359375 8.7890625 184.5703125 -9.27734375 q 137.20703125 -27.34375 103.759765625 -61.03515625 q 70.3125 -94.7265625 52.24609375 -142.822265625 q 34.1796875 -190.91796875 34.1796875 -250.9765625 l 34.1796875 -250.9765625 q 34.1796875 -306.15234375 52.001953125 -353.515625 q 69.82421875 -400.87890625 102.294921875 -435.546875 q 134.765625 -470.21484375 179.931640625 -489.990234375 q 225.09765625 -509.765625 279.78515625 -509.765625 l 279.78515625 -509.765625 q 303.22265625 -509.765625 322.75390625 -505.859375 q 342.28515625 -501.953125 359.130859375 -495.361328125 q 375.9765625 -488.76953125 390.869140625 -480.224609375 q 405.76171875 -471.6796875 419.921875 -461.9140625 l 419.921875 -461.9140625 l 415.0390625 -498.046875 l 415.0390625 -500 l 522.94921875 -500 l 522.94921875 -498.046875 q 520.01953125 -487.79296875 517.333984375 -472.65625 q 514.6484375 -457.51953125 512.939453125 -435.05859375 q 511.23046875 -412.59765625 510.009765625 -381.591796875 q 508.7890625 -350.5859375 508.7890625 -309.08203125 l 508.7890625 -309.08203125 l 508.7890625 22.94921875 q 508.7890625 67.87109375 496.826171875 110.595703125 q 484.86328125 153.3203125 456.298828125 186.5234375 q 427.734375 219.7265625 380.859375 239.74609375 q 333.984375 259.765625 264.16015625 259.765625 l 264.16015625 259.765625 q 239.74609375 259.765625 214.84375 255.126953125 q 189.94140625 250.48828125 167.48046875 243.896484375 q 145.01953125 237.3046875 126.953125 229.4921875 q 108.88671875 221.6796875 98.14453125 215.8203125 l 98.14453125 215.8203125 l 83.0078125 122.0703125 l 90.8203125 120.1171875 q 102.5390625 145.5078125 122.802734375 164.794921875 q 143.06640625 184.08203125 166.9921875 197.021484375 q 190.91796875 209.9609375 216.552734375 216.552734375 q 242.1875 223.14453125 264.16015625 223.14453125 m 312.01171875 -26.85546875 l 312.01171875 -26.85546875 q 347.16796875 -26.85546875 375.732421875 -38.57421875 q 404.296875 -50.29296875 423.828125 -65.91796875 l 423.828125 -65.91796875 l 423.828125 -309.08203125 q 423.828125 -336.42578125 423.33984375 -358.642578125 q 422.8515625 -380.859375 422.8515625 -398.92578125 l 422.8515625 -398.92578125 q 411.1328125 -416.9921875 395.751953125 -430.908203125 q 380.37109375 -444.82421875 363.037109375 -454.345703125 q 345.703125 -463.8671875 327.63671875 -468.994140625 q 309.5703125 -474.12109375 291.9921875 -474.12109375 l 291.9921875 -474.12109375 q 254.8828125 -474.12109375 225.09765625 -460.44921875 q 195.3125 -446.77734375 174.560546875 -421.142578125 q 153.80859375 -395.5078125 142.822265625 -358.642578125 q 131.8359375 -321.77734375 131.8359375 -274.90234375 l 131.8359375 -274.90234375 q 131.8359375 -222.16796875 143.5546875 -176.7578125 q 155.2734375 -131.34765625 177.978515625 -97.900390625 q 200.68359375 -64.453125 234.375 -45.654296875 q 268.06640625 -26.85546875 312.01171875 -26.85546875"},"h":{"ha":568,"x_min":61,"x_max":510,"o":"m 411.1328125 -190.91796875 l 411.1328125 -329.1015625 q 411.1328125 -393.5546875 385.25390625 -423.828125 q 359.375 -454.1015625 315.91796875 -454.1015625 l 315.91796875 -454.1015625 q 299.8046875 -454.1015625 280.029296875 -447.509765625 q 260.25390625 -440.91796875 239.501953125 -429.6875 q 218.75 -418.45703125 198.2421875 -403.564453125 q 177.734375 -388.671875 160.15625 -372.0703125 l 160.15625 -372.0703125 l 160.15625 -190.91796875 q 160.15625 -149.4140625 161.1328125 -118.408203125 q 162.109375 -87.40234375 164.0625 -64.94140625 q 166.015625 -42.48046875 168.45703125 -27.34375 q 170.8984375 -12.20703125 173.828125 -1.953125 l 173.828125 -1.953125 l 173.828125 0 l 61.03515625 0 l 61.03515625 -1.953125 q 63.96484375 -12.20703125 66.650390625 -27.34375 q 69.3359375 -42.48046875 71.044921875 -64.94140625 q 72.75390625 -87.40234375 73.974609375 -118.408203125 q 75.1953125 -149.4140625 75.1953125 -190.91796875 l 75.1953125 -190.91796875 l 75.1953125 -539.0625 q 75.1953125 -580.56640625 73.974609375 -611.572265625 q 72.75390625 -642.578125 71.044921875 -665.0390625 q 69.3359375 -687.5 66.650390625 -702.63671875 q 63.96484375 -717.7734375 61.03515625 -728.02734375 l 61.03515625 -728.02734375 l 61.03515625 -729.98046875 l 173.828125 -729.98046875 l 173.828125 -728.02734375 q 170.8984375 -717.7734375 168.45703125 -702.63671875 q 166.015625 -687.5 164.0625 -665.0390625 q 162.109375 -642.578125 161.1328125 -611.572265625 q 160.15625 -580.56640625 160.15625 -539.0625 l 160.15625 -539.0625 l 160.15625 -414.0625 q 179.6875 -431.640625 203.369140625 -448.73046875 q 227.05078125 -465.8203125 252.44140625 -479.4921875 q 277.83203125 -493.1640625 304.19921875 -501.46484375 q 330.56640625 -509.765625 355.95703125 -509.765625 l 355.95703125 -509.765625 q 394.04296875 -509.765625 420.654296875 -496.58203125 q 447.265625 -483.3984375 464.111328125 -461.9140625 q 480.95703125 -440.4296875 488.525390625 -412.841796875 q 496.09375 -385.25390625 496.09375 -356.93359375 l 496.09375 -356.93359375 l 496.09375 -190.91796875 q 496.09375 -149.4140625 497.0703125 -118.408203125 q 498.046875 -87.40234375 500 -64.94140625 q 501.953125 -42.48046875 504.39453125 -27.34375 q 506.8359375 -12.20703125 509.765625 -1.953125 l 509.765625 -1.953125 l 509.765625 0 l 396.97265625 0 l 396.97265625 -1.953125 q 399.90234375 -12.20703125 402.587890625 -27.34375 q 405.2734375 -42.48046875 406.982421875 -64.94140625 q 408.69140625 -87.40234375 409.912109375 -118.408203125 q 411.1328125 -149.4140625 411.1328125 -190.91796875 l 411.1328125 -190.91796875"},"i":{"ha":241,"x_min":64,"x_max":177,"o":"m 78.125 -190.91796875 l 78.125 -309.08203125 q 78.125 -350.5859375 76.904296875 -381.591796875 q 75.68359375 -412.59765625 73.974609375 -435.05859375 q 72.265625 -457.51953125 69.580078125 -472.65625 q 66.89453125 -487.79296875 63.96484375 -498.046875 l 63.96484375 -498.046875 l 63.96484375 -500 l 176.7578125 -500 l 176.7578125 -498.046875 q 173.828125 -487.79296875 171.38671875 -472.65625 q 168.9453125 -457.51953125 166.9921875 -435.05859375 q 165.0390625 -412.59765625 164.0625 -381.591796875 q 163.0859375 -350.5859375 163.0859375 -309.08203125 l 163.0859375 -309.08203125 l 163.0859375 -190.91796875 q 163.0859375 -149.4140625 164.0625 -118.408203125 q 165.0390625 -87.40234375 166.9921875 -64.94140625 q 168.9453125 -42.48046875 171.38671875 -27.34375 q 173.828125 -12.20703125 176.7578125 -1.953125 l 176.7578125 -1.953125 l 176.7578125 0 l 63.96484375 0 l 63.96484375 -1.953125 q 66.89453125 -12.20703125 69.580078125 -27.34375 q 72.265625 -42.48046875 73.974609375 -64.94140625 q 75.68359375 -87.40234375 76.904296875 -118.408203125 q 78.125 -149.4140625 78.125 -190.91796875 l 78.125 -190.91796875 m 67.87109375 -647.94921875 l 67.87109375 -647.94921875 q 67.87109375 -658.69140625 72.021484375 -668.212890625 q 76.171875 -677.734375 83.0078125 -684.814453125 q 89.84375 -691.89453125 99.365234375 -696.044921875 q 108.88671875 -700.1953125 120.1171875 -700.1953125 l 120.1171875 -700.1953125 q 131.34765625 -700.1953125 140.869140625 -696.044921875 q 150.390625 -691.89453125 157.470703125 -684.814453125 q 164.55078125 -677.734375 168.701171875 -668.212890625 q 172.8515625 -658.69140625 172.8515625 -647.94921875 l 172.8515625 -647.94921875 q 172.8515625 -625.48828125 157.71484375 -610.3515625 q 142.578125 -595.21484375 120.1171875 -595.21484375 l 120.1171875 -595.21484375 q 108.88671875 -595.21484375 99.365234375 -599.365234375 q 89.84375 -603.515625 83.0078125 -610.595703125 q 76.171875 -617.67578125 72.021484375 -627.197265625 q 67.87109375 -636.71875 67.87109375 -647.94921875"},"j":{"ha":237,"x_min":-34,"x_max":175,"o":"m 76.171875 -50.78125 l 76.171875 -309.08203125 q 76.171875 -350.5859375 74.951171875 -381.591796875 q 73.73046875 -412.59765625 72.021484375 -435.05859375 q 70.3125 -457.51953125 67.626953125 -472.65625 q 64.94140625 -487.79296875 62.01171875 -498.046875 l 62.01171875 -498.046875 l 62.01171875 -500 l 174.8046875 -500 l 174.8046875 -498.046875 q 171.875 -487.79296875 169.43359375 -472.65625 q 166.9921875 -457.51953125 165.0390625 -435.05859375 q 163.0859375 -412.59765625 162.109375 -381.591796875 q 161.1328125 -350.5859375 161.1328125 -309.08203125 l 161.1328125 -309.08203125 l 161.1328125 -50.78125 q 161.1328125 15.13671875 146.728515625 63.4765625 q 132.32421875 111.81640625 107.177734375 148.92578125 q 82.03125 186.03515625 48.095703125 215.576171875 q 14.16015625 245.1171875 -24.90234375 272.94921875 l -24.90234375 272.94921875 l -34.1796875 261.23046875 q -0.48828125 230.46875 20.99609375 197.265625 q 42.48046875 164.0625 54.6875 126.220703125 q 66.89453125 88.37890625 71.533203125 44.677734375 q 76.171875 0.9765625 76.171875 -50.78125 l 76.171875 -50.78125 m 65.91796875 -647.94921875 l 65.91796875 -647.94921875 q 65.91796875 -658.69140625 70.068359375 -668.212890625 q 74.21875 -677.734375 81.0546875 -684.814453125 q 87.890625 -691.89453125 97.412109375 -696.044921875 q 106.93359375 -700.1953125 118.1640625 -700.1953125 l 118.1640625 -700.1953125 q 129.39453125 -700.1953125 138.916015625 -696.044921875 q 148.4375 -691.89453125 155.517578125 -684.814453125 q 162.59765625 -677.734375 166.748046875 -668.212890625 q 170.8984375 -658.69140625 170.8984375 -647.94921875 l 170.8984375 -647.94921875 q 170.8984375 -625.48828125 155.76171875 -610.3515625 q 140.625 -595.21484375 118.1640625 -595.21484375 l 118.1640625 -595.21484375 q 106.93359375 -595.21484375 97.412109375 -599.365234375 q 87.890625 -603.515625 81.0546875 -610.595703125 q 74.21875 -617.67578125 70.068359375 -627.197265625 q 65.91796875 -636.71875 65.91796875 -647.94921875"},"k":{"ha":486,"x_min":61,"x_max":508,"o":"m 75.1953125 -190.91796875 l 75.1953125 -539.0625 q 75.1953125 -580.56640625 73.974609375 -611.572265625 q 72.75390625 -642.578125 71.044921875 -665.0390625 q 69.3359375 -687.5 66.650390625 -702.63671875 q 63.96484375 -717.7734375 61.03515625 -728.02734375 l 61.03515625 -728.02734375 l 61.03515625 -729.98046875 l 173.828125 -729.98046875 l 173.828125 -728.02734375 q 170.8984375 -717.7734375 168.45703125 -702.63671875 q 166.015625 -687.5 164.0625 -665.0390625 q 162.109375 -642.578125 161.1328125 -611.572265625 q 160.15625 -580.56640625 160.15625 -539.0625 l 160.15625 -539.0625 l 160.15625 -295.8984375 l 319.82421875 -438.96484375 q 361.81640625 -475.5859375 361.81640625 -500 l 361.81640625 -500 l 475.09765625 -500 l 475.09765625 -498.046875 q 462.40234375 -494.140625 450.927734375 -488.037109375 q 439.453125 -481.93359375 427.978515625 -473.6328125 q 416.50390625 -465.33203125 404.052734375 -454.833984375 q 391.6015625 -444.3359375 376.953125 -431.15234375 l 376.953125 -431.15234375 l 233.88671875 -300.78125 l 430.17578125 -68.84765625 q 438.96484375 -58.10546875 449.21875 -47.119140625 q 459.47265625 -36.1328125 469.7265625 -26.85546875 q 479.98046875 -17.578125 489.74609375 -10.7421875 q 499.51171875 -3.90625 507.8125 -1.953125 l 507.8125 -1.953125 l 507.8125 0 l 366.2109375 0 q 366.2109375 -12.6953125 359.619140625 -26.3671875 q 353.02734375 -40.0390625 335.9375 -61.03515625 l 335.9375 -61.03515625 l 160.15625 -270.01953125 l 160.15625 -190.91796875 q 160.15625 -149.4140625 161.1328125 -118.408203125 q 162.109375 -87.40234375 164.0625 -64.94140625 q 166.015625 -42.48046875 168.45703125 -27.34375 q 170.8984375 -12.20703125 173.828125 -1.953125 l 173.828125 -1.953125 l 173.828125 0 l 61.03515625 0 l 61.03515625 -1.953125 q 63.96484375 -12.20703125 66.650390625 -27.34375 q 69.3359375 -42.48046875 71.044921875 -64.94140625 q 72.75390625 -87.40234375 73.974609375 -118.408203125 q 75.1953125 -149.4140625 75.1953125 -190.91796875 l 75.1953125 -190.91796875"},"l":{"ha":241,"x_min":64,"x_max":177,"o":"m 78.125 -190.91796875 l 78.125 -539.0625 q 78.125 -580.56640625 76.904296875 -611.572265625 q 75.68359375 -642.578125 73.974609375 -665.0390625 q 72.265625 -687.5 69.580078125 -702.63671875 q 66.89453125 -717.7734375 63.96484375 -728.02734375 l 63.96484375 -728.02734375 l 63.96484375 -729.98046875 l 176.7578125 -729.98046875 l 176.7578125 -728.02734375 q 173.828125 -717.7734375 171.38671875 -702.63671875 q 168.9453125 -687.5 166.9921875 -665.0390625 q 165.0390625 -642.578125 164.0625 -611.572265625 q 163.0859375 -580.56640625 163.0859375 -539.0625 l 163.0859375 -539.0625 l 163.0859375 -190.91796875 q 163.0859375 -149.4140625 164.0625 -118.408203125 q 165.0390625 -87.40234375 166.9921875 -64.94140625 q 168.9453125 -42.48046875 171.38671875 -27.34375 q 173.828125 -12.20703125 176.7578125 -1.953125 l 176.7578125 -1.953125 l 176.7578125 0 l 63.96484375 0 l 63.96484375 -1.953125 q 66.89453125 -12.20703125 69.580078125 -27.34375 q 72.265625 -42.48046875 73.974609375 -64.94140625 q 75.68359375 -87.40234375 76.904296875 -118.408203125 q 78.125 -149.4140625 78.125 -190.91796875 l 78.125 -190.91796875"},"m":{"ha":884,"x_min":61,"x_max":826,"o":"m 400.87890625 -190.91796875 l 400.87890625 -329.1015625 q 400.87890625 -361.328125 394.287109375 -384.765625 q 387.6953125 -408.203125 375.244140625 -423.583984375 q 362.79296875 -438.96484375 345.21484375 -446.533203125 q 327.63671875 -454.1015625 306.15234375 -454.1015625 l 306.15234375 -454.1015625 q 291.50390625 -454.1015625 273.4375 -448.2421875 q 255.37109375 -442.3828125 236.083984375 -432.373046875 q 216.796875 -422.36328125 197.509765625 -409.1796875 q 178.22265625 -395.99609375 161.1328125 -380.859375 l 161.1328125 -380.859375 q 160.15625 -365.234375 160.15625 -347.412109375 q 160.15625 -329.58984375 160.15625 -309.08203125 l 160.15625 -309.08203125 l 160.15625 -190.91796875 q 160.15625 -149.4140625 161.1328125 -118.408203125 q 162.109375 -87.40234375 164.0625 -64.94140625 q 166.015625 -42.48046875 168.45703125 -27.34375 q 170.8984375 -12.20703125 173.828125 -1.953125 l 173.828125 -1.953125 l 173.828125 0 l 61.03515625 0 l 61.03515625 -1.953125 q 63.96484375 -12.20703125 66.650390625 -27.34375 q 69.3359375 -42.48046875 71.044921875 -64.94140625 q 72.75390625 -87.40234375 73.974609375 -118.408203125 q 75.1953125 -149.4140625 75.1953125 -190.91796875 l 75.1953125 -190.91796875 l 75.1953125 -309.08203125 q 75.1953125 -350.5859375 73.974609375 -381.591796875 q 72.75390625 -412.59765625 71.044921875 -435.05859375 q 69.3359375 -457.51953125 66.650390625 -472.65625 q 63.96484375 -487.79296875 61.03515625 -498.046875 l 61.03515625 -498.046875 l 61.03515625 -500 l 173.828125 -500 l 173.828125 -498.046875 q 169.921875 -486.81640625 167.724609375 -469.482421875 q 165.52734375 -452.1484375 163.0859375 -425.78125 l 163.0859375 -425.78125 q 182.6171875 -441.40625 205.078125 -456.54296875 q 227.5390625 -471.6796875 251.220703125 -483.3984375 q 274.90234375 -495.1171875 298.828125 -502.44140625 q 322.75390625 -509.765625 346.19140625 -509.765625 l 346.19140625 -509.765625 q 374.0234375 -509.765625 395.5078125 -502.44140625 q 416.9921875 -495.1171875 433.10546875 -482.421875 q 449.21875 -469.7265625 460.205078125 -452.63671875 q 471.19140625 -435.546875 477.05078125 -416.015625 l 477.05078125 -416.015625 q 497.0703125 -433.10546875 520.751953125 -449.951171875 q 544.43359375 -466.796875 569.580078125 -479.98046875 q 594.7265625 -493.1640625 620.849609375 -501.46484375 q 646.97265625 -509.765625 671.875 -509.765625 l 671.875 -509.765625 q 709.9609375 -509.765625 736.572265625 -496.58203125 q 763.18359375 -483.3984375 780.029296875 -461.9140625 q 796.875 -440.4296875 804.443359375 -412.841796875 q 812.01171875 -385.25390625 812.01171875 -356.93359375 l 812.01171875 -356.93359375 l 812.01171875 -190.91796875 q 812.01171875 -149.4140625 812.98828125 -118.408203125 q 813.96484375 -87.40234375 815.91796875 -64.94140625 q 817.87109375 -42.48046875 820.556640625 -27.34375 q 823.2421875 -12.20703125 826.171875 -1.953125 l 826.171875 -1.953125 l 826.171875 0 l 712.890625 0 l 712.890625 -1.953125 q 715.8203125 -12.20703125 718.505859375 -27.34375 q 721.19140625 -42.48046875 723.14453125 -64.94140625 q 725.09765625 -87.40234375 726.07421875 -118.408203125 q 727.05078125 -149.4140625 727.05078125 -190.91796875 l 727.05078125 -190.91796875 l 727.05078125 -329.1015625 q 727.05078125 -393.5546875 701.171875 -423.828125 q 675.29296875 -454.1015625 631.8359375 -454.1015625 l 631.8359375 -454.1015625 q 616.69921875 -454.1015625 598.388671875 -448.2421875 q 580.078125 -442.3828125 560.546875 -432.12890625 q 541.015625 -421.875 521.484375 -408.447265625 q 501.953125 -395.01953125 484.86328125 -379.8828125 l 484.86328125 -379.8828125 q 485.83984375 -374.0234375 485.83984375 -368.1640625 q 485.83984375 -362.3046875 485.83984375 -356.93359375 l 485.83984375 -356.93359375 l 485.83984375 -190.91796875 q 485.83984375 -149.4140625 487.060546875 -118.408203125 q 488.28125 -87.40234375 489.990234375 -64.94140625 q 491.69921875 -42.48046875 494.384765625 -27.34375 q 497.0703125 -12.20703125 500 -1.953125 l 500 -1.953125 l 500 0 l 387.20703125 0 l 387.20703125 -1.953125 q 390.13671875 -12.20703125 392.578125 -27.34375 q 395.01953125 -42.48046875 396.97265625 -64.94140625 q 398.92578125 -87.40234375 399.90234375 -118.408203125 q 400.87890625 -149.4140625 400.87890625 -190.91796875 l 400.87890625 -190.91796875"},"n":{"ha":568,"x_min":61,"x_max":510,"o":"m 411.1328125 -190.91796875 l 411.1328125 -329.1015625 q 411.1328125 -393.5546875 385.25390625 -423.828125 q 359.375 -454.1015625 315.91796875 -454.1015625 l 315.91796875 -454.1015625 q 300.29296875 -454.1015625 280.76171875 -447.509765625 q 261.23046875 -440.91796875 240.72265625 -429.931640625 q 220.21484375 -418.9453125 199.70703125 -404.296875 q 179.19921875 -389.6484375 161.1328125 -373.046875 l 161.1328125 -373.046875 l 160.15625 -309.08203125 l 160.15625 -190.91796875 q 160.15625 -149.4140625 161.1328125 -118.408203125 q 162.109375 -87.40234375 164.0625 -64.94140625 q 166.015625 -42.48046875 168.45703125 -27.34375 q 170.8984375 -12.20703125 173.828125 -1.953125 l 173.828125 -1.953125 l 173.828125 0 l 61.03515625 0 l 61.03515625 -1.953125 q 63.96484375 -12.20703125 66.650390625 -27.34375 q 69.3359375 -42.48046875 71.044921875 -64.94140625 q 72.75390625 -87.40234375 73.974609375 -118.408203125 q 75.1953125 -149.4140625 75.1953125 -190.91796875 l 75.1953125 -190.91796875 l 75.1953125 -309.08203125 q 75.1953125 -350.5859375 73.974609375 -381.591796875 q 72.75390625 -412.59765625 71.044921875 -435.05859375 q 69.3359375 -457.51953125 66.650390625 -472.65625 q 63.96484375 -487.79296875 61.03515625 -498.046875 l 61.03515625 -498.046875 l 61.03515625 -500 l 173.828125 -500 l 173.828125 -498.046875 q 169.921875 -485.83984375 167.724609375 -467.041015625 q 165.52734375 -448.2421875 163.0859375 -417.96875 l 163.0859375 -417.96875 q 183.10546875 -434.5703125 206.298828125 -451.171875 q 229.4921875 -467.7734375 254.39453125 -480.712890625 q 279.296875 -493.65234375 305.17578125 -501.708984375 q 331.0546875 -509.765625 355.95703125 -509.765625 l 355.95703125 -509.765625 q 394.04296875 -509.765625 420.654296875 -496.58203125 q 447.265625 -483.3984375 464.111328125 -461.9140625 q 480.95703125 -440.4296875 488.525390625 -412.841796875 q 496.09375 -385.25390625 496.09375 -356.93359375 l 496.09375 -356.93359375 l 496.09375 -190.91796875 q 496.09375 -149.4140625 497.0703125 -118.408203125 q 498.046875 -87.40234375 500 -64.94140625 q 501.953125 -42.48046875 504.39453125 -27.34375 q 506.8359375 -12.20703125 509.765625 -1.953125 l 509.765625 -1.953125 l 509.765625 0 l 396.97265625 0 l 396.97265625 -1.953125 q 399.90234375 -12.20703125 402.587890625 -27.34375 q 405.2734375 -42.48046875 406.982421875 -64.94140625 q 408.69140625 -87.40234375 409.912109375 -118.408203125 q 411.1328125 -149.4140625 411.1328125 -190.91796875 l 411.1328125 -190.91796875"},"o":{"ha":601,"x_min":34,"x_max":567,"o":"m 34.1796875 -250.9765625 l 34.1796875 -250.9765625 q 34.1796875 -306.15234375 54.6875 -353.271484375 q 75.1953125 -400.390625 111.083984375 -435.05859375 q 146.97265625 -469.7265625 195.80078125 -489.2578125 q 244.62890625 -508.7890625 300.78125 -508.7890625 l 300.78125 -508.7890625 q 355.95703125 -508.7890625 404.541015625 -490.478515625 q 453.125 -472.16796875 489.2578125 -438.4765625 q 525.390625 -404.78515625 546.142578125 -356.4453125 q 566.89453125 -308.10546875 566.89453125 -248.046875 l 566.89453125 -248.046875 q 566.89453125 -197.75390625 549.31640625 -151.3671875 q 531.73828125 -104.98046875 497.55859375 -69.3359375 q 463.37890625 -33.69140625 413.818359375 -12.451171875 q 364.2578125 8.7890625 299.8046875 8.7890625 l 299.8046875 8.7890625 q 245.1171875 8.7890625 196.77734375 -9.27734375 q 148.4375 -27.34375 112.3046875 -61.03515625 q 76.171875 -94.7265625 55.17578125 -142.822265625 q 34.1796875 -190.91796875 34.1796875 -250.9765625 m 311.03515625 -26.85546875 l 311.03515625 -26.85546875 q 345.703125 -26.85546875 374.755859375 -40.52734375 q 403.80859375 -54.19921875 424.8046875 -80.078125 q 445.80078125 -105.95703125 457.51953125 -143.06640625 q 469.23828125 -180.17578125 469.23828125 -227.05078125 l 469.23828125 -227.05078125 q 469.23828125 -279.78515625 458.0078125 -324.951171875 q 446.77734375 -370.1171875 424.560546875 -403.076171875 q 402.34375 -436.03515625 368.65234375 -454.58984375 q 334.9609375 -473.14453125 290.0390625 -473.14453125 l 290.0390625 -473.14453125 q 255.37109375 -473.14453125 226.5625 -459.716796875 q 197.75390625 -446.2890625 176.513671875 -420.8984375 q 155.2734375 -395.5078125 143.5546875 -358.642578125 q 131.8359375 -321.77734375 131.8359375 -274.90234375 l 131.8359375 -274.90234375 q 131.8359375 -222.16796875 143.310546875 -176.7578125 q 154.78515625 -131.34765625 177.24609375 -97.900390625 q 199.70703125 -64.453125 233.154296875 -45.654296875 q 266.6015625 -26.85546875 311.03515625 -26.85546875"},"p":{"ha":584,"x_min":61,"x_max":550,"o":"m 75.1953125 59.08203125 l 75.1953125 -318.84765625 q 75.1953125 -360.3515625 73.974609375 -391.357421875 q 72.75390625 -422.36328125 71.044921875 -444.82421875 q 69.3359375 -467.28515625 66.650390625 -482.421875 q 63.96484375 -497.55859375 61.03515625 -507.8125 l 61.03515625 -507.8125 l 61.03515625 -509.765625 l 173.828125 -509.765625 l 173.828125 -507.8125 q 171.38671875 -500.48828125 169.43359375 -491.2109375 q 167.48046875 -481.93359375 166.015625 -470.21484375 l 166.015625 -470.21484375 q 194.82421875 -486.81640625 229.736328125 -498.291015625 q 264.6484375 -509.765625 307.12890625 -509.765625 l 307.12890625 -509.765625 q 361.328125 -509.765625 406.005859375 -491.455078125 q 450.68359375 -473.14453125 482.666015625 -438.96484375 q 514.6484375 -404.78515625 532.2265625 -356.4453125 q 549.8046875 -308.10546875 549.8046875 -248.046875 l 549.8046875 -248.046875 q 549.8046875 -197.75390625 532.470703125 -151.3671875 q 515.13671875 -104.98046875 481.689453125 -69.3359375 q 448.2421875 -33.69140625 399.4140625 -12.451171875 q 350.5859375 8.7890625 287.109375 8.7890625 l 287.109375 8.7890625 q 249.0234375 8.7890625 217.7734375 2.9296875 q 186.5234375 -2.9296875 160.15625 -12.20703125 l 160.15625 -12.20703125 l 160.15625 59.08203125 q 160.15625 100.5859375 161.1328125 131.591796875 q 162.109375 162.59765625 164.0625 185.05859375 q 166.015625 207.51953125 168.45703125 222.65625 q 170.8984375 237.79296875 173.828125 248.046875 l 173.828125 248.046875 l 173.828125 250 l 61.03515625 250 l 61.03515625 248.046875 q 63.96484375 237.79296875 66.650390625 222.65625 q 69.3359375 207.51953125 71.044921875 185.05859375 q 72.75390625 162.59765625 73.974609375 131.591796875 q 75.1953125 100.5859375 75.1953125 59.08203125 l 75.1953125 59.08203125 m 290.0390625 -473.14453125 l 290.0390625 -473.14453125 q 273.4375 -473.14453125 256.103515625 -468.994140625 q 238.76953125 -464.84375 221.923828125 -457.275390625 q 205.078125 -449.70703125 189.697265625 -438.232421875 q 174.31640625 -426.7578125 162.109375 -412.109375 l 162.109375 -412.109375 q 161.1328125 -393.5546875 160.64453125 -370.1171875 q 160.15625 -346.6796875 160.15625 -318.84765625 l 160.15625 -318.84765625 l 160.15625 -62.98828125 q 169.921875 -55.6640625 182.12890625 -49.31640625 q 194.3359375 -42.96875 209.716796875 -37.841796875 q 225.09765625 -32.71484375 244.384765625 -29.78515625 q 263.671875 -26.85546875 287.109375 -26.85546875 l 287.109375 -26.85546875 q 325.1953125 -26.85546875 355.95703125 -40.52734375 q 386.71875 -54.19921875 407.958984375 -80.078125 q 429.19921875 -105.95703125 440.673828125 -143.06640625 q 452.1484375 -180.17578125 452.1484375 -227.05078125 l 452.1484375 -227.05078125 q 452.1484375 -279.78515625 443.359375 -324.951171875 q 434.5703125 -370.1171875 415.283203125 -403.076171875 q 395.99609375 -436.03515625 365.234375 -454.58984375 q 334.47265625 -473.14453125 290.0390625 -473.14453125"},"q":{"ha":584,"x_min":34,"x_max":523,"o":"m 423.828125 59.08203125 l 423.828125 -8.7890625 q 410.64453125 -4.8828125 395.99609375 -1.46484375 q 381.34765625 1.953125 365.966796875 4.150390625 q 350.5859375 6.34765625 335.44921875 7.568359375 q 320.3125 8.7890625 307.12890625 8.7890625 l 307.12890625 8.7890625 q 248.046875 8.7890625 197.998046875 -8.544921875 q 147.94921875 -25.87890625 111.572265625 -59.08203125 q 75.1953125 -92.28515625 54.6875 -140.625 q 34.1796875 -188.96484375 34.1796875 -250.9765625 l 34.1796875 -250.9765625 q 34.1796875 -306.15234375 55.419921875 -353.271484375 q 76.66015625 -400.390625 114.501953125 -435.05859375 q 152.34375 -469.7265625 203.61328125 -489.2578125 q 254.8828125 -508.7890625 314.94140625 -508.7890625 l 314.94140625 -508.7890625 q 340.8203125 -508.7890625 369.873046875 -505.37109375 q 398.92578125 -501.953125 422.8515625 -496.09375 l 422.8515625 -496.09375 q 445.80078125 -490.72265625 470.21484375 -484.619140625 q 494.62890625 -478.515625 516.11328125 -470.21484375 l 516.11328125 -470.21484375 q 514.16015625 -462.890625 512.939453125 -445.556640625 q 511.71875 -428.22265625 510.7421875 -408.203125 q 509.765625 -388.18359375 509.27734375 -368.896484375 q 508.7890625 -349.609375 508.7890625 -337.890625 l 508.7890625 -337.890625 l 508.7890625 59.08203125 q 508.7890625 100.5859375 510.009765625 131.591796875 q 511.23046875 162.59765625 512.939453125 185.05859375 q 514.6484375 207.51953125 517.333984375 222.65625 q 520.01953125 237.79296875 522.94921875 248.046875 l 522.94921875 248.046875 l 522.94921875 250 l 410.15625 250 l 410.15625 248.046875 q 413.0859375 237.79296875 415.52734375 222.65625 q 417.96875 207.51953125 419.921875 185.05859375 q 421.875 162.59765625 422.8515625 131.591796875 q 423.828125 100.5859375 423.828125 59.08203125 l 423.828125 59.08203125 m 423.828125 -56.15234375 l 423.828125 -330.078125 q 423.828125 -370.60546875 423.095703125 -396.484375 q 422.36328125 -422.36328125 420.8984375 -438.96484375 l 420.8984375 -438.96484375 q 395.99609375 -454.58984375 365.72265625 -463.8671875 q 335.44921875 -473.14453125 303.22265625 -473.14453125 l 303.22265625 -473.14453125 q 265.13671875 -473.14453125 233.88671875 -459.716796875 q 202.63671875 -446.2890625 180.17578125 -420.8984375 q 157.71484375 -395.5078125 145.263671875 -358.642578125 q 132.8125 -321.77734375 132.8125 -274.90234375 l 132.8125 -274.90234375 q 132.8125 -222.16796875 144.775390625 -176.7578125 q 156.73828125 -131.34765625 180.419921875 -97.900390625 q 204.1015625 -64.453125 239.990234375 -45.654296875 q 275.87890625 -26.85546875 324.21875 -26.85546875 l 324.21875 -26.85546875 q 350.5859375 -26.85546875 376.220703125 -34.423828125 q 401.85546875 -41.9921875 423.828125 -56.15234375 l 423.828125 -56.15234375"},"r":{"ha":392,"x_min":61,"x_max":392,"o":"m 75.1953125 -190.91796875 l 75.1953125 -309.08203125 q 75.1953125 -350.5859375 73.974609375 -381.591796875 q 72.75390625 -412.59765625 71.044921875 -435.05859375 q 69.3359375 -457.51953125 66.650390625 -472.65625 q 63.96484375 -487.79296875 61.03515625 -498.046875 l 61.03515625 -498.046875 l 61.03515625 -500 l 173.828125 -500 l 173.828125 -498.046875 q 169.921875 -486.81640625 167.236328125 -470.703125 q 164.55078125 -454.58984375 163.0859375 -429.19921875 l 163.0859375 -429.19921875 q 181.15234375 -444.3359375 200.68359375 -458.984375 q 220.21484375 -473.6328125 240.72265625 -484.86328125 q 261.23046875 -496.09375 282.470703125 -502.9296875 q 303.7109375 -509.765625 325.1953125 -509.765625 l 325.1953125 -509.765625 q 338.37890625 -509.765625 348.14453125 -508.544921875 q 357.91015625 -507.32421875 365.72265625 -505.126953125 q 373.53515625 -502.9296875 379.8828125 -500.244140625 q 386.23046875 -497.55859375 392.08984375 -495.1171875 l 392.08984375 -495.1171875 l 368.1640625 -401.85546875 l 359.86328125 -403.80859375 q 354.00390625 -425.29296875 337.890625 -438.232421875 q 321.77734375 -451.171875 293.9453125 -451.171875 l 293.9453125 -451.171875 q 278.80859375 -451.171875 262.20703125 -445.80078125 q 245.60546875 -440.4296875 228.515625 -430.908203125 q 211.42578125 -421.38671875 194.3359375 -408.935546875 q 177.24609375 -396.484375 161.1328125 -382.8125 l 161.1328125 -382.8125 q 160.15625 -368.65234375 160.15625 -352.05078125 q 160.15625 -335.44921875 160.15625 -316.89453125 l 160.15625 -316.89453125 l 160.15625 -190.91796875 q 160.15625 -149.4140625 161.1328125 -118.408203125 q 162.109375 -87.40234375 164.0625 -64.94140625 q 166.015625 -42.48046875 168.45703125 -27.34375 q 170.8984375 -12.20703125 173.828125 -1.953125 l 173.828125 -1.953125 l 173.828125 0 l 61.03515625 0 l 61.03515625 -1.953125 q 63.96484375 -12.20703125 66.650390625 -27.34375 q 69.3359375 -42.48046875 71.044921875 -64.94140625 q 72.75390625 -87.40234375 73.974609375 -118.408203125 q 75.1953125 -149.4140625 75.1953125 -190.91796875 l 75.1953125 -190.91796875"},"s":{"ha":354,"x_min":33,"x_max":319,"o":"m 291.015625 -482.91015625 l 295.8984375 -401.85546875 l 289.0625 -400.87890625 q 285.64453125 -412.109375 278.076171875 -424.8046875 q 270.5078125 -437.5 258.544921875 -448.2421875 q 246.58203125 -458.984375 229.736328125 -466.064453125 q 212.890625 -473.14453125 190.91796875 -473.14453125 l 190.91796875 -473.14453125 q 175.78125 -473.14453125 162.353515625 -468.75 q 148.92578125 -464.35546875 138.916015625 -455.810546875 q 128.90625 -447.265625 123.046875 -434.5703125 q 117.1875 -421.875 117.1875 -404.78515625 l 117.1875 -404.78515625 q 117.1875 -380.859375 132.080078125 -359.130859375 q 146.97265625 -337.40234375 169.43359375 -316.162109375 q 191.89453125 -294.921875 218.017578125 -273.4375 q 244.140625 -251.953125 266.6015625 -228.515625 q 289.0625 -205.078125 303.955078125 -178.466796875 q 318.84765625 -151.85546875 318.84765625 -121.09375 l 318.84765625 -121.09375 q 318.84765625 -96.19140625 310.05859375 -72.509765625 q 301.26953125 -48.828125 282.958984375 -30.2734375 q 264.6484375 -11.71875 236.083984375 -0.244140625 q 207.51953125 11.23046875 167.96875 11.23046875 l 167.96875 11.23046875 q 144.53125 11.23046875 124.267578125 6.8359375 q 104.00390625 2.44140625 87.158203125 -4.150390625 q 70.3125 -10.7421875 56.884765625 -18.798828125 q 43.45703125 -26.85546875 33.203125 -34.1796875 l 33.203125 -34.1796875 l 38.0859375 -126.953125 l 45.8984375 -126.953125 q 50.78125 -104.00390625 60.546875 -84.9609375 q 70.3125 -65.91796875 84.716796875 -52.490234375 q 99.12109375 -39.0625 117.67578125 -31.494140625 q 136.23046875 -23.92578125 158.203125 -23.92578125 l 158.203125 -23.92578125 q 194.3359375 -23.92578125 215.576171875 -43.9453125 q 236.81640625 -63.96484375 236.81640625 -96.19140625 l 236.81640625 -96.19140625 q 236.81640625 -122.0703125 222.412109375 -143.798828125 q 208.0078125 -165.52734375 186.03515625 -185.546875 q 164.0625 -205.56640625 138.916015625 -225.5859375 q 113.76953125 -245.60546875 91.796875 -268.310546875 q 69.82421875 -291.015625 55.419921875 -318.115234375 q 41.015625 -345.21484375 41.015625 -379.8828125 l 41.015625 -379.8828125 q 41.015625 -408.203125 51.513671875 -431.884765625 q 62.01171875 -455.56640625 80.810546875 -472.412109375 q 99.609375 -489.2578125 125.48828125 -498.53515625 q 151.3671875 -507.8125 182.12890625 -507.8125 l 182.12890625 -507.8125 q 222.65625 -507.8125 249.755859375 -499.267578125 q 276.85546875 -490.72265625 291.015625 -482.91015625 l 291.015625 -482.91015625"},"t":{"ha":384,"x_min":10,"x_max":363,"o":"m 251.953125 -28.80859375 l 251.953125 -28.80859375 q 266.6015625 -28.80859375 281.005859375 -34.1796875 q 295.41015625 -39.55078125 308.837890625 -48.828125 q 322.265625 -58.10546875 334.716796875 -70.068359375 q 347.16796875 -82.03125 357.91015625 -95.21484375 l 357.91015625 -95.21484375 l 362.79296875 -92.7734375 l 331.0546875 -14.16015625 q 325.1953125 -11.23046875 316.650390625 -7.080078125 q 308.10546875 -2.9296875 296.142578125 0.732421875 q 284.1796875 4.39453125 268.06640625 7.080078125 q 251.953125 9.765625 229.98046875 9.765625 l 229.98046875 9.765625 q 164.55078125 9.765625 128.173828125 -25.634765625 q 91.796875 -61.03515625 91.796875 -136.23046875 l 91.796875 -136.23046875 l 91.796875 -461.9140625 l 9.765625 -458.984375 l 9.765625 -501.953125 q 24.90234375 -500.9765625 45.8984375 -500.48828125 q 66.89453125 -500 91.796875 -500 l 91.796875 -500 q 91.30859375 -534.66796875 90.087890625 -561.279296875 q 88.8671875 -587.890625 87.158203125 -607.666015625 q 85.44921875 -627.44140625 83.0078125 -641.11328125 q 80.56640625 -654.78515625 78.125 -664.0625 l 78.125 -664.0625 l 78.125 -666.015625 l 190.91796875 -666.015625 l 190.91796875 -664.0625 q 187.98828125 -654.78515625 185.546875 -641.11328125 q 183.10546875 -627.44140625 181.396484375 -607.91015625 q 179.6875 -588.37890625 178.466796875 -561.767578125 q 177.24609375 -535.15625 176.7578125 -500 l 176.7578125 -500 q 207.51953125 -500.48828125 237.060546875 -501.220703125 q 266.6015625 -501.953125 290.771484375 -503.173828125 q 314.94140625 -504.39453125 331.787109375 -505.615234375 q 348.6328125 -506.8359375 354.00390625 -507.8125 l 354.00390625 -507.8125 l 345.21484375 -458.0078125 q 320.3125 -458.49609375 292.96875 -459.47265625 l 292.96875 -459.47265625 q 269.53125 -460.44921875 239.2578125 -460.9375 q 208.984375 -461.42578125 176.7578125 -461.9140625 l 176.7578125 -461.9140625 l 176.7578125 -125.9765625 q 176.7578125 -95.703125 183.349609375 -76.904296875 q 189.94140625 -58.10546875 200.439453125 -47.36328125 q 210.9375 -36.62109375 224.365234375 -32.71484375 q 237.79296875 -28.80859375 251.953125 -28.80859375"},"u":{"ha":568,"x_min":58,"x_max":507,"o":"m 157.2265625 -309.08203125 l 157.2265625 -170.8984375 q 157.2265625 -106.4453125 182.861328125 -76.171875 q 208.49609375 -45.8984375 251.953125 -45.8984375 l 251.953125 -45.8984375 q 267.578125 -45.8984375 287.109375 -52.490234375 q 306.640625 -59.08203125 327.392578125 -70.068359375 q 348.14453125 -81.0546875 368.896484375 -95.703125 q 389.6484375 -110.3515625 407.2265625 -126.953125 l 407.2265625 -126.953125 q 408.203125 -141.11328125 408.203125 -156.982421875 q 408.203125 -172.8515625 408.203125 -190.91796875 l 408.203125 -190.91796875 l 408.203125 -309.08203125 q 408.203125 -350.5859375 406.982421875 -381.591796875 q 405.76171875 -412.59765625 404.052734375 -435.05859375 q 402.34375 -457.51953125 399.658203125 -472.65625 q 396.97265625 -487.79296875 394.04296875 -498.046875 l 394.04296875 -498.046875 l 394.04296875 -500 l 506.8359375 -500 l 506.8359375 -498.046875 q 503.90625 -487.79296875 501.46484375 -472.65625 q 499.0234375 -457.51953125 497.0703125 -435.05859375 q 495.1171875 -412.59765625 494.140625 -381.591796875 q 493.1640625 -350.5859375 493.1640625 -309.08203125 l 493.1640625 -309.08203125 l 493.1640625 -190.91796875 q 493.1640625 -149.4140625 494.140625 -118.408203125 q 495.1171875 -87.40234375 497.0703125 -64.94140625 q 499.0234375 -42.48046875 501.46484375 -27.34375 q 503.90625 -12.20703125 506.8359375 -1.953125 l 506.8359375 -1.953125 l 506.8359375 0 l 394.04296875 0 l 394.04296875 -1.953125 q 396.97265625 -14.16015625 400.146484375 -33.203125 q 403.3203125 -52.24609375 404.78515625 -83.0078125 l 404.78515625 -83.0078125 q 384.765625 -65.91796875 361.572265625 -49.31640625 q 338.37890625 -32.71484375 313.232421875 -19.53125 q 288.0859375 -6.34765625 262.451171875 1.708984375 q 236.81640625 9.765625 211.9140625 9.765625 l 211.9140625 9.765625 q 173.828125 9.765625 147.216796875 -3.41796875 q 120.60546875 -16.6015625 103.759765625 -38.0859375 q 86.9140625 -59.5703125 79.345703125 -86.9140625 q 71.77734375 -114.2578125 71.77734375 -143.06640625 l 71.77734375 -143.06640625 l 71.77734375 -309.08203125 q 71.77734375 -350.5859375 70.80078125 -381.591796875 q 69.82421875 -412.59765625 67.87109375 -435.05859375 q 65.91796875 -457.51953125 63.4765625 -472.65625 q 61.03515625 -487.79296875 58.10546875 -498.046875 l 58.10546875 -498.046875 l 58.10546875 -500 l 170.8984375 -500 l 170.8984375 -498.046875 q 167.96875 -487.79296875 165.52734375 -472.65625 q 163.0859375 -457.51953125 161.1328125 -435.05859375 q 159.1796875 -412.59765625 158.203125 -381.591796875 q 157.2265625 -350.5859375 157.2265625 -309.08203125 l 157.2265625 -309.08203125"},"v":{"ha":476,"x_min":-7,"x_max":483,"o":"m -6.8359375 -500 l 121.09375 -500 l 121.09375 -498.046875 q 120.1171875 -495.60546875 119.62890625 -490.72265625 q 119.140625 -485.83984375 119.140625 -481.93359375 l 119.140625 -481.93359375 q 119.140625 -466.796875 123.53515625 -448.486328125 q 127.9296875 -430.17578125 139.16015625 -402.83203125 l 139.16015625 -402.83203125 l 255.859375 -125 l 374.0234375 -398.92578125 q 381.34765625 -416.9921875 389.6484375 -438.4765625 q 397.94921875 -459.9609375 397.94921875 -481.93359375 l 397.94921875 -481.93359375 q 397.94921875 -488.28125 396.97265625 -492.431640625 q 395.99609375 -496.58203125 395.01953125 -498.046875 l 395.01953125 -498.046875 l 395.01953125 -500 l 482.91015625 -500 l 482.91015625 -498.046875 q 474.12109375 -488.76953125 460.693359375 -465.087890625 q 447.265625 -441.40625 432.12890625 -405.76171875 l 432.12890625 -405.76171875 l 251.953125 6.8359375 l 223.14453125 6.8359375 l 56.15234375 -381.8359375 q 47.36328125 -403.3203125 37.353515625 -423.095703125 q 27.34375 -442.87109375 18.310546875 -458.49609375 q 9.27734375 -474.12109375 2.44140625 -484.619140625 q -4.39453125 -495.1171875 -6.8359375 -498.046875 l -6.8359375 -498.046875 l -6.8359375 -500"},"w":{"ha":751,"x_min":-2,"x_max":753,"o":"m 386.23046875 -455.078125 l 404.78515625 -455.078125 l 535.15625 -126.953125 l 644.04296875 -398.92578125 q 647.4609375 -407.71484375 651.85546875 -418.701171875 q 656.25 -429.6875 659.66796875 -441.162109375 q 663.0859375 -452.63671875 665.52734375 -463.134765625 q 667.96875 -473.6328125 667.96875 -481.93359375 l 667.96875 -481.93359375 q 667.96875 -488.28125 666.9921875 -492.431640625 q 666.015625 -496.58203125 665.0390625 -498.046875 l 665.0390625 -498.046875 l 665.0390625 -500 l 752.9296875 -500 l 752.9296875 -498.046875 q 744.140625 -488.76953125 731.689453125 -467.529296875 q 719.23828125 -446.2890625 702.1484375 -405.76171875 l 702.1484375 -405.76171875 l 528.80859375 6.8359375 l 500.9765625 6.8359375 l 375 -298.828125 l 249.0234375 6.8359375 l 221.19140625 6.8359375 l 61.03515625 -381.8359375 q 52.24609375 -403.3203125 42.236328125 -423.095703125 q 32.2265625 -442.87109375 23.193359375 -458.49609375 q 14.16015625 -474.12109375 7.32421875 -484.619140625 q 0.48828125 -495.1171875 -1.953125 -498.046875 l -1.953125 -498.046875 l -1.953125 -500 l 127.9296875 -500 l 127.9296875 -498.046875 q 126.953125 -495.60546875 126.46484375 -490.72265625 q 125.9765625 -485.83984375 125.9765625 -481.93359375 l 125.9765625 -481.93359375 q 125.9765625 -466.796875 130.615234375 -448.486328125 q 135.25390625 -430.17578125 145.99609375 -402.83203125 l 145.99609375 -402.83203125 l 254.8828125 -126.953125 l 386.23046875 -455.078125"},"x":{"ha":523,"x_min":10,"x_max":513,"o":"m 350.09765625 -68.84765625 l 245.1171875 -209.9609375 l 127.9296875 -62.01171875 q 121.58203125 -53.7109375 114.990234375 -44.921875 q 108.3984375 -36.1328125 103.271484375 -27.83203125 q 98.14453125 -19.53125 94.970703125 -12.20703125 q 91.796875 -4.8828125 91.796875 0 l 91.796875 0 l 9.765625 0 l 9.765625 -1.953125 q 17.578125 -8.7890625 31.494140625 -22.4609375 q 45.41015625 -36.1328125 61.03515625 -56.15234375 l 61.03515625 -56.15234375 l 214.84375 -250.9765625 l 63.96484375 -455.078125 q 51.26953125 -471.6796875 39.0625 -483.3984375 q 26.85546875 -495.1171875 20.99609375 -498.046875 l 20.99609375 -498.046875 l 20.99609375 -500 l 154.78515625 -500 q 154.78515625 -491.69921875 160.888671875 -473.876953125 q 166.9921875 -456.0546875 185.05859375 -431.15234375 l 185.05859375 -431.15234375 l 268.06640625 -317.87109375 l 362.79296875 -437.98828125 q 368.65234375 -445.80078125 374.755859375 -454.58984375 q 380.859375 -463.37890625 385.498046875 -471.923828125 q 390.13671875 -480.46875 393.06640625 -487.79296875 q 395.99609375 -495.1171875 395.99609375 -500 l 395.99609375 -500 l 478.02734375 -500 l 478.02734375 -498.046875 q 471.19140625 -492.67578125 460.9375 -482.421875 q 450.68359375 -472.16796875 434.08203125 -451.171875 l 434.08203125 -451.171875 l 297.8515625 -277.83203125 l 461.9140625 -56.15234375 q 478.515625 -34.1796875 492.67578125 -20.01953125 q 506.8359375 -5.859375 513.18359375 -1.953125 l 513.18359375 -1.953125 l 513.18359375 0 l 379.8828125 0 q 379.8828125 -8.30078125 373.53515625 -26.611328125 q 367.1875 -44.921875 350.09765625 -68.84765625 l 350.09765625 -68.84765625"},"y":{"ha":501,"x_min":-7,"x_max":508,"o":"m 163.0859375 157.2265625 l 231.93359375 -5.859375 l 60.05859375 -381.8359375 q 50.78125 -403.3203125 40.0390625 -423.095703125 q 29.296875 -442.87109375 19.775390625 -458.49609375 q 10.25390625 -474.12109375 2.9296875 -484.619140625 q -4.39453125 -495.1171875 -6.8359375 -498.046875 l -6.8359375 -498.046875 l -6.8359375 -500 l 121.09375 -500 l 121.09375 -498.046875 q 120.1171875 -495.60546875 119.62890625 -490.72265625 q 119.140625 -485.83984375 119.140625 -481.93359375 l 119.140625 -481.93359375 q 119.140625 -466.796875 123.779296875 -448.486328125 q 128.41796875 -430.17578125 141.11328125 -402.83203125 l 141.11328125 -402.83203125 l 275.87890625 -109.86328125 l 398.92578125 -398.92578125 q 406.73828125 -416.9921875 414.794921875 -438.4765625 q 422.8515625 -459.9609375 422.8515625 -481.93359375 l 422.8515625 -481.93359375 q 422.8515625 -488.28125 421.875 -492.431640625 q 420.8984375 -496.58203125 419.921875 -498.046875 l 419.921875 -498.046875 l 419.921875 -500 l 507.8125 -500 l 507.8125 -498.046875 q 499.0234375 -488.76953125 485.595703125 -465.087890625 q 472.16796875 -441.40625 457.03125 -405.76171875 l 457.03125 -405.76171875 l 224.12109375 148.92578125 q 216.30859375 166.9921875 208.251953125 188.4765625 q 200.1953125 209.9609375 200.1953125 231.93359375 l 200.1953125 231.93359375 q 200.1953125 238.28125 201.171875 242.431640625 q 202.1484375 246.58203125 203.125 248.046875 l 203.125 248.046875 l 203.125 250 l 111.81640625 250 l 111.81640625 248.046875 q 121.09375 238.76953125 134.521484375 215.576171875 q 147.94921875 192.3828125 163.0859375 157.2265625 l 163.0859375 157.2265625"},"z":{"ha":466,"x_min":8,"x_max":446,"o":"m 441.89453125 -491.2109375 l 125 -38.0859375 l 270.01953125 -38.0859375 q 308.10546875 -38.0859375 340.33203125 -42.236328125 q 372.55859375 -46.38671875 395.99609375 -51.7578125 l 395.99609375 -51.7578125 q 423.33984375 -57.6171875 445.80078125 -65.91796875 l 445.80078125 -65.91796875 l 423.828125 3.90625 q 417.96875 3.41796875 403.564453125 2.685546875 q 389.16015625 1.953125 373.291015625 1.220703125 q 357.421875 0.48828125 343.26171875 0.244140625 q 329.1015625 0 324.21875 0 l 324.21875 0 l 7.8125 0 l 7.8125 -12.20703125 l 323.2421875 -461.9140625 l 221.19140625 -461.9140625 q 180.6640625 -461.9140625 146.728515625 -457.51953125 q 112.79296875 -453.125 87.890625 -447.75390625 l 87.890625 -447.75390625 q 58.59375 -441.89453125 35.15625 -434.08203125 l 35.15625 -434.08203125 l 66.89453125 -503.90625 q 72.75390625 -502.9296875 87.158203125 -502.44140625 q 101.5625 -501.953125 117.67578125 -501.220703125 q 133.7890625 -500.48828125 147.705078125 -500.244140625 q 161.62109375 -500 166.9921875 -500 l 166.9921875 -500 l 441.89453125 -500 l 441.89453125 -491.2109375"},"":{"ha":551,"x_min":10,"x_max":488,"o":"m 388.18359375 -190.91796875 l 388.18359375 -309.08203125 q 388.18359375 -363.28125 385.986328125 -400.634765625 q 383.7890625 -437.98828125 380.859375 -461.9140625 l 380.859375 -461.9140625 l 176.7578125 -461.9140625 l 176.7578125 -190.91796875 q 176.7578125 -149.4140625 177.978515625 -118.408203125 q 179.19921875 -87.40234375 180.908203125 -64.94140625 q 182.6171875 -42.48046875 185.302734375 -27.34375 q 187.98828125 -12.20703125 190.91796875 -1.953125 l 190.91796875 -1.953125 l 190.91796875 0 l 78.125 0 l 78.125 -1.953125 q 81.0546875 -12.20703125 83.49609375 -27.34375 q 85.9375 -42.48046875 87.890625 -64.94140625 q 89.84375 -87.40234375 90.8203125 -118.408203125 q 91.796875 -149.4140625 91.796875 -190.91796875 l 91.796875 -190.91796875 l 91.796875 -461.9140625 l 9.765625 -458.984375 l 9.765625 -501.953125 q 24.90234375 -500.9765625 45.8984375 -500.48828125 q 66.89453125 -500 91.796875 -500 l 91.796875 -500 l 91.796875 -556.15234375 q 91.796875 -590.33203125 100.341796875 -617.1875 q 108.88671875 -644.04296875 123.779296875 -664.0625 q 138.671875 -684.08203125 158.447265625 -698.2421875 q 178.22265625 -712.40234375 200.1953125 -721.19140625 q 222.16796875 -729.98046875 245.1171875 -733.88671875 q 268.06640625 -737.79296875 290.0390625 -737.79296875 l 290.0390625 -737.79296875 q 314.453125 -737.79296875 335.44921875 -735.83984375 q 356.4453125 -733.88671875 373.046875 -730.95703125 q 389.6484375 -728.02734375 401.611328125 -725.09765625 q 413.57421875 -722.16796875 419.921875 -720.21484375 l 419.921875 -720.21484375 l 438.96484375 -637.20703125 l 433.10546875 -633.7890625 q 423.33984375 -645.99609375 409.66796875 -657.71484375 q 395.99609375 -669.43359375 378.173828125 -678.955078125 q 360.3515625 -688.4765625 337.890625 -694.3359375 q 315.4296875 -700.1953125 288.0859375 -700.1953125 l 288.0859375 -700.1953125 q 275.87890625 -700.1953125 257.080078125 -696.2890625 q 238.28125 -692.3828125 220.458984375 -678.955078125 q 202.63671875 -665.52734375 189.697265625 -638.916015625 q 176.7578125 -612.3046875 176.7578125 -566.89453125 l 176.7578125 -566.89453125 l 176.7578125 -500 q 243.65234375 -500.48828125 298.33984375 -501.220703125 q 353.02734375 -501.953125 393.310546875 -502.9296875 q 433.59375 -503.90625 457.763671875 -505.126953125 q 481.93359375 -506.34765625 487.79296875 -507.8125 l 487.79296875 -507.8125 q 482.91015625 -482.91015625 479.98046875 -460.44921875 q 477.05078125 -437.98828125 475.5859375 -414.55078125 q 474.12109375 -391.11328125 473.6328125 -365.478515625 q 473.14453125 -339.84375 473.14453125 -309.08203125 l 473.14453125 -309.08203125 l 473.14453125 -190.91796875 q 473.14453125 -149.4140625 474.12109375 -118.408203125 q 475.09765625 -87.40234375 477.05078125 -64.94140625 q 479.00390625 -42.48046875 481.4453125 -27.34375 q 483.88671875 -12.20703125 486.81640625 -1.953125 l 486.81640625 -1.953125 l 486.81640625 0 l 374.0234375 0 l 374.0234375 -1.953125 q 376.953125 -12.20703125 379.638671875 -27.34375 q 382.32421875 -42.48046875 384.033203125 -64.94140625 q 385.7421875 -87.40234375 386.962890625 -118.408203125 q 388.18359375 -149.4140625 388.18359375 -190.91796875 l 388.18359375 -190.91796875"},"":{"ha":561,"x_min":10,"x_max":497,"o":"m 397.94921875 -190.91796875 l 397.94921875 -539.0625 q 397.94921875 -587.40234375 396.728515625 -618.65234375 q 395.5078125 -649.90234375 393.06640625 -670.8984375 l 393.06640625 -670.8984375 q 373.53515625 -683.10546875 347.412109375 -691.650390625 q 321.2890625 -700.1953125 288.0859375 -700.1953125 l 288.0859375 -700.1953125 q 275.87890625 -700.1953125 257.080078125 -696.2890625 q 238.28125 -692.3828125 220.458984375 -678.955078125 q 202.63671875 -665.52734375 189.697265625 -638.916015625 q 176.7578125 -612.3046875 176.7578125 -566.89453125 l 176.7578125 -566.89453125 l 176.7578125 -500 q 206.54296875 -500.48828125 232.666015625 -501.220703125 q 258.7890625 -501.953125 279.296875 -502.9296875 q 299.8046875 -503.90625 313.96484375 -505.126953125 q 328.125 -506.34765625 333.984375 -507.8125 l 333.984375 -507.8125 l 325.1953125 -458.0078125 q 305.6640625 -458.49609375 282.2265625 -459.47265625 l 282.2265625 -459.47265625 q 261.71875 -460.44921875 234.86328125 -460.9375 q 208.0078125 -461.42578125 176.7578125 -461.9140625 l 176.7578125 -461.9140625 l 176.7578125 -190.91796875 q 176.7578125 -149.4140625 177.978515625 -118.408203125 q 179.19921875 -87.40234375 180.908203125 -64.94140625 q 182.6171875 -42.48046875 185.302734375 -27.34375 q 187.98828125 -12.20703125 190.91796875 -1.953125 l 190.91796875 -1.953125 l 190.91796875 0 l 78.125 0 l 78.125 -1.953125 q 81.0546875 -12.20703125 83.49609375 -27.34375 q 85.9375 -42.48046875 87.890625 -64.94140625 q 89.84375 -87.40234375 90.8203125 -118.408203125 q 91.796875 -149.4140625 91.796875 -190.91796875 l 91.796875 -190.91796875 l 91.796875 -461.9140625 l 9.765625 -458.984375 l 9.765625 -501.953125 q 21.97265625 -500.9765625 44.43359375 -500.48828125 q 66.89453125 -500 91.796875 -500 l 91.796875 -500 l 91.796875 -556.15234375 q 91.796875 -590.33203125 100.341796875 -617.1875 q 108.88671875 -644.04296875 123.779296875 -664.0625 q 138.671875 -684.08203125 158.447265625 -698.2421875 q 178.22265625 -712.40234375 200.1953125 -721.19140625 q 222.16796875 -729.98046875 245.1171875 -733.88671875 q 268.06640625 -737.79296875 290.0390625 -737.79296875 l 290.0390625 -737.79296875 q 313.4765625 -737.79296875 331.787109375 -735.595703125 q 350.09765625 -733.3984375 366.455078125 -730.46875 q 382.8125 -727.5390625 398.193359375 -725.341796875 q 413.57421875 -723.14453125 431.15234375 -723.14453125 l 431.15234375 -723.14453125 l 497.0703125 -729.98046875 l 497.0703125 -728.02734375 q 494.140625 -717.7734375 491.455078125 -702.63671875 q 488.76953125 -687.5 486.81640625 -665.0390625 q 484.86328125 -642.578125 483.88671875 -611.572265625 q 482.91015625 -580.56640625 482.91015625 -539.0625 l 482.91015625 -539.0625 l 482.91015625 -190.91796875 q 482.91015625 -149.4140625 483.88671875 -118.408203125 q 484.86328125 -87.40234375 486.81640625 -64.94140625 q 488.76953125 -42.48046875 491.455078125 -27.34375 q 494.140625 -12.20703125 497.0703125 -1.953125 l 497.0703125 -1.953125 l 497.0703125 0 l 383.7890625 0 l 383.7890625 -1.953125 q 386.71875 -12.20703125 389.404296875 -27.34375 q 392.08984375 -42.48046875 394.04296875 -64.94140625 q 395.99609375 -87.40234375 396.97265625 -118.408203125 q 397.94921875 -149.4140625 397.94921875 -190.91796875 l 397.94921875 -190.91796875"},"":{"ha":513,"x_min":61,"x_max":475,"o":"m 217.7734375 -394.04296875 l 210.9375 -407.2265625 q 248.53515625 -422.36328125 271.240234375 -445.556640625 q 293.9453125 -468.75 306.396484375 -493.65234375 q 318.84765625 -518.5546875 322.998046875 -541.50390625 q 327.1484375 -564.453125 327.1484375 -580.078125 l 327.1484375 -580.078125 q 327.1484375 -617.67578125 318.359375 -641.357421875 q 309.5703125 -665.0390625 296.38671875 -678.22265625 q 283.203125 -691.40625 268.310546875 -696.2890625 q 253.41796875 -701.171875 241.2109375 -701.171875 l 241.2109375 -701.171875 q 228.515625 -701.171875 214.35546875 -697.265625 q 200.1953125 -693.359375 188.232421875 -682.12890625 q 176.26953125 -670.8984375 168.212890625 -650.87890625 q 160.15625 -630.859375 160.15625 -598.14453125 l 160.15625 -598.14453125 l 160.15625 -190.91796875 q 160.15625 -149.4140625 161.1328125 -118.408203125 q 162.109375 -87.40234375 164.0625 -64.94140625 q 166.015625 -42.48046875 168.45703125 -27.34375 q 170.8984375 -12.20703125 173.828125 -1.953125 l 173.828125 -1.953125 l 173.828125 0 l 61.03515625 0 l 61.03515625 -1.953125 q 63.96484375 -12.20703125 66.650390625 -27.34375 q 69.3359375 -42.48046875 71.044921875 -64.94140625 q 72.75390625 -87.40234375 73.974609375 -118.408203125 q 75.1953125 -149.4140625 75.1953125 -190.91796875 l 75.1953125 -190.91796875 l 75.1953125 -582.03125 q 75.1953125 -619.62890625 87.158203125 -648.681640625 q 99.12109375 -677.734375 121.58203125 -697.509765625 q 144.04296875 -717.28515625 176.7578125 -727.5390625 q 209.47265625 -737.79296875 250.9765625 -737.79296875 l 250.9765625 -737.79296875 q 278.3203125 -737.79296875 307.861328125 -729.4921875 q 337.40234375 -721.19140625 361.81640625 -702.1484375 q 386.23046875 -683.10546875 402.099609375 -652.34375 q 417.96875 -621.58203125 417.96875 -577.1484375 l 417.96875 -577.1484375 q 417.96875 -554.6875 410.15625 -532.2265625 q 402.34375 -509.765625 385.986328125 -488.525390625 q 369.62890625 -467.28515625 343.75 -448.2421875 q 317.87109375 -429.19921875 282.2265625 -414.0625 l 282.2265625 -414.0625 q 319.3359375 -409.66796875 354.248046875 -394.775390625 q 389.16015625 -379.8828125 416.015625 -354.248046875 q 442.87109375 -328.61328125 458.984375 -291.259765625 q 475.09765625 -253.90625 475.09765625 -204.1015625 l 475.09765625 -204.1015625 q 475.09765625 -162.109375 460.693359375 -123.779296875 q 446.2890625 -85.44921875 416.259765625 -55.908203125 q 386.23046875 -26.3671875 340.33203125 -8.7890625 q 294.43359375 8.7890625 230.95703125 8.7890625 l 230.95703125 8.7890625 l 224.12109375 -6.8359375 q 261.23046875 -6.8359375 289.794921875 -20.5078125 q 318.359375 -34.1796875 337.646484375 -59.326171875 q 356.93359375 -84.47265625 366.943359375 -120.1171875 q 376.953125 -155.76171875 376.953125 -200.1953125 l 376.953125 -200.1953125 q 376.953125 -242.67578125 365.966796875 -278.076171875 q 354.98046875 -313.4765625 334.47265625 -339.35546875 q 313.96484375 -365.234375 284.423828125 -379.638671875 q 254.8828125 -394.04296875 217.7734375 -394.04296875 l 217.7734375 -394.04296875"},"":{"ha":678,"x_min":-10,"x_max":688,"o":"m 687.98828125 0 l 554.19921875 0 l 554.19921875 -1.953125 q 555.17578125 -4.39453125 555.6640625 -9.27734375 q 556.15234375 -14.16015625 556.15234375 -18.06640625 l 556.15234375 -18.06640625 q 556.15234375 -33.203125 552.001953125 -51.513671875 q 547.8515625 -69.82421875 536.1328125 -97.16796875 l 536.1328125 -97.16796875 l 477.05078125 -229.98046875 q 449.70703125 -230.95703125 404.296875 -230.95703125 q 358.88671875 -230.95703125 306.15234375 -230.95703125 l 306.15234375 -230.95703125 q 267.578125 -230.95703125 231.689453125 -230.95703125 q 195.80078125 -230.95703125 166.9921875 -229.98046875 l 166.9921875 -229.98046875 l 110.83984375 -101.07421875 q 103.515625 -83.0078125 95.21484375 -61.5234375 q 86.9140625 -40.0390625 86.9140625 -18.06640625 l 86.9140625 -18.06640625 q 86.9140625 -11.71875 87.890625 -7.568359375 q 88.8671875 -3.41796875 89.84375 -1.953125 l 89.84375 -1.953125 l 89.84375 0 l -9.765625 0 l -9.765625 -1.953125 q -0.9765625 -11.23046875 12.20703125 -34.912109375 q 25.390625 -58.59375 41.015625 -94.23828125 l 41.015625 -94.23828125 l 320.80078125 -714.84375 l 359.86328125 -714.84375 l 625 -118.1640625 q 634.27734375 -97.16796875 644.287109375 -77.392578125 q 654.296875 -57.6171875 663.0859375 -41.9921875 q 671.875 -26.3671875 678.7109375 -15.625 q 685.546875 -4.8828125 687.98828125 -1.953125 l 687.98828125 -1.953125 l 687.98828125 0 m 185.05859375 -272.94921875 l 237.79296875 -272.94921875 q 266.11328125 -272.94921875 295.8984375 -273.193359375 q 325.68359375 -273.4375 354.248046875 -273.681640625 q 382.8125 -273.92578125 409.1796875 -274.169921875 q 435.546875 -274.4140625 457.03125 -274.90234375 l 457.03125 -274.90234375 l 319.82421875 -584.9609375 l 185.05859375 -272.94921875 m 176.26953125 -845.21484375 l 221.19140625 -921.38671875 q 249.0234375 -895.5078125 279.296875 -870.1171875 l 279.296875 -870.1171875 q 305.17578125 -848.14453125 337.158203125 -823.2421875 q 369.140625 -798.33984375 400.87890625 -777.34375 l 400.87890625 -777.34375 l 390.13671875 -759.27734375 q 373.046875 -768.06640625 354.98046875 -776.123046875 q 336.9140625 -784.1796875 318.603515625 -791.9921875 q 300.29296875 -799.8046875 282.71484375 -806.640625 q 265.13671875 -813.4765625 249.51171875 -819.3359375 l 249.51171875 -819.3359375 q 211.9140625 -833.0078125 176.26953125 -845.21484375 l 176.26953125 -845.21484375"},"":{"ha":517,"x_min":36,"x_max":459,"o":"m 36.1328125 -144.04296875 l 36.1328125 -144.04296875 q 36.1328125 -182.6171875 52.001953125 -210.9375 q 67.87109375 -239.2578125 94.23828125 -259.27734375 q 120.60546875 -279.296875 154.296875 -291.748046875 q 187.98828125 -304.19921875 224.12109375 -311.279296875 q 260.25390625 -318.359375 295.41015625 -321.044921875 q 330.56640625 -323.73046875 359.86328125 -324.21875 l 359.86328125 -324.21875 l 359.86328125 -349.12109375 q 359.86328125 -381.34765625 351.5625 -404.78515625 q 343.26171875 -428.22265625 328.125 -443.603515625 q 312.98828125 -458.984375 291.748046875 -466.552734375 q 270.5078125 -474.12109375 245.1171875 -474.12109375 l 245.1171875 -474.12109375 q 227.5390625 -474.12109375 210.44921875 -471.19140625 q 193.359375 -468.26171875 175.048828125 -461.42578125 q 156.73828125 -454.58984375 136.474609375 -442.87109375 q 116.2109375 -431.15234375 92.7734375 -413.0859375 l 92.7734375 -413.0859375 l 87.890625 -416.015625 l 121.09375 -484.86328125 q 137.20703125 -492.1875 152.83203125 -496.826171875 q 168.45703125 -501.46484375 184.5703125 -504.39453125 q 200.68359375 -507.32421875 217.529296875 -508.544921875 q 234.375 -509.765625 252.9296875 -509.765625 l 252.9296875 -509.765625 q 304.19921875 -509.765625 340.576171875 -497.314453125 q 376.953125 -484.86328125 400.146484375 -463.134765625 q 423.33984375 -441.40625 434.08203125 -412.353515625 q 444.82421875 -383.30078125 444.82421875 -350.09765625 l 444.82421875 -350.09765625 l 444.82421875 -190.91796875 q 444.82421875 -149.4140625 446.044921875 -118.408203125 q 447.265625 -87.40234375 448.974609375 -64.94140625 q 450.68359375 -42.48046875 453.369140625 -27.34375 q 456.0546875 -12.20703125 458.984375 -1.953125 l 458.984375 -1.953125 l 458.984375 0 l 351.07421875 0 l 351.07421875 -1.953125 q 353.515625 -9.765625 354.736328125 -19.53125 q 355.95703125 -29.296875 356.93359375 -42.96875 l 356.93359375 -42.96875 q 346.6796875 -34.1796875 332.763671875 -24.90234375 q 318.84765625 -15.625 301.025390625 -8.056640625 q 283.203125 -0.48828125 261.474609375 4.150390625 q 239.74609375 8.7890625 213.8671875 8.7890625 l 213.8671875 8.7890625 q 128.90625 8.7890625 82.51953125 -31.005859375 q 36.1328125 -70.80078125 36.1328125 -144.04296875 m 359.86328125 -190.91796875 l 359.86328125 -286.1328125 q 315.4296875 -285.64453125 274.4140625 -281.005859375 q 233.3984375 -276.3671875 201.904296875 -261.71875 q 170.41015625 -247.0703125 151.611328125 -219.970703125 q 132.8125 -192.87109375 132.8125 -147.94921875 l 132.8125 -147.94921875 q 132.8125 -90.33203125 161.62109375 -60.05859375 q 190.4296875 -29.78515625 241.2109375 -29.78515625 l 241.2109375 -29.78515625 q 264.6484375 -29.78515625 283.935546875 -36.376953125 q 303.22265625 -42.96875 318.115234375 -52.978515625 q 333.0078125 -62.98828125 343.26171875 -74.951171875 q 353.515625 -86.9140625 358.88671875 -98.14453125 l 358.88671875 -98.14453125 q 359.86328125 -116.69921875 359.86328125 -139.404296875 q 359.86328125 -162.109375 359.86328125 -190.91796875 l 359.86328125 -190.91796875 m 95.703125 -645.01953125 l 140.625 -721.19140625 q 168.45703125 -695.3125 198.73046875 -669.921875 l 198.73046875 -669.921875 q 224.609375 -647.94921875 256.591796875 -623.046875 q 288.57421875 -598.14453125 320.3125 -577.1484375 l 320.3125 -577.1484375 l 309.5703125 -559.08203125 q 292.48046875 -567.87109375 274.4140625 -575.927734375 q 256.34765625 -583.984375 238.037109375 -591.796875 q 219.7265625 -599.609375 202.1484375 -606.4453125 q 184.5703125 -613.28125 168.9453125 -619.140625 l 168.9453125 -619.140625 q 131.34765625 -632.8125 95.703125 -645.01953125 l 95.703125 -645.01953125"},"":{"ha":678,"x_min":-10,"x_max":688,"o":"m 687.98828125 0 l 554.19921875 0 l 554.19921875 -1.953125 q 555.17578125 -4.39453125 555.6640625 -9.27734375 q 556.15234375 -14.16015625 556.15234375 -18.06640625 l 556.15234375 -18.06640625 q 556.15234375 -33.203125 552.001953125 -51.513671875 q 547.8515625 -69.82421875 536.1328125 -97.16796875 l 536.1328125 -97.16796875 l 477.05078125 -229.98046875 q 449.70703125 -230.95703125 404.296875 -230.95703125 q 358.88671875 -230.95703125 306.15234375 -230.95703125 l 306.15234375 -230.95703125 q 267.578125 -230.95703125 231.689453125 -230.95703125 q 195.80078125 -230.95703125 166.9921875 -229.98046875 l 166.9921875 -229.98046875 l 110.83984375 -101.07421875 q 103.515625 -83.0078125 95.21484375 -61.5234375 q 86.9140625 -40.0390625 86.9140625 -18.06640625 l 86.9140625 -18.06640625 q 86.9140625 -11.71875 87.890625 -7.568359375 q 88.8671875 -3.41796875 89.84375 -1.953125 l 89.84375 -1.953125 l 89.84375 0 l -9.765625 0 l -9.765625 -1.953125 q -0.9765625 -11.23046875 12.20703125 -34.912109375 q 25.390625 -58.59375 41.015625 -94.23828125 l 41.015625 -94.23828125 l 320.80078125 -714.84375 l 359.86328125 -714.84375 l 625 -118.1640625 q 634.27734375 -97.16796875 644.287109375 -77.392578125 q 654.296875 -57.6171875 663.0859375 -41.9921875 q 671.875 -26.3671875 678.7109375 -15.625 q 685.546875 -4.8828125 687.98828125 -1.953125 l 687.98828125 -1.953125 l 687.98828125 0 m 185.05859375 -272.94921875 l 237.79296875 -272.94921875 q 266.11328125 -272.94921875 295.8984375 -273.193359375 q 325.68359375 -273.4375 354.248046875 -273.681640625 q 382.8125 -273.92578125 409.1796875 -274.169921875 q 435.546875 -274.4140625 457.03125 -274.90234375 l 457.03125 -274.90234375 l 319.82421875 -584.9609375 l 185.05859375 -272.94921875 m 456.0546875 -921.38671875 l 500.9765625 -845.21484375 q 464.84375 -833.0078125 427.734375 -819.3359375 l 427.734375 -819.3359375 q 411.62109375 -813.4765625 394.04296875 -806.640625 q 376.46484375 -799.8046875 358.3984375 -791.9921875 q 340.33203125 -784.1796875 322.021484375 -776.123046875 q 303.7109375 -768.06640625 287.109375 -759.27734375 l 287.109375 -759.27734375 l 276.3671875 -777.34375 q 308.10546875 -798.33984375 339.599609375 -823.2421875 q 371.09375 -848.14453125 397.4609375 -870.1171875 l 397.4609375 -870.1171875 q 427.734375 -895.5078125 456.0546875 -921.38671875 l 456.0546875 -921.38671875"},"":{"ha":517,"x_min":36,"x_max":459,"o":"m 36.1328125 -144.04296875 l 36.1328125 -144.04296875 q 36.1328125 -182.6171875 52.001953125 -210.9375 q 67.87109375 -239.2578125 94.23828125 -259.27734375 q 120.60546875 -279.296875 154.296875 -291.748046875 q 187.98828125 -304.19921875 224.12109375 -311.279296875 q 260.25390625 -318.359375 295.41015625 -321.044921875 q 330.56640625 -323.73046875 359.86328125 -324.21875 l 359.86328125 -324.21875 l 359.86328125 -349.12109375 q 359.86328125 -381.34765625 351.5625 -404.78515625 q 343.26171875 -428.22265625 328.125 -443.603515625 q 312.98828125 -458.984375 291.748046875 -466.552734375 q 270.5078125 -474.12109375 245.1171875 -474.12109375 l 245.1171875 -474.12109375 q 227.5390625 -474.12109375 210.44921875 -471.19140625 q 193.359375 -468.26171875 175.048828125 -461.42578125 q 156.73828125 -454.58984375 136.474609375 -442.87109375 q 116.2109375 -431.15234375 92.7734375 -413.0859375 l 92.7734375 -413.0859375 l 87.890625 -416.015625 l 121.09375 -484.86328125 q 137.20703125 -492.1875 152.83203125 -496.826171875 q 168.45703125 -501.46484375 184.5703125 -504.39453125 q 200.68359375 -507.32421875 217.529296875 -508.544921875 q 234.375 -509.765625 252.9296875 -509.765625 l 252.9296875 -509.765625 q 304.19921875 -509.765625 340.576171875 -497.314453125 q 376.953125 -484.86328125 400.146484375 -463.134765625 q 423.33984375 -441.40625 434.08203125 -412.353515625 q 444.82421875 -383.30078125 444.82421875 -350.09765625 l 444.82421875 -350.09765625 l 444.82421875 -190.91796875 q 444.82421875 -149.4140625 446.044921875 -118.408203125 q 447.265625 -87.40234375 448.974609375 -64.94140625 q 450.68359375 -42.48046875 453.369140625 -27.34375 q 456.0546875 -12.20703125 458.984375 -1.953125 l 458.984375 -1.953125 l 458.984375 0 l 351.07421875 0 l 351.07421875 -1.953125 q 353.515625 -9.765625 354.736328125 -19.53125 q 355.95703125 -29.296875 356.93359375 -42.96875 l 356.93359375 -42.96875 q 346.6796875 -34.1796875 332.763671875 -24.90234375 q 318.84765625 -15.625 301.025390625 -8.056640625 q 283.203125 -0.48828125 261.474609375 4.150390625 q 239.74609375 8.7890625 213.8671875 8.7890625 l 213.8671875 8.7890625 q 128.90625 8.7890625 82.51953125 -31.005859375 q 36.1328125 -70.80078125 36.1328125 -144.04296875 m 359.86328125 -190.91796875 l 359.86328125 -286.1328125 q 315.4296875 -285.64453125 274.4140625 -281.005859375 q 233.3984375 -276.3671875 201.904296875 -261.71875 q 170.41015625 -247.0703125 151.611328125 -219.970703125 q 132.8125 -192.87109375 132.8125 -147.94921875 l 132.8125 -147.94921875 q 132.8125 -90.33203125 161.62109375 -60.05859375 q 190.4296875 -29.78515625 241.2109375 -29.78515625 l 241.2109375 -29.78515625 q 264.6484375 -29.78515625 283.935546875 -36.376953125 q 303.22265625 -42.96875 318.115234375 -52.978515625 q 333.0078125 -62.98828125 343.26171875 -74.951171875 q 353.515625 -86.9140625 358.88671875 -98.14453125 l 358.88671875 -98.14453125 q 359.86328125 -116.69921875 359.86328125 -139.404296875 q 359.86328125 -162.109375 359.86328125 -190.91796875 l 359.86328125 -190.91796875 m 375.9765625 -721.19140625 l 420.8984375 -645.01953125 q 384.765625 -632.8125 347.65625 -619.140625 l 347.65625 -619.140625 q 331.54296875 -613.28125 313.96484375 -606.4453125 q 296.38671875 -599.609375 278.3203125 -591.796875 q 260.25390625 -583.984375 241.943359375 -575.927734375 q 223.6328125 -567.87109375 207.03125 -559.08203125 l 207.03125 -559.08203125 l 196.2890625 -577.1484375 q 228.02734375 -598.14453125 259.521484375 -623.046875 q 291.015625 -647.94921875 317.3828125 -669.921875 l 317.3828125 -669.921875 q 347.65625 -695.3125 375.9765625 -721.19140625 l 375.9765625 -721.19140625"},"":{"ha":678,"x_min":-10,"x_max":688,"o":"m 687.98828125 0 l 554.19921875 0 l 554.19921875 -1.953125 q 555.17578125 -4.39453125 555.6640625 -9.27734375 q 556.15234375 -14.16015625 556.15234375 -18.06640625 l 556.15234375 -18.06640625 q 556.15234375 -33.203125 552.001953125 -51.513671875 q 547.8515625 -69.82421875 536.1328125 -97.16796875 l 536.1328125 -97.16796875 l 477.05078125 -229.98046875 q 449.70703125 -230.95703125 404.296875 -230.95703125 q 358.88671875 -230.95703125 306.15234375 -230.95703125 l 306.15234375 -230.95703125 q 267.578125 -230.95703125 231.689453125 -230.95703125 q 195.80078125 -230.95703125 166.9921875 -229.98046875 l 166.9921875 -229.98046875 l 110.83984375 -101.07421875 q 103.515625 -83.0078125 95.21484375 -61.5234375 q 86.9140625 -40.0390625 86.9140625 -18.06640625 l 86.9140625 -18.06640625 q 86.9140625 -11.71875 87.890625 -7.568359375 q 88.8671875 -3.41796875 89.84375 -1.953125 l 89.84375 -1.953125 l 89.84375 0 l -9.765625 0 l -9.765625 -1.953125 q -0.9765625 -11.23046875 12.20703125 -34.912109375 q 25.390625 -58.59375 41.015625 -94.23828125 l 41.015625 -94.23828125 l 320.80078125 -714.84375 l 359.86328125 -714.84375 l 625 -118.1640625 q 634.27734375 -97.16796875 644.287109375 -77.392578125 q 654.296875 -57.6171875 663.0859375 -41.9921875 q 671.875 -26.3671875 678.7109375 -15.625 q 685.546875 -4.8828125 687.98828125 -1.953125 l 687.98828125 -1.953125 l 687.98828125 0 m 185.05859375 -272.94921875 l 237.79296875 -272.94921875 q 266.11328125 -272.94921875 295.8984375 -273.193359375 q 325.68359375 -273.4375 354.248046875 -273.681640625 q 382.8125 -273.92578125 409.1796875 -274.169921875 q 435.546875 -274.4140625 457.03125 -274.90234375 l 457.03125 -274.90234375 l 319.82421875 -584.9609375 l 185.05859375 -272.94921875 m 338.8671875 -921.38671875 l 338.8671875 -921.38671875 q 367.1875 -895.5078125 397.4609375 -870.1171875 l 397.4609375 -870.1171875 q 423.828125 -848.14453125 455.56640625 -823.2421875 q 487.3046875 -798.33984375 519.04296875 -777.34375 l 519.04296875 -777.34375 l 507.8125 -759.27734375 q 486.81640625 -769.53125 463.8671875 -780.517578125 q 440.91796875 -791.50390625 418.701171875 -801.7578125 q 396.484375 -812.01171875 375.9765625 -820.556640625 q 355.46875 -829.1015625 338.8671875 -834.9609375 l 338.8671875 -834.9609375 q 322.265625 -829.1015625 302.001953125 -820.556640625 q 281.73828125 -812.01171875 259.521484375 -802.001953125 q 237.3046875 -791.9921875 214.35546875 -781.005859375 q 191.40625 -770.01953125 169.921875 -759.27734375 l 169.921875 -759.27734375 l 158.69140625 -777.34375 q 190.4296875 -798.33984375 222.16796875 -823.2421875 q 253.90625 -848.14453125 280.2734375 -870.1171875 l 280.2734375 -870.1171875 q 310.546875 -895.5078125 338.8671875 -921.38671875"},"":{"ha":517,"x_min":36,"x_max":459,"o":"m 36.1328125 -144.04296875 l 36.1328125 -144.04296875 q 36.1328125 -182.6171875 52.001953125 -210.9375 q 67.87109375 -239.2578125 94.23828125 -259.27734375 q 120.60546875 -279.296875 154.296875 -291.748046875 q 187.98828125 -304.19921875 224.12109375 -311.279296875 q 260.25390625 -318.359375 295.41015625 -321.044921875 q 330.56640625 -323.73046875 359.86328125 -324.21875 l 359.86328125 -324.21875 l 359.86328125 -349.12109375 q 359.86328125 -381.34765625 351.5625 -404.78515625 q 343.26171875 -428.22265625 328.125 -443.603515625 q 312.98828125 -458.984375 291.748046875 -466.552734375 q 270.5078125 -474.12109375 245.1171875 -474.12109375 l 245.1171875 -474.12109375 q 227.5390625 -474.12109375 210.44921875 -471.19140625 q 193.359375 -468.26171875 175.048828125 -461.42578125 q 156.73828125 -454.58984375 136.474609375 -442.87109375 q 116.2109375 -431.15234375 92.7734375 -413.0859375 l 92.7734375 -413.0859375 l 87.890625 -416.015625 l 121.09375 -484.86328125 q 137.20703125 -492.1875 152.83203125 -496.826171875 q 168.45703125 -501.46484375 184.5703125 -504.39453125 q 200.68359375 -507.32421875 217.529296875 -508.544921875 q 234.375 -509.765625 252.9296875 -509.765625 l 252.9296875 -509.765625 q 304.19921875 -509.765625 340.576171875 -497.314453125 q 376.953125 -484.86328125 400.146484375 -463.134765625 q 423.33984375 -441.40625 434.08203125 -412.353515625 q 444.82421875 -383.30078125 444.82421875 -350.09765625 l 444.82421875 -350.09765625 l 444.82421875 -190.91796875 q 444.82421875 -149.4140625 446.044921875 -118.408203125 q 447.265625 -87.40234375 448.974609375 -64.94140625 q 450.68359375 -42.48046875 453.369140625 -27.34375 q 456.0546875 -12.20703125 458.984375 -1.953125 l 458.984375 -1.953125 l 458.984375 0 l 351.07421875 0 l 351.07421875 -1.953125 q 353.515625 -9.765625 354.736328125 -19.53125 q 355.95703125 -29.296875 356.93359375 -42.96875 l 356.93359375 -42.96875 q 346.6796875 -34.1796875 332.763671875 -24.90234375 q 318.84765625 -15.625 301.025390625 -8.056640625 q 283.203125 -0.48828125 261.474609375 4.150390625 q 239.74609375 8.7890625 213.8671875 8.7890625 l 213.8671875 8.7890625 q 128.90625 8.7890625 82.51953125 -31.005859375 q 36.1328125 -70.80078125 36.1328125 -144.04296875 m 359.86328125 -190.91796875 l 359.86328125 -286.1328125 q 315.4296875 -285.64453125 274.4140625 -281.005859375 q 233.3984375 -276.3671875 201.904296875 -261.71875 q 170.41015625 -247.0703125 151.611328125 -219.970703125 q 132.8125 -192.87109375 132.8125 -147.94921875 l 132.8125 -147.94921875 q 132.8125 -90.33203125 161.62109375 -60.05859375 q 190.4296875 -29.78515625 241.2109375 -29.78515625 l 241.2109375 -29.78515625 q 264.6484375 -29.78515625 283.935546875 -36.376953125 q 303.22265625 -42.96875 318.115234375 -52.978515625 q 333.0078125 -62.98828125 343.26171875 -74.951171875 q 353.515625 -86.9140625 358.88671875 -98.14453125 l 358.88671875 -98.14453125 q 359.86328125 -116.69921875 359.86328125 -139.404296875 q 359.86328125 -162.109375 359.86328125 -190.91796875 l 359.86328125 -190.91796875 m 268.06640625 -721.19140625 l 268.06640625 -721.19140625 q 296.38671875 -695.3125 326.66015625 -669.921875 l 326.66015625 -669.921875 q 353.02734375 -647.94921875 384.765625 -623.046875 q 416.50390625 -598.14453125 448.2421875 -577.1484375 l 448.2421875 -577.1484375 l 437.01171875 -559.08203125 q 416.015625 -569.3359375 393.06640625 -580.322265625 q 370.1171875 -591.30859375 347.900390625 -601.5625 q 325.68359375 -611.81640625 305.17578125 -620.361328125 q 284.66796875 -628.90625 268.06640625 -634.765625 l 268.06640625 -634.765625 q 251.46484375 -628.90625 231.201171875 -620.361328125 q 210.9375 -611.81640625 188.720703125 -601.806640625 q 166.50390625 -591.796875 143.5546875 -580.810546875 q 120.60546875 -569.82421875 99.12109375 -559.08203125 l 99.12109375 -559.08203125 l 87.890625 -577.1484375 q 119.62890625 -598.14453125 151.3671875 -623.046875 q 183.10546875 -647.94921875 209.47265625 -669.921875 l 209.47265625 -669.921875 q 239.74609375 -695.3125 268.06640625 -721.19140625"},"":{"ha":678,"x_min":-10,"x_max":688,"o":"m 687.98828125 0 l 554.19921875 0 l 554.19921875 -1.953125 q 555.17578125 -4.39453125 555.6640625 -9.27734375 q 556.15234375 -14.16015625 556.15234375 -18.06640625 l 556.15234375 -18.06640625 q 556.15234375 -33.203125 552.001953125 -51.513671875 q 547.8515625 -69.82421875 536.1328125 -97.16796875 l 536.1328125 -97.16796875 l 477.05078125 -229.98046875 q 449.70703125 -230.95703125 404.296875 -230.95703125 q 358.88671875 -230.95703125 306.15234375 -230.95703125 l 306.15234375 -230.95703125 q 267.578125 -230.95703125 231.689453125 -230.95703125 q 195.80078125 -230.95703125 166.9921875 -229.98046875 l 166.9921875 -229.98046875 l 110.83984375 -101.07421875 q 103.515625 -83.0078125 95.21484375 -61.5234375 q 86.9140625 -40.0390625 86.9140625 -18.06640625 l 86.9140625 -18.06640625 q 86.9140625 -11.71875 87.890625 -7.568359375 q 88.8671875 -3.41796875 89.84375 -1.953125 l 89.84375 -1.953125 l 89.84375 0 l -9.765625 0 l -9.765625 -1.953125 q -0.9765625 -11.23046875 12.20703125 -34.912109375 q 25.390625 -58.59375 41.015625 -94.23828125 l 41.015625 -94.23828125 l 320.80078125 -714.84375 l 359.86328125 -714.84375 l 625 -118.1640625 q 634.27734375 -97.16796875 644.287109375 -77.392578125 q 654.296875 -57.6171875 663.0859375 -41.9921875 q 671.875 -26.3671875 678.7109375 -15.625 q 685.546875 -4.8828125 687.98828125 -1.953125 l 687.98828125 -1.953125 l 687.98828125 0 m 185.05859375 -272.94921875 l 237.79296875 -272.94921875 q 266.11328125 -272.94921875 295.8984375 -273.193359375 q 325.68359375 -273.4375 354.248046875 -273.681640625 q 382.8125 -273.92578125 409.1796875 -274.169921875 q 435.546875 -274.4140625 457.03125 -274.90234375 l 457.03125 -274.90234375 l 319.82421875 -584.9609375 l 185.05859375 -272.94921875 m 481.93359375 -881.34765625 l 481.93359375 -881.34765625 q 470.703125 -860.3515625 460.9375 -844.970703125 q 451.171875 -829.58984375 440.91796875 -819.3359375 q 430.6640625 -809.08203125 418.701171875 -804.19921875 q 406.73828125 -799.31640625 392.08984375 -799.31640625 l 392.08984375 -799.31640625 q 379.39453125 -799.31640625 361.81640625 -804.931640625 q 344.23828125 -810.546875 325.68359375 -817.138671875 q 307.12890625 -823.73046875 290.52734375 -829.345703125 q 273.92578125 -834.9609375 263.671875 -834.9609375 l 263.671875 -834.9609375 q 246.58203125 -834.9609375 233.88671875 -826.171875 q 221.19140625 -817.3828125 208.984375 -796.38671875 l 208.984375 -796.38671875 l 194.82421875 -804.19921875 q 205.56640625 -825.1953125 215.33203125 -840.576171875 q 225.09765625 -855.95703125 235.595703125 -866.2109375 q 246.09375 -876.46484375 257.8125 -881.34765625 q 269.53125 -886.23046875 284.66796875 -886.23046875 l 284.66796875 -886.23046875 q 296.875 -886.23046875 314.697265625 -880.615234375 q 332.51953125 -875 351.07421875 -868.1640625 q 369.62890625 -861.328125 386.23046875 -855.712890625 q 402.83203125 -850.09765625 413.0859375 -850.09765625 l 413.0859375 -850.09765625 q 430.17578125 -850.09765625 442.87109375 -859.130859375 q 455.56640625 -868.1640625 467.7734375 -889.16015625 l 467.7734375 -889.16015625 l 481.93359375 -881.34765625"},"":{"ha":517,"x_min":36,"x_max":459,"o":"m 36.1328125 -144.04296875 l 36.1328125 -144.04296875 q 36.1328125 -182.6171875 52.001953125 -210.9375 q 67.87109375 -239.2578125 94.23828125 -259.27734375 q 120.60546875 -279.296875 154.296875 -291.748046875 q 187.98828125 -304.19921875 224.12109375 -311.279296875 q 260.25390625 -318.359375 295.41015625 -321.044921875 q 330.56640625 -323.73046875 359.86328125 -324.21875 l 359.86328125 -324.21875 l 359.86328125 -349.12109375 q 359.86328125 -381.34765625 351.5625 -404.78515625 q 343.26171875 -428.22265625 328.125 -443.603515625 q 312.98828125 -458.984375 291.748046875 -466.552734375 q 270.5078125 -474.12109375 245.1171875 -474.12109375 l 245.1171875 -474.12109375 q 227.5390625 -474.12109375 210.44921875 -471.19140625 q 193.359375 -468.26171875 175.048828125 -461.42578125 q 156.73828125 -454.58984375 136.474609375 -442.87109375 q 116.2109375 -431.15234375 92.7734375 -413.0859375 l 92.7734375 -413.0859375 l 87.890625 -416.015625 l 121.09375 -484.86328125 q 137.20703125 -492.1875 152.83203125 -496.826171875 q 168.45703125 -501.46484375 184.5703125 -504.39453125 q 200.68359375 -507.32421875 217.529296875 -508.544921875 q 234.375 -509.765625 252.9296875 -509.765625 l 252.9296875 -509.765625 q 304.19921875 -509.765625 340.576171875 -497.314453125 q 376.953125 -484.86328125 400.146484375 -463.134765625 q 423.33984375 -441.40625 434.08203125 -412.353515625 q 444.82421875 -383.30078125 444.82421875 -350.09765625 l 444.82421875 -350.09765625 l 444.82421875 -190.91796875 q 444.82421875 -149.4140625 446.044921875 -118.408203125 q 447.265625 -87.40234375 448.974609375 -64.94140625 q 450.68359375 -42.48046875 453.369140625 -27.34375 q 456.0546875 -12.20703125 458.984375 -1.953125 l 458.984375 -1.953125 l 458.984375 0 l 351.07421875 0 l 351.07421875 -1.953125 q 353.515625 -9.765625 354.736328125 -19.53125 q 355.95703125 -29.296875 356.93359375 -42.96875 l 356.93359375 -42.96875 q 346.6796875 -34.1796875 332.763671875 -24.90234375 q 318.84765625 -15.625 301.025390625 -8.056640625 q 283.203125 -0.48828125 261.474609375 4.150390625 q 239.74609375 8.7890625 213.8671875 8.7890625 l 213.8671875 8.7890625 q 128.90625 8.7890625 82.51953125 -31.005859375 q 36.1328125 -70.80078125 36.1328125 -144.04296875 m 359.86328125 -190.91796875 l 359.86328125 -286.1328125 q 315.4296875 -285.64453125 274.4140625 -281.005859375 q 233.3984375 -276.3671875 201.904296875 -261.71875 q 170.41015625 -247.0703125 151.611328125 -219.970703125 q 132.8125 -192.87109375 132.8125 -147.94921875 l 132.8125 -147.94921875 q 132.8125 -90.33203125 161.62109375 -60.05859375 q 190.4296875 -29.78515625 241.2109375 -29.78515625 l 241.2109375 -29.78515625 q 264.6484375 -29.78515625 283.935546875 -36.376953125 q 303.22265625 -42.96875 318.115234375 -52.978515625 q 333.0078125 -62.98828125 343.26171875 -74.951171875 q 353.515625 -86.9140625 358.88671875 -98.14453125 l 358.88671875 -98.14453125 q 359.86328125 -116.69921875 359.86328125 -139.404296875 q 359.86328125 -162.109375 359.86328125 -190.91796875 l 359.86328125 -190.91796875 m 412.109375 -681.15234375 l 412.109375 -681.15234375 q 400.87890625 -660.15625 391.11328125 -644.775390625 q 381.34765625 -629.39453125 371.09375 -619.140625 q 360.83984375 -608.88671875 348.876953125 -604.00390625 q 336.9140625 -599.12109375 322.265625 -599.12109375 l 322.265625 -599.12109375 q 309.5703125 -599.12109375 291.9921875 -604.736328125 q 274.4140625 -610.3515625 255.859375 -616.943359375 q 237.3046875 -623.53515625 220.703125 -629.150390625 q 204.1015625 -634.765625 193.84765625 -634.765625 l 193.84765625 -634.765625 q 176.7578125 -634.765625 164.0625 -625.9765625 q 151.3671875 -617.1875 139.16015625 -596.19140625 l 139.16015625 -596.19140625 l 125 -604.00390625 q 135.7421875 -625 145.5078125 -640.380859375 q 155.2734375 -655.76171875 165.771484375 -666.015625 q 176.26953125 -676.26953125 187.98828125 -681.15234375 q 199.70703125 -686.03515625 214.84375 -686.03515625 l 214.84375 -686.03515625 q 227.05078125 -686.03515625 244.873046875 -680.419921875 q 262.6953125 -674.8046875 281.25 -667.96875 q 299.8046875 -661.1328125 316.40625 -655.517578125 q 333.0078125 -649.90234375 343.26171875 -649.90234375 l 343.26171875 -649.90234375 q 360.3515625 -649.90234375 373.046875 -658.935546875 q 385.7421875 -667.96875 397.94921875 -688.96484375 l 397.94921875 -688.96484375 l 412.109375 -681.15234375"},"":{"ha":678,"x_min":-10,"x_max":688,"o":"m 687.98828125 0 l 554.19921875 0 l 554.19921875 -1.953125 q 555.17578125 -4.39453125 555.6640625 -9.27734375 q 556.15234375 -14.16015625 556.15234375 -18.06640625 l 556.15234375 -18.06640625 q 556.15234375 -33.203125 552.001953125 -51.513671875 q 547.8515625 -69.82421875 536.1328125 -97.16796875 l 536.1328125 -97.16796875 l 477.05078125 -229.98046875 q 449.70703125 -230.95703125 404.296875 -230.95703125 q 358.88671875 -230.95703125 306.15234375 -230.95703125 l 306.15234375 -230.95703125 q 267.578125 -230.95703125 231.689453125 -230.95703125 q 195.80078125 -230.95703125 166.9921875 -229.98046875 l 166.9921875 -229.98046875 l 110.83984375 -101.07421875 q 103.515625 -83.0078125 95.21484375 -61.5234375 q 86.9140625 -40.0390625 86.9140625 -18.06640625 l 86.9140625 -18.06640625 q 86.9140625 -11.71875 87.890625 -7.568359375 q 88.8671875 -3.41796875 89.84375 -1.953125 l 89.84375 -1.953125 l 89.84375 0 l -9.765625 0 l -9.765625 -1.953125 q -0.9765625 -11.23046875 12.20703125 -34.912109375 q 25.390625 -58.59375 41.015625 -94.23828125 l 41.015625 -94.23828125 l 320.80078125 -714.84375 l 359.86328125 -714.84375 l 625 -118.1640625 q 634.27734375 -97.16796875 644.287109375 -77.392578125 q 654.296875 -57.6171875 663.0859375 -41.9921875 q 671.875 -26.3671875 678.7109375 -15.625 q 685.546875 -4.8828125 687.98828125 -1.953125 l 687.98828125 -1.953125 l 687.98828125 0 m 185.05859375 -272.94921875 l 237.79296875 -272.94921875 q 266.11328125 -272.94921875 295.8984375 -273.193359375 q 325.68359375 -273.4375 354.248046875 -273.681640625 q 382.8125 -273.92578125 409.1796875 -274.169921875 q 435.546875 -274.4140625 457.03125 -274.90234375 l 457.03125 -274.90234375 l 319.82421875 -584.9609375 l 185.05859375 -272.94921875 m 204.1015625 -841.30859375 l 204.1015625 -841.30859375 q 204.1015625 -850.5859375 207.51953125 -858.88671875 q 210.9375 -867.1875 217.041015625 -873.291015625 q 223.14453125 -879.39453125 231.201171875 -882.8125 q 239.2578125 -886.23046875 249.0234375 -886.23046875 l 249.0234375 -886.23046875 q 258.30078125 -886.23046875 266.6015625 -882.8125 q 274.90234375 -879.39453125 281.005859375 -873.291015625 q 287.109375 -867.1875 290.52734375 -858.88671875 q 293.9453125 -850.5859375 293.9453125 -841.30859375 l 293.9453125 -841.30859375 q 293.9453125 -832.03125 290.52734375 -823.73046875 q 287.109375 -815.4296875 281.005859375 -809.326171875 q 274.90234375 -803.22265625 266.6015625 -799.8046875 q 258.30078125 -796.38671875 249.0234375 -796.38671875 l 249.0234375 -796.38671875 q 239.2578125 -796.38671875 231.201171875 -799.8046875 q 223.14453125 -803.22265625 217.041015625 -809.326171875 q 210.9375 -815.4296875 207.51953125 -823.73046875 q 204.1015625 -832.03125 204.1015625 -841.30859375 m 383.7890625 -841.30859375 l 383.7890625 -841.30859375 q 383.7890625 -850.5859375 387.20703125 -858.88671875 q 390.625 -867.1875 396.728515625 -873.291015625 q 402.83203125 -879.39453125 411.1328125 -882.8125 q 419.43359375 -886.23046875 428.7109375 -886.23046875 l 428.7109375 -886.23046875 q 437.98828125 -886.23046875 446.2890625 -882.8125 q 454.58984375 -879.39453125 460.693359375 -873.291015625 q 466.796875 -867.1875 470.21484375 -858.88671875 q 473.6328125 -850.5859375 473.6328125 -841.30859375 l 473.6328125 -841.30859375 q 473.6328125 -832.03125 470.21484375 -823.73046875 q 466.796875 -815.4296875 460.693359375 -809.326171875 q 454.58984375 -803.22265625 446.2890625 -799.8046875 q 437.98828125 -796.38671875 428.7109375 -796.38671875 l 428.7109375 -796.38671875 q 419.43359375 -796.38671875 411.1328125 -799.8046875 q 402.83203125 -803.22265625 396.728515625 -809.326171875 q 390.625 -815.4296875 387.20703125 -823.73046875 q 383.7890625 -832.03125 383.7890625 -841.30859375"},"":{"ha":517,"x_min":36,"x_max":459,"o":"m 36.1328125 -144.04296875 l 36.1328125 -144.04296875 q 36.1328125 -182.6171875 52.001953125 -210.9375 q 67.87109375 -239.2578125 94.23828125 -259.27734375 q 120.60546875 -279.296875 154.296875 -291.748046875 q 187.98828125 -304.19921875 224.12109375 -311.279296875 q 260.25390625 -318.359375 295.41015625 -321.044921875 q 330.56640625 -323.73046875 359.86328125 -324.21875 l 359.86328125 -324.21875 l 359.86328125 -349.12109375 q 359.86328125 -381.34765625 351.5625 -404.78515625 q 343.26171875 -428.22265625 328.125 -443.603515625 q 312.98828125 -458.984375 291.748046875 -466.552734375 q 270.5078125 -474.12109375 245.1171875 -474.12109375 l 245.1171875 -474.12109375 q 227.5390625 -474.12109375 210.44921875 -471.19140625 q 193.359375 -468.26171875 175.048828125 -461.42578125 q 156.73828125 -454.58984375 136.474609375 -442.87109375 q 116.2109375 -431.15234375 92.7734375 -413.0859375 l 92.7734375 -413.0859375 l 87.890625 -416.015625 l 121.09375 -484.86328125 q 137.20703125 -492.1875 152.83203125 -496.826171875 q 168.45703125 -501.46484375 184.5703125 -504.39453125 q 200.68359375 -507.32421875 217.529296875 -508.544921875 q 234.375 -509.765625 252.9296875 -509.765625 l 252.9296875 -509.765625 q 304.19921875 -509.765625 340.576171875 -497.314453125 q 376.953125 -484.86328125 400.146484375 -463.134765625 q 423.33984375 -441.40625 434.08203125 -412.353515625 q 444.82421875 -383.30078125 444.82421875 -350.09765625 l 444.82421875 -350.09765625 l 444.82421875 -190.91796875 q 444.82421875 -149.4140625 446.044921875 -118.408203125 q 447.265625 -87.40234375 448.974609375 -64.94140625 q 450.68359375 -42.48046875 453.369140625 -27.34375 q 456.0546875 -12.20703125 458.984375 -1.953125 l 458.984375 -1.953125 l 458.984375 0 l 351.07421875 0 l 351.07421875 -1.953125 q 353.515625 -9.765625 354.736328125 -19.53125 q 355.95703125 -29.296875 356.93359375 -42.96875 l 356.93359375 -42.96875 q 346.6796875 -34.1796875 332.763671875 -24.90234375 q 318.84765625 -15.625 301.025390625 -8.056640625 q 283.203125 -0.48828125 261.474609375 4.150390625 q 239.74609375 8.7890625 213.8671875 8.7890625 l 213.8671875 8.7890625 q 128.90625 8.7890625 82.51953125 -31.005859375 q 36.1328125 -70.80078125 36.1328125 -144.04296875 m 359.86328125 -190.91796875 l 359.86328125 -286.1328125 q 315.4296875 -285.64453125 274.4140625 -281.005859375 q 233.3984375 -276.3671875 201.904296875 -261.71875 q 170.41015625 -247.0703125 151.611328125 -219.970703125 q 132.8125 -192.87109375 132.8125 -147.94921875 l 132.8125 -147.94921875 q 132.8125 -90.33203125 161.62109375 -60.05859375 q 190.4296875 -29.78515625 241.2109375 -29.78515625 l 241.2109375 -29.78515625 q 264.6484375 -29.78515625 283.935546875 -36.376953125 q 303.22265625 -42.96875 318.115234375 -52.978515625 q 333.0078125 -62.98828125 343.26171875 -74.951171875 q 353.515625 -86.9140625 358.88671875 -98.14453125 l 358.88671875 -98.14453125 q 359.86328125 -116.69921875 359.86328125 -139.404296875 q 359.86328125 -162.109375 359.86328125 -190.91796875 l 359.86328125 -190.91796875 m 133.30078125 -641.11328125 l 133.30078125 -641.11328125 q 133.30078125 -650.390625 136.71875 -658.69140625 q 140.13671875 -666.9921875 146.240234375 -673.095703125 q 152.34375 -679.19921875 160.400390625 -682.6171875 q 168.45703125 -686.03515625 178.22265625 -686.03515625 l 178.22265625 -686.03515625 q 187.5 -686.03515625 195.80078125 -682.6171875 q 204.1015625 -679.19921875 210.205078125 -673.095703125 q 216.30859375 -666.9921875 219.7265625 -658.69140625 q 223.14453125 -650.390625 223.14453125 -641.11328125 l 223.14453125 -641.11328125 q 223.14453125 -631.8359375 219.7265625 -623.53515625 q 216.30859375 -615.234375 210.205078125 -609.130859375 q 204.1015625 -603.02734375 195.80078125 -599.609375 q 187.5 -596.19140625 178.22265625 -596.19140625 l 178.22265625 -596.19140625 q 168.45703125 -596.19140625 160.400390625 -599.609375 q 152.34375 -603.02734375 146.240234375 -609.130859375 q 140.13671875 -615.234375 136.71875 -623.53515625 q 133.30078125 -631.8359375 133.30078125 -641.11328125 m 312.98828125 -641.11328125 l 312.98828125 -641.11328125 q 312.98828125 -650.390625 316.40625 -658.69140625 q 319.82421875 -666.9921875 325.927734375 -673.095703125 q 332.03125 -679.19921875 340.33203125 -682.6171875 q 348.6328125 -686.03515625 357.91015625 -686.03515625 l 357.91015625 -686.03515625 q 367.1875 -686.03515625 375.48828125 -682.6171875 q 383.7890625 -679.19921875 389.892578125 -673.095703125 q 395.99609375 -666.9921875 399.4140625 -658.69140625 q 402.83203125 -650.390625 402.83203125 -641.11328125 l 402.83203125 -641.11328125 q 402.83203125 -631.8359375 399.4140625 -623.53515625 q 395.99609375 -615.234375 389.892578125 -609.130859375 q 383.7890625 -603.02734375 375.48828125 -599.609375 q 367.1875 -596.19140625 357.91015625 -596.19140625 l 357.91015625 -596.19140625 q 348.6328125 -596.19140625 340.33203125 -599.609375 q 332.03125 -603.02734375 325.927734375 -609.130859375 q 319.82421875 -615.234375 316.40625 -623.53515625 q 312.98828125 -631.8359375 312.98828125 -641.11328125"},"":{"ha":678,"x_min":-10,"x_max":688,"o":"m 687.98828125 0 l 554.19921875 0 l 554.19921875 -1.953125 q 555.17578125 -4.39453125 555.6640625 -9.27734375 q 556.15234375 -14.16015625 556.15234375 -18.06640625 l 556.15234375 -18.06640625 q 556.15234375 -33.203125 552.001953125 -51.513671875 q 547.8515625 -69.82421875 536.1328125 -97.16796875 l 536.1328125 -97.16796875 l 477.05078125 -229.98046875 q 449.70703125 -230.95703125 404.296875 -230.95703125 q 358.88671875 -230.95703125 306.15234375 -230.95703125 l 306.15234375 -230.95703125 q 267.578125 -230.95703125 231.689453125 -230.95703125 q 195.80078125 -230.95703125 166.9921875 -229.98046875 l 166.9921875 -229.98046875 l 110.83984375 -101.07421875 q 103.515625 -83.0078125 95.21484375 -61.5234375 q 86.9140625 -40.0390625 86.9140625 -18.06640625 l 86.9140625 -18.06640625 q 86.9140625 -11.71875 87.890625 -7.568359375 q 88.8671875 -3.41796875 89.84375 -1.953125 l 89.84375 -1.953125 l 89.84375 0 l -9.765625 0 l -9.765625 -1.953125 q -0.9765625 -11.23046875 12.20703125 -34.912109375 q 25.390625 -58.59375 41.015625 -94.23828125 l 41.015625 -94.23828125 l 320.80078125 -714.84375 l 359.86328125 -714.84375 l 625 -118.1640625 q 634.27734375 -97.16796875 644.287109375 -77.392578125 q 654.296875 -57.6171875 663.0859375 -41.9921875 q 671.875 -26.3671875 678.7109375 -15.625 q 685.546875 -4.8828125 687.98828125 -1.953125 l 687.98828125 -1.953125 l 687.98828125 0 m 185.05859375 -272.94921875 l 237.79296875 -272.94921875 q 266.11328125 -272.94921875 295.8984375 -273.193359375 q 325.68359375 -273.4375 354.248046875 -273.681640625 q 382.8125 -273.92578125 409.1796875 -274.169921875 q 435.546875 -274.4140625 457.03125 -274.90234375 l 457.03125 -274.90234375 l 319.82421875 -584.9609375 l 185.05859375 -272.94921875 m 272.94921875 -862.3046875 l 272.94921875 -862.3046875 q 272.94921875 -848.14453125 278.076171875 -836.181640625 q 283.203125 -824.21875 292.48046875 -814.94140625 q 301.7578125 -805.6640625 313.720703125 -800.537109375 q 325.68359375 -795.41015625 339.84375 -795.41015625 l 339.84375 -795.41015625 q 353.515625 -795.41015625 365.72265625 -800.537109375 q 377.9296875 -805.6640625 387.20703125 -814.94140625 q 396.484375 -824.21875 401.611328125 -836.181640625 q 406.73828125 -848.14453125 406.73828125 -862.3046875 l 406.73828125 -862.3046875 q 406.73828125 -875.9765625 401.611328125 -888.18359375 q 396.484375 -900.390625 387.20703125 -909.66796875 q 377.9296875 -918.9453125 365.72265625 -924.072265625 q 353.515625 -929.19921875 339.84375 -929.19921875 l 339.84375 -929.19921875 q 325.68359375 -929.19921875 313.720703125 -924.072265625 q 301.7578125 -918.9453125 292.48046875 -909.66796875 q 283.203125 -900.390625 278.076171875 -888.18359375 q 272.94921875 -875.9765625 272.94921875 -862.3046875 m 228.02734375 -862.3046875 l 228.02734375 -862.3046875 q 228.02734375 -885.7421875 236.81640625 -906.005859375 q 245.60546875 -926.26953125 260.7421875 -941.40625 q 275.87890625 -956.54296875 296.142578125 -965.33203125 q 316.40625 -974.12109375 339.84375 -974.12109375 l 339.84375 -974.12109375 q 363.28125 -974.12109375 383.544921875 -965.33203125 q 403.80859375 -956.54296875 418.9453125 -941.40625 q 434.08203125 -926.26953125 442.87109375 -906.005859375 q 451.66015625 -885.7421875 451.66015625 -862.3046875 l 451.66015625 -862.3046875 q 451.66015625 -838.8671875 442.87109375 -818.603515625 q 434.08203125 -798.33984375 418.9453125 -782.958984375 q 403.80859375 -767.578125 383.544921875 -758.7890625 q 363.28125 -750 339.84375 -750 l 339.84375 -750 q 316.40625 -750 296.142578125 -758.7890625 q 275.87890625 -767.578125 260.7421875 -782.958984375 q 245.60546875 -798.33984375 236.81640625 -818.603515625 q 228.02734375 -838.8671875 228.02734375 -862.3046875"},"":{"ha":517,"x_min":36,"x_max":459,"o":"m 36.1328125 -144.04296875 l 36.1328125 -144.04296875 q 36.1328125 -182.6171875 52.001953125 -210.9375 q 67.87109375 -239.2578125 94.23828125 -259.27734375 q 120.60546875 -279.296875 154.296875 -291.748046875 q 187.98828125 -304.19921875 224.12109375 -311.279296875 q 260.25390625 -318.359375 295.41015625 -321.044921875 q 330.56640625 -323.73046875 359.86328125 -324.21875 l 359.86328125 -324.21875 l 359.86328125 -349.12109375 q 359.86328125 -381.34765625 351.5625 -404.78515625 q 343.26171875 -428.22265625 328.125 -443.603515625 q 312.98828125 -458.984375 291.748046875 -466.552734375 q 270.5078125 -474.12109375 245.1171875 -474.12109375 l 245.1171875 -474.12109375 q 227.5390625 -474.12109375 210.44921875 -471.19140625 q 193.359375 -468.26171875 175.048828125 -461.42578125 q 156.73828125 -454.58984375 136.474609375 -442.87109375 q 116.2109375 -431.15234375 92.7734375 -413.0859375 l 92.7734375 -413.0859375 l 87.890625 -416.015625 l 121.09375 -484.86328125 q 137.20703125 -492.1875 152.83203125 -496.826171875 q 168.45703125 -501.46484375 184.5703125 -504.39453125 q 200.68359375 -507.32421875 217.529296875 -508.544921875 q 234.375 -509.765625 252.9296875 -509.765625 l 252.9296875 -509.765625 q 304.19921875 -509.765625 340.576171875 -497.314453125 q 376.953125 -484.86328125 400.146484375 -463.134765625 q 423.33984375 -441.40625 434.08203125 -412.353515625 q 444.82421875 -383.30078125 444.82421875 -350.09765625 l 444.82421875 -350.09765625 l 444.82421875 -190.91796875 q 444.82421875 -149.4140625 446.044921875 -118.408203125 q 447.265625 -87.40234375 448.974609375 -64.94140625 q 450.68359375 -42.48046875 453.369140625 -27.34375 q 456.0546875 -12.20703125 458.984375 -1.953125 l 458.984375 -1.953125 l 458.984375 0 l 351.07421875 0 l 351.07421875 -1.953125 q 353.515625 -9.765625 354.736328125 -19.53125 q 355.95703125 -29.296875 356.93359375 -42.96875 l 356.93359375 -42.96875 q 346.6796875 -34.1796875 332.763671875 -24.90234375 q 318.84765625 -15.625 301.025390625 -8.056640625 q 283.203125 -0.48828125 261.474609375 4.150390625 q 239.74609375 8.7890625 213.8671875 8.7890625 l 213.8671875 8.7890625 q 128.90625 8.7890625 82.51953125 -31.005859375 q 36.1328125 -70.80078125 36.1328125 -144.04296875 m 359.86328125 -190.91796875 l 359.86328125 -286.1328125 q 315.4296875 -285.64453125 274.4140625 -281.005859375 q 233.3984375 -276.3671875 201.904296875 -261.71875 q 170.41015625 -247.0703125 151.611328125 -219.970703125 q 132.8125 -192.87109375 132.8125 -147.94921875 l 132.8125 -147.94921875 q 132.8125 -90.33203125 161.62109375 -60.05859375 q 190.4296875 -29.78515625 241.2109375 -29.78515625 l 241.2109375 -29.78515625 q 264.6484375 -29.78515625 283.935546875 -36.376953125 q 303.22265625 -42.96875 318.115234375 -52.978515625 q 333.0078125 -62.98828125 343.26171875 -74.951171875 q 353.515625 -86.9140625 358.88671875 -98.14453125 l 358.88671875 -98.14453125 q 359.86328125 -116.69921875 359.86328125 -139.404296875 q 359.86328125 -162.109375 359.86328125 -190.91796875 l 359.86328125 -190.91796875 m 191.89453125 -662.109375 l 191.89453125 -662.109375 q 191.89453125 -647.94921875 197.021484375 -635.986328125 q 202.1484375 -624.0234375 211.42578125 -614.74609375 q 220.703125 -605.46875 232.666015625 -600.341796875 q 244.62890625 -595.21484375 258.7890625 -595.21484375 l 258.7890625 -595.21484375 q 272.4609375 -595.21484375 284.66796875 -600.341796875 q 296.875 -605.46875 306.15234375 -614.74609375 q 315.4296875 -624.0234375 320.556640625 -635.986328125 q 325.68359375 -647.94921875 325.68359375 -662.109375 l 325.68359375 -662.109375 q 325.68359375 -675.78125 320.556640625 -687.98828125 q 315.4296875 -700.1953125 306.15234375 -709.47265625 q 296.875 -718.75 284.66796875 -723.876953125 q 272.4609375 -729.00390625 258.7890625 -729.00390625 l 258.7890625 -729.00390625 q 244.62890625 -729.00390625 232.666015625 -723.876953125 q 220.703125 -718.75 211.42578125 -709.47265625 q 202.1484375 -700.1953125 197.021484375 -687.98828125 q 191.89453125 -675.78125 191.89453125 -662.109375 m 146.97265625 -662.109375 l 146.97265625 -662.109375 q 146.97265625 -685.546875 155.76171875 -705.810546875 q 164.55078125 -726.07421875 179.6875 -741.2109375 q 194.82421875 -756.34765625 215.087890625 -765.13671875 q 235.3515625 -773.92578125 258.7890625 -773.92578125 l 258.7890625 -773.92578125 q 282.2265625 -773.92578125 302.490234375 -765.13671875 q 322.75390625 -756.34765625 337.890625 -741.2109375 q 353.02734375 -726.07421875 361.81640625 -705.810546875 q 370.60546875 -685.546875 370.60546875 -662.109375 l 370.60546875 -662.109375 q 370.60546875 -638.671875 361.81640625 -618.408203125 q 353.02734375 -598.14453125 337.890625 -582.763671875 q 322.75390625 -567.3828125 302.490234375 -558.59375 q 282.2265625 -549.8046875 258.7890625 -549.8046875 l 258.7890625 -549.8046875 q 235.3515625 -549.8046875 215.087890625 -558.59375 q 194.82421875 -567.3828125 179.6875 -582.763671875 q 164.55078125 -598.14453125 155.76171875 -618.408203125 q 146.97265625 -638.671875 146.97265625 -662.109375"},"":{"ha":835,"x_min":-60,"x_max":785,"o":"m 429.19921875 -349.12109375 l 377.9296875 -349.12109375 q 338.37890625 -349.12109375 300.537109375 -349.12109375 q 262.6953125 -349.12109375 233.88671875 -348.14453125 l 233.88671875 -348.14453125 l 89.84375 -99.12109375 q 84.9609375 -90.33203125 79.58984375 -80.322265625 q 74.21875 -70.3125 69.580078125 -60.05859375 q 64.94140625 -49.8046875 62.01171875 -39.0625 q 59.08203125 -28.3203125 59.08203125 -18.06640625 l 59.08203125 -18.06640625 q 59.08203125 -11.71875 60.05859375 -7.568359375 q 61.03515625 -3.41796875 62.01171875 -1.953125 l 62.01171875 -1.953125 l 62.01171875 0 l -60.05859375 0 l -60.05859375 -1.953125 q -44.43359375 -11.71875 -23.4375 -34.423828125 q -2.44140625 -57.12890625 18.06640625 -91.796875 l 18.06640625 -91.796875 l 266.11328125 -506.8359375 q 288.57421875 -544.921875 306.15234375 -576.904296875 q 323.73046875 -608.88671875 336.42578125 -633.544921875 q 349.12109375 -658.203125 357.177734375 -675.29296875 q 365.234375 -692.3828125 368.1640625 -700.1953125 l 368.1640625 -700.1953125 l 435.05859375 -700.1953125 q 494.140625 -700.1953125 551.025390625 -700.68359375 q 607.91015625 -701.171875 655.029296875 -701.904296875 q 702.1484375 -702.63671875 735.595703125 -704.1015625 q 769.04296875 -705.56640625 780.76171875 -708.0078125 l 780.76171875 -708.0078125 l 756.8359375 -643.06640625 q 740.72265625 -647.4609375 719.23828125 -650.87890625 l 719.23828125 -650.87890625 q 700.68359375 -653.80859375 674.072265625 -656.494140625 q 647.4609375 -659.1796875 612.79296875 -659.1796875 l 612.79296875 -659.1796875 q 601.07421875 -659.1796875 584.9609375 -658.447265625 q 568.84765625 -657.71484375 553.7109375 -656.73828125 l 553.7109375 -656.73828125 q 536.1328125 -655.76171875 518.06640625 -654.78515625 l 518.06640625 -654.78515625 l 518.06640625 -388.18359375 q 568.359375 -388.671875 608.642578125 -391.11328125 q 648.92578125 -393.5546875 677.24609375 -395.99609375 l 677.24609375 -395.99609375 q 710.44921875 -398.92578125 735.83984375 -402.83203125 l 735.83984375 -402.83203125 l 721.19140625 -332.03125 q 687.5 -336.42578125 652.34375 -340.33203125 l 652.34375 -340.33203125 q 622.0703125 -343.75 586.42578125 -346.435546875 q 550.78125 -349.12109375 518.06640625 -349.12109375 l 518.06640625 -349.12109375 l 518.06640625 -42.96875 q 575.1953125 -42.96875 623.779296875 -47.8515625 q 672.36328125 -52.734375 708.49609375 -59.08203125 l 708.49609375 -59.08203125 q 750.48828125 -65.91796875 785.15625 -75.1953125 l 785.15625 -75.1953125 l 770.99609375 3.90625 q 765.13671875 3.41796875 753.41796875 2.9296875 q 741.69921875 2.44140625 727.294921875 1.953125 q 712.890625 1.46484375 697.021484375 1.220703125 q 681.15234375 0.9765625 666.9921875 0.732421875 q 652.83203125 0.48828125 641.845703125 0.244140625 q 630.859375 0 625.9765625 0 l 625.9765625 0 l 415.0390625 0 l 415.0390625 -1.953125 q 417.96875 -12.20703125 420.654296875 -27.34375 q 423.33984375 -42.48046875 425.048828125 -64.94140625 q 426.7578125 -87.40234375 427.978515625 -118.408203125 q 429.19921875 -149.4140625 429.19921875 -190.91796875 l 429.19921875 -190.91796875 l 429.19921875 -349.12109375 m 403.80859375 -642.08984375 l 255.859375 -386.23046875 l 429.19921875 -386.23046875 l 429.19921875 -508.7890625 q 429.19921875 -554.19921875 429.19921875 -586.42578125 q 429.19921875 -618.65234375 428.22265625 -642.08984375 l 428.22265625 -642.08984375 l 403.80859375 -642.08984375"}}}
